<ttFont>
          <CharString index="0" raw="1">
            b1f70f15 37b658df cdb7aeb8 ab1e47ed
            074f0a72 1d60fbd0 05428161 635d1b62
            7a9fb993 8d94baf7 ee1ffb0a 0659fc08
            8887701a 0b  
          </CharString>
          <CharString index="1" raw="1">
            aff74815 fb17cb4e f70ef75b b7f75cf7
            2ff7174b cbfb0efb 5b5ffb5f fb2f1ef7
            0f8e15b1 91f76cf7 02ba9f6a 4e6585fb
            6cfb025c 77abc91e 0b 
          </CharString>
          <CharString index="2" raw="1">
            1535fb18 4e1df700 f7158a8e 050b
          </CharString>
          <CharString index="3" raw="1">
            152827fb 02fb92fb 10c04de4 afb7a0bc
            a51f5f95 a871b71b a79e9492 973d0a1f
            0b   
          </CharString>
          <CharString index="4" raw="1">
            05fb0506 56fc1205 8980865d 8b1a8888
            058b7cba 849c1efb 31f80e05 fb043a0a
            f70406c0 f812058e 9d8eb28b 1a8f8e05
            8b9b5991 7d1e0b  
          </CharString>
          <CharString index="5" raw="1">
            ea3ae613 0013a2b5 651dc256 0a13c4e1
            f790059e c491db8b 1a91068b 8d388f54
            1e13a29c fb8f0573 1df75bf8 a2052006
            41fb6f05 764f6ffb 028b1a87 068b8af7
            0a88bf1e 13a47ef7 6f05fb0c 0640fb6e
            05713d7c 2e8b1a87 068b88ed 85d51e79
            f76d0513 180b  
          </CharString>
          <CharString index="6" raw="1">
            f726f849 0595a89b cf8b1a90 068b8a70
            6e1a7d8b 7c8c7f1e aafc4905 f71b06f7
            805e0afb 0406fb1f fc3a0580 697c4d8b
            1a870675 f89a05fb 2506fb20 fc3a0581
            6e7b488b 1a870676 f89a050b 
          </CharString>
          <CharString index="7" raw="1">
            ba7867a7 541b71fc 5315657b aecbc59f
            f74fdeb4 97674e40 79fb4037 1f0e
          </CharString>
          <CharString index="8" raw="1">
            8f3a1580 2f058aa6 83bbefcb eaf706bc
            1ef767f8 879c0a28 fb8c0579 5e71308b
            1a87068b 84ec84b3 1e5ff78b 05fb0c06
            ef691d51 75687469 1b0b 
          </CharString>
          <CharString index="9" raw="1">
            15cefb1b 05ed06f3 f71b052d 06594668
            d0050b   
          </CharString>
          <CharString index="10" raw="1">
            f71326f7 0d791d13 a900a1f7 101536d4
            58f709f3 ebbcf714 1e13a500 f746fb6e
            57ec1aab a69faa1e 13c480bd 946e641f
            f70d0613 a480e065 dcfb1622 3253fb00
            1e13a500 fb4af76b bf231a64 667c6f1e
            13a90065 6798ba93 8f9c8b9e 0a860a13
            12000b   
          </CharString>
          <CharString index="11" raw="1">
            d495b5b3 b91bb49c 775d8389 825cfbee
            1f731dbd f8088e8f a61adf60 be37475f
            675d6c1e 0b  
          </CharString>
          <CharString index="12" raw="1">
            15e5fb15 4e1d48f7 1805fb0c 060b
          </CharString>
          <CharString index="13" raw="1">
            f76bf797 1567fb97 670ab0f7 97f79ef8
            3f05fb15 06fb47fb c1058706 28f7c105
            fb16060b   
          </CharString>
          <CharString index="14" raw="1">
            6f837c82 765f69b0 5b1b4560 46561f0b
          </CharString>
          <CharString index="15" raw="1">
            1550b879 b5a1a190 94a31e93 c2057506
            6f809da1 aba4ac9b 9b1f0b 
          </CharString>
          <CharString index="16" raw="1">
            ebf8a27c 0a0b  
          </CharString>
          <CharString index="17" raw="1">
            f7065a1d 2b4a1df7 1306660a 0b
          </CharString>
          <CharString index="18" raw="1">
            42fb3005 d306e5f7 3c9cf711 050b
          </CharString>
          <CharString index="19" raw="1">
            e8b0d2d1 941fc9f8 66680a99 f0053106
            93c805a7 8f9c9aa6 1bbb0698 e4059178
            6591701b 2c654445 811f824b 0557067d
            26050b   
          </CharString>
          <CharString index="20" raw="1">
            3c1d13b6 830a1376 6c0a13ae 3f1d13b5
            2f1d   
          </CharString>
          <CharString index="21" raw="1">
            069af701 050b  
          </CharString>
          <CharString index="22" raw="1">
            9b4e0a0b   
          </CharString>
          <CharString index="23" raw="1">
            af6b15d6 06a0ae05 81a4a986 ae1bf75b
            b7f75cf7 2fc97cba 6fac1fb7 d4054006
            75670595 726d9168 1bfb5b5f fb5ffb2f
            4c995ca8 6c1fdbf7 19159607 b191f76c
            f7029a97 8785951e a9401582 076585fb
            6cfb027c 7f8e9181 1e0b 
          </CharString>
          <CharString index="24" raw="1">
            451db798 0ad495b4 b3b91bb4 9c775d83
            8a825bfb ee1f731d bdf8088e 8fa61adf
            60be3750 636e656c 1e0b 
          </CharString>
          <CharString index="25" raw="1">
            1513123e 1d130a4c 0a13122d 1d130a5c
            b85ada1e 0e  
          </CharString>
          <CharString index="26" raw="1">
            062b4a1d 0b  
          </CharString>
          <CharString index="27" raw="1">
            157e3405 f7930698 e2050b 
          </CharString>
          <CharString index="28" raw="1">
            7ff702f8 7ef7020b  
          </CharString>
          <CharString index="29" raw="1">
            1f950a79 067d8193 9f0b 
          </CharString>
          <CharString index="30" raw="1">
            def83d15 4ffc5e05 6c877a7a 6d1b5f06
            7e320585 9fb085a8 1b0b 
          </CharString>
          <CharString index="31" raw="1">
            571dfb46 0b  
          </CharString>
          <CharString index="32" raw="1">
            15fc82fd 5a05ce06 f881f95a 050b
          </CharString>
          <CharString index="33" raw="1">
            2fce5af7 0bf702d0 c8f7069b 1ed5f89f
            05710a43 fc95055b 84757062 1b6276a0
            b20b   
          </CharString>
          <CharString index="34" raw="1">
            76068148 059f069d 9c826b59 75767374
            8098a58f 8b908fa2 1f390687 748b8484
            1a0b   
          </CharString>
          <CharString index="35" raw="1">
            153efcc3 056c867a 7a6c1b60 067f3205
            859eb085 a91be9ae d2d1951f daf8cb05
            0b   
          </CharString>
          <CharString index="36" raw="1">
            03f7d14b 1d0b  
          </CharString>
          <CharString index="37" raw="1">
            baf7e205 63066775 54786c87 845318d6
            066afb7d 050b  
          </CharString>
          <CharString index="38" raw="1">
            f70e5c0a 891d0b  
          </CharString>
          <CharString index="39" raw="1">
            78920a9e 871d0b  
          </CharString>
          <CharString index="40" raw="1">
            15f72206 7e3205da 0698e405 b59f1d61
            06a2f73c 0570067e 6a664777 6d866618
            4706aab2 d5f707b0 f1083c06 65305927
            5842080e   
          </CharString>
          <CharString index="41" raw="1">
            36790a26 f732b1f2 f7ccf701 7f770b
          </CharString>
          <CharString index="42" raw="1">
            13001388 520a1348 7d0a1328 9af70805
            13486b0a 1388db07 13140b 
          </CharString>
          <CharString index="43" raw="1">
            d2b7cec2 1f4a060b  
          </CharString>
          <CharString index="44" raw="1">
            7d877078 691b0b  
          </CharString>
          <CharString index="45" raw="1">
            15570a0b   
          </CharString>
          <CharString index="46" raw="1">
            f706050b   
          </CharString>
          <CharString index="47" raw="1">
            d4f8a205 0b  
          </CharString>
          <CharString index="48" raw="1">
            15fb143a 0af71406 a3f743f7 10f718f7
            00fbc705 f72006fb 2df829f7 87f7ad05
            fb2a06fb b4fbe605 0e 
          </CharString>
          <CharString index="49" raw="1">
            f71d1580 1d0b  
          </CharString>
          <CharString index="50" raw="1">
            eb651d42 691d731d b4f7b905 0b
          </CharString>
          <CharString index="51" raw="1">
            bf3c0ac0 f718590a 0b 
          </CharString>
          <CharString index="52" raw="1">
            cddbf1cd f7001ac8 5fa45033 5d413c1e
            da06c593 9aa4a31b a0917c7c 24fb434e
            79fb181f 0e  
          </CharString>
          <CharString index="53" raw="1">
            ce5a1dbe 4a1df71b 060b 
          </CharString>
          <CharString index="54" raw="1">
            fca2451d 0b  
          </CharString>
          <CharString index="55" raw="1">
            7c5a0a0b   
          </CharString>
          <CharString index="56" raw="1">
            7ff2f7ec f27f770b  
          </CharString>
          <CharString index="57" raw="1">
            12b8f715 0b  
          </CharString>
          <CharString index="58" raw="1">
            fb01050b   
          </CharString>
          <CharString index="59" raw="1">
            f702f739 f702f76b f7020b 
          </CharString>
          <CharString index="60" raw="1">
            f967601d 0b  
          </CharString>
          <CharString index="61" raw="1">
            05f71e06 0b  
          </CharString>
          <CharString index="62" raw="1">
            f942050b   
          </CharString>
          <CharString index="63" raw="1">
            15814605 f7709f1d 49060b 
          </CharString>
          <CharString index="64" raw="1">
            36641d0b   
          </CharString>
          <CharString index="65" raw="1">
            b7ad66ba 1b0b  
          </CharString>
          <CharString index="66" raw="1">
            d39595a7 a71b9d92 7f6f7c89 7786631f
            0b   
          </CharString>
          <CharString index="67" raw="1">
            86a2ab88 a71bc2cd 9bd7b16b 9b658e1f
            0b   
          </CharString>
          <CharString index="68" raw="1">
            77920a9f 871d0b  
          </CharString>
          <CharString index="69" raw="1">
            fbcdf767 f70a0198 f79603a9 f7dd157a
            fb0a05f7 85069cf7 0a050e 
          </CharString>
          <CharString index="70" raw="1">
            eb5e0a0b   
          </CharString>
          <CharString index="71" raw="1">
            05f71206 0b  
          </CharString>
          <CharString index="72" raw="1">
            05e5060b   
          </CharString>
          <CharString index="73" raw="1">
            f70afb40 15abf779 055fa0ae 72c31bf2
            f2f702f7 92f70f56 ca310b 
          </CharString>
          <CharString index="74" raw="1">
            fb18da07 b6f718a0 f727058a 0a0b
          </CharString>
          <CharString index="75" raw="1">
            8b7a936c 546b5a60 761e0b 
          </CharString>
          <CharString index="76" raw="1">
            5f78a0af 9e0a0b  
          </CharString>
          <CharString index="77" raw="1">
            f701f841 770b  
          </CharString>
          <CharString index="78" raw="1">
            01a7f8a4 030b  
          </CharString>
          <CharString index="79" raw="1">
            fc3efb4e 15dad99f d31e876d 054d836c
            56541b67 7b9ca81f 0b 
          </CharString>
          <CharString index="80" raw="1">
            788d1d0b   
          </CharString>
          <CharString index="81" raw="1">
            fb13060b   
          </CharString>
          <CharString index="82" raw="1">
            15320afb 1e06700a 0e 
          </CharString>
          <CharString index="83" raw="1">
            988c9a90 aa1ec694 99b4b31b a8947569
            7e8a7c87 6c1f0b  
          </CharString>
          <CharString index="84" raw="1">
            fb9ff832 f704fb04 f7108377 0b
          </CharString>
          <CharString index="85" raw="1">
            06f735f7 5cfb00f7 5c053006 0b
          </CharString>
          <CharString index="86" raw="1">
            fb4ac45a 77f7090b  
          </CharString>
          <CharString index="87" raw="1">
            05f71406 0b  
          </CharString>
          <CharString index="88" raw="1">
            157c2405 f830069a f2050e 
          </CharString>
          <CharString index="89" raw="1">
            fb4af00b   
          </CharString>
          <CharString index="90" raw="1">
            91a0870a 0b  
          </CharString>
          <CharString index="91" raw="1">
            7fedf7b2 f73a29ed 0b 
          </CharString>
          <CharString index="92" raw="1">
            1542560a 0b  
          </CharString>
          <CharString index="93" raw="1">
            e898bca7 bf1bb106 0b 
          </CharString>
          <CharString index="94" raw="1">
            01c6f714 0b  
          </CharString>
          <CharString index="95" raw="1">
            f71b120b   
          </CharString>
          <CharString index="96" raw="1">
            157afb13 f813fb62 9bf70afb b5f72cf7
            e0f72c0b   
          </CharString>
          <CharString index="97" raw="1">
            f70e5692 bffb25f7 59057606 fb5dfb59
            84570b   
          </CharString>
          <CharString index="98" raw="1">
            b1a1a7a8 c41aca61 ac4b0b 
          </CharString>
          <CharString index="99" raw="1">
            44806968 541b0b  
          </CharString>
          <CharString index="100" raw="1">
            f777e0f7 84f74ef7 4132e2fb 2c1ffb67
            060b   
          </CharString>
          <CharString index="101" raw="1">
            fb448bf0 f7d8f00b  
          </CharString>
          <CharString index="102" raw="1">
            8b857374 1a0b  
          </CharString>
          <CharString index="103" raw="1">
            76f7b2f7 05f741f7 060b 
          </CharString>
          <CharString index="104" raw="1">
            1271f8dc 0b  
          </CharString>
          <CharString index="105" raw="1">
            77e0f718 0b  
          </CharString>
          <CharString index="106" raw="1">
            fb0e060b   
          </CharString>
          <CharString index="107" raw="1">
            f717a5f7 20ebe95b aa3c3742 4dfb430b
          </CharString>
          <CharString index="108" raw="1">
            501de0f7 187e1d0b  
          </CharString>
          <CharString index="109" raw="1">
            fb9ffb33 d8f7d8b4 95b4f7d8 d8120b
          </CharString>
          <CharString index="110" raw="1">
            05bb92a5 a3af1bab a0776484 8a840b
          </CharString>
          <CharString index="111" raw="1">
            1578fb17 05f70d06 9ef71705 0e
          </CharString>
          <CharString index="112" raw="1">
            9c6c5144 7dfb402b 0b 
          </CharString>
          <CharString index="113" raw="1">
            6174775a 5c1a0b  
          </CharString>
          <CharString index="114" raw="1">
            fb1d5d0a 0b  
          </CharString>
          <CharString index="115" raw="1">
            77f700f7 010b  
          </CharString>
          <CharString index="116" raw="1">
            129df773 0b  
          </CharString>
          <CharString index="117" raw="1">
            97e0050b   
          </CharString>
          <CharString index="118" raw="1">
            8bf7060b   
          </CharString>
          <CharString index="119" raw="1">
            670adb0b   
          </CharString>
          <CharString index="120" raw="1">
            f7d0050b   
          </CharString>
          <CharString index="121" raw="1">
            f7237fec 2aeff725 e2f70ced 0b
          </CharString>
          <CharString index="122" raw="1">
            15640a0b   
          </CharString>
          <CharString index="123" raw="1">
            05ac06a1 94857f0b  
          </CharString>
          <CharString index="124" raw="1">
            05fb0a06 0b  
          </CharString>
          <CharString index="125" raw="1">
            12a1f70b 0b  
          </CharString>
          <CharString index="126" raw="1">
            1f8a0a0b   
          </CharString>
          <CharString index="127" raw="1">
            774c050b   
          </CharString>
          <CharString index="128" raw="1">
            fb08dd72 c8d0bca7 b4b41e0b 
          </CharString>
          <CharString index="129" raw="1">
            64f94261 1dcef8b1 0b 
          </CharString>
          <CharString index="130" raw="1">
            055706fb 72fb4189 76f7400b 
          </CharString>
          <CharString index="131" raw="1">
            4d1d671d af0b  
          </CharString>
          <CharString index="132" raw="1">
            5ffb5705 e306b7f7 57050b 
          </CharString>
          <CharString index="133" raw="1">
            05f72f06 9af305fb 2f060b 
          </CharString>
          <CharString index="134" raw="1">
            91a076f7 baf706f7 aa770b 
          </CharString>
        <CharString name=".notdef">
          192 0 50 600 50 hstem
          90 598 vstem
          188 700 rmoveto
          -98 -700 rlineto
          500 hlineto
          98 700 rlineto
          -87 -50 rmoveto
          -205 -255 -135 255 rlineto
          256 -600 rmoveto
          -340 hlineto
          206 255 rlineto
          170 -210 rmoveto
          -134 255 206 255 rlineto
          -266 -255 rmoveto
          -206 -255 72 510 rlineto
          endchar
        </CharString>
        <CharString name="A">
          6 21 -21 135 114 321 116 0 -20 hstemhm
          -26 584 hintmask 11011000
          288 686 rmoveto
          -314 -686 rlineto
          128 hlineto
          59 135 rlineto
          245 hlineto
          22 -135 rlineto
          130 hlineto
          -123 686 rlineto
          -48 -437 rmoveto
          -175 hlineto
          83 188 rlineto
          hintmask 11101000
          22 49 24 84 0 vvcurveto
          4 hlineto
          0 4 -81 8 -52 vhcurveto
          endchar
        </CharString>
        <CharString name="AE">
          234 0 114 21 114 45 114 164 114 hstemhm
          -52 883 hintmask 10111000
          295 437 rmoveto
          24 48 22 85 0 vvcurveto
          4 hlineto
          hintmask 11111000
          29 -321 rlineto
          -173 hlineto
          hintmask 10111000
          540 -249 rmoveto
          16 114 rlineto
          -243 hlineto
          -18 180 rlineto
          237 hlineto
          16 114 rlineto
          -264 hlineto
          -17 164 rlineto
          347 hlineto
          16 114 rlineto
          -528 hlineto
          -355 -686 rlineto
          130 hlineto
          hintmask 11111000
          67 135 rlineto
          240 hlineto
          hintmask 10111000
          12 -135 rlineto
          endchar
        </CharString>
        <CharString name="AEacute">
          234 0 114 21 114 45 114 164 114 65 132 hstemhm
          -52 883 hintmask 10111100
          457 883 rmoveto
          -86 -132 rlineto
          99 hlineto
          108 129 -1 3 rlineto
          -282 -446 rmoveto
          24 48 22 85 0 vvcurveto
          4 hlineto
          hintmask 11111100
          29 -321 rlineto
          -173 hlineto
          hintmask 10111100
          540 -249 rmoveto
          16 114 rlineto
          -243 hlineto
          -18 180 rlineto
          237 hlineto
          16 114 rlineto
          -264 hlineto
          -17 164 rlineto
          347 hlineto
          16 114 rlineto
          -528 hlineto
          -355 -686 rlineto
          130 hlineto
          hintmask 11111100
          67 135 rlineto
          240 hlineto
          hintmask 10111100
          12 -135 rlineto
          endchar
        </CharString>
        <CharString name="Aacute">
          6 21 -21 135 114 321 116 0 -20 85 132 hstemhm
          -26 584 hintmask 11011100
          288 686 rmoveto
          -314 -686 rlineto
          128 hlineto
          59 135 rlineto
          245 hlineto
          22 -135 rlineto
          130 hlineto
          -123 686 rlineto
          -48 -437 rmoveto
          -175 hlineto
          83 188 rlineto
          hintmask 11101100
          22 49 24 84 0 vvcurveto
          4 hlineto
          0 4 -81 8 -52 vhcurveto
          35 446 rmoveto
          -86 -132 rlineto
          99 hlineto
          108 129 -1 3 rlineto
          endchar
        </CharString>
        <CharString name="Abreve">
          6 21 -21 135 114 321 116 0 -20 110 107 hstemhm
          -26 584 hintmask 11011100
          288 686 rmoveto
          -314 -686 rlineto
          128 hlineto
          59 135 rlineto
          245 hlineto
          22 -135 rlineto
          130 hlineto
          -123 686 rlineto
          -48 -437 rmoveto
          -175 hlineto
          83 188 rlineto
          hintmask 11101100
          22 49 24 84 0 vvcurveto
          4 hlineto
          0 4 -81 8 -52 vhcurveto
          20 339 rmoveto
          80 57 57 50 7 hvcurveto
          -74 hlineto
          -14 -4 -27 -19 -34 hhcurveto
          -33 -20 19 14 -1 hvcurveto
          -74 hlineto
          -1 -4 0 -3 -4 vvcurveto
          -47 45 -49 79 vhcurveto
          endchar
        </CharString>
        <CharString name="Acircumflex">
          6 21 -21 135 114 321 116 0 -20 82 135 hstemhm
          -26 584 hintmask 11011100
          288 686 rmoveto
          -314 -686 rlineto
          128 hlineto
          59 135 rlineto
          245 hlineto
          22 -135 rlineto
          130 hlineto
          -123 686 rlineto
          -48 -437 rmoveto
          -175 hlineto
          83 188 rlineto
          hintmask 11101100
          22 49 24 84 0 vvcurveto
          4 hlineto
          0 4 -81 8 -52 vhcurveto
          -19 446 rmoveto
          -104 -135 rlineto
          93 hlineto
          51 69 34 -69 rlineto
          90 hlineto
          -66 135 rlineto
          endchar
        </CharString>
        <CharString name="Adieresis">
          6 21 -21 135 114 321 116 0 -20 108 109 hstemhm
          -26 584 hintmask 11011100
          288 686 rmoveto
          -314 -686 rlineto
          128 hlineto
          59 135 rlineto
          245 hlineto
          22 -135 rlineto
          130 hlineto
          -123 686 rlineto
          -48 -437 rmoveto
          -175 hlineto
          83 188 rlineto
          hintmask 11101100
          22 49 24 84 0 vvcurveto
          4 hlineto
          0 4 -81 8 -52 vhcurveto
          68 446 rmoveto
          -15 -109 rlineto
          100 hlineto
          15 109 rlineto
          -275 hmoveto
          -14 -109 rlineto
          99 hlineto
          15 109 rlineto
          endchar
        </CharString>
        <CharString name="Agrave">
          6 21 -21 135 114 321 116 0 -20 85 132 hstemhm
          -26 584 hintmask 11011100
          288 686 rmoveto
          -314 -686 rlineto
          128 hlineto
          59 135 rlineto
          245 hlineto
          22 -135 rlineto
          130 hlineto
          -123 686 rlineto
          -48 -437 rmoveto
          -175 hlineto
          83 188 rlineto
          hintmask 11101100
          22 49 24 84 0 vvcurveto
          4 hlineto
          0 4 -81 8 -52 vhcurveto
          -108 443 rmoveto
          90 -129 rlineto
          99 hlineto
          -67 132 rlineto
          -120 hlineto
          endchar
        </CharString>
        <CharString name="Amacron">
          6 21 -21 135 114 321 116 0 -20 93 87 hstemhm
          -26 584 hintmask 11011100
          288 686 rmoveto
          -314 -686 rlineto
          128 hlineto
          59 135 rlineto
          245 hlineto
          22 -135 rlineto
          130 hlineto
          -123 686 rlineto
          -48 -437 rmoveto
          -175 hlineto
          83 188 rlineto
          hintmask 11101100
          22 49 24 84 0 vvcurveto
          4 hlineto
          0 4 -81 8 -52 vhcurveto
          -103 409 rmoveto
          -13 -87 rlineto
          255 hlineto
          13 87 rlineto
          endchar
        </CharString>
        <CharString name="Aogonek">
          6 -190 69 -55 55 -34 -21 197 -21 135 114 321 116 0 -20 hstemhm
          415 102 hintmask 10011011
          415 -113 rmoveto
          -59 45 -18 42 vhcurveto
          hintmask 00111011
          22 22 5 9 24 hvcurveto
          hintmask 01011011
          8 55 rlineto
          -22 hlineto
          -28 -11 18 22 32 25 33 16 16 hvcurveto
          -123 686 rlineto
          -147 hlineto
          -314 -686 rlineto
          128 hlineto
          59 135 rlineto
          245 hlineto
          22 -135 rlineto
          45 hlineto
          hintmask 10011011
          -31 -26 -27 -34 -53 vvcurveto
          hintmask 00111101
          -28 362 rmoveto
          -175 hlineto
          83 188 rlineto
          22 49 24 84 0 vvcurveto
          4 hlineto
          0 4 -81 8 -52 vhcurveto
          endchar
        </CharString>
        <CharString name="Aring">
          6 21 -21 135 114 321 116 0 -20 55 50 92 50 hstemhm
          282 50 92 50 hintmask 11011111
          288 686 rmoveto
          -314 -686 rlineto
          128 hlineto
          59 135 rlineto
          245 hlineto
          22 -135 rlineto
          130 hlineto
          -123 686 rlineto
          -48 -437 rmoveto
          -175 hlineto
          83 188 rlineto
          hintmask 11101111
          22 49 24 84 0 vvcurveto
          4 hlineto
          0 4 -81 8 -52 vhcurveto
          21 284 rmoveto
          53 43 43 53 52 -42 44 -54 -53 -43 -43 -53 -54 44 -42 52 hvcurveto
          50 vmoveto
          -26 -20 20 26 26 20 20 26 25 21 -20 -26 -26 -21 -20 -25 hvcurveto
          endchar
        </CharString>
        <CharString name="Aringacute">
          6 21 -21 135 114 523 48 28 109 hstemhm
          272 50 93 49 hintmask 11111100
          464 727 rmoveto
          50 -42 43 -53 -54 -43 -42 -51 -18 5 -15 8 -14 vhcurveto
          -311 -680 rlineto
          128 hlineto
          59 135 rlineto
          245 hlineto
          22 -135 rlineto
          130 hlineto
          -119 664 rlineto
          16 16 9 23 24 vvcurveto
          -95 -45 rmoveto
          -27 -20 19 26 25 20 20 27 25 21 -20 -25 -26 -21 -19 -25 hvcurveto
          18 -433 rmoveto
          -175 hlineto
          83 188 rlineto
          22 49 24 84 0 vvcurveto
          4 hlineto
          0 4 -81 8 -52 vhcurveto
          hintmask 11011100
          50 520 rmoveto
          -71 -109 rlineto
          99 hlineto
          93 106 -1 3 rlineto
          endchar
        </CharString>
        <CharString name="Atilde">
          6 21 -21 135 114 321 116 0 -20 95 122 hstemhm
          -26 584 hintmask 11010100
          288 686 rmoveto
          -314 -686 rlineto
          128 hlineto
          59 135 rlineto
          245 hlineto
          22 -135 rlineto
          130 hlineto
          -123 686 rlineto
          -48 -437 rmoveto
          -175 hlineto
          83 188 rlineto
          hintmask 11101100
          22 49 24 84 0 vvcurveto
          4 hlineto
          0 4 -81 8 -52 vhcurveto
          -84 324 rmoveto
          27 8 15 10 21 hhcurveto
          44 34 -37 47 hhcurveto
          71 44 67 55 hvcurveto
          -65 hlineto
          -28 -8 -15 -9 -21 hhcurveto
          -44 -34 37 -48 hhcurveto
          -70 -43 -69 -53 hvcurveto
          endchar
        </CharString>
        <CharString name="B">
          6 0 114 181 113 164 114 hstemhm
          422 129 -103 133 hintmask 11110000
          28 hmoveto
          299 hlineto
          113 111 77 127 77 -41 55 -57 20 hvcurveto
          1 4 rlineto
          hintmask 11101000
          66 22 61 64 88 vvcurveto
          91 -69 61 -103 vhcurveto
          -285 hlineto
          hintmask 11110000
          213 -391 rmoveto
          58 27 -33 -44 -68 -45 -36 -56 hvcurveto
          -151 hlineto
          26 181 rlineto
          hintmask 11101000
          181 277 rmoveto
          44 27 -23 -46 -50 -38 -45 -65 hvcurveto
          -133 hlineto
          23 164 rlineto
          endchar
        </CharString>
        <CharString name="C">
          6 -12 110 490 110 hstem
          45 129 285 130 vstem
          45 250 rmoveto
          -178 88 -84 151 163 88 123 143 31 vhcurveto
          -125 hlineto
          -84 -18 -46 -72 -90 hhcurveto
          -77 -36 58 99 128 33 205 146 66 40 -50 -89 hvcurveto
          -18 130 13 vlineto
          170 -92 84 -144 -227 -81 -237 -211 vhcurveto
          endchar
        </CharString>
        <CharString name="CR">
          -586 endchar
        </CharString>
        <CharString name="Cacute">
          6 -12 110 490 110 53 132 hstem
          45 129 285 130 vstem
          45 250 rmoveto
          -178 88 -84 151 163 88 123 143 31 vhcurveto
          -125 hlineto
          -84 -18 -46 -72 -90 hhcurveto
          -77 -36 58 99 128 33 205 146 66 40 -50 -89 hvcurveto
          -18 130 13 vlineto
          170 -92 84 -144 -227 -81 -237 -211 vhcurveto
          351 633 rmoveto
          -86 -132 rlineto
          99 hlineto
          108 129 -1 3 rlineto
          endchar
        </CharString>
        <CharString name="Ccaron">
          6 -12 110 490 110 50 135 hstem
          45 129 285 130 vstem
          45 250 rmoveto
          -178 88 -84 151 163 88 123 143 31 vhcurveto
          -125 hlineto
          -84 -18 -46 -72 -90 hhcurveto
          -77 -36 58 99 128 33 205 146 66 40 -50 -89 hvcurveto
          -18 130 13 vlineto
          170 -92 84 -144 -227 -81 -237 -211 vhcurveto
          211 633 rmoveto
          67 -135 rlineto
          98 hlineto
          104 135 rlineto
          -94 hlineto
          -50 -69 -35 69 rlineto
          endchar
        </CharString>
        <CharString name="Ccedilla">
          6 -182 57 -28 -21 97 175 -89 -21 25 -21 596 110 hstemhm
          45 129 102 86 97 130 hintmask 1000111110000000
          45 250 rmoveto
          -156 67 -84 117 -18 vhcurveto
          hintmask 1010011110000000
          -17 -69 rlineto
          33 hlineto
          22 9 -6 -12 -24 -16 -6 -24 hvcurveto
          -71 hlineto
          hintmask 0100111110000000
          -7 -49 rlineto
          hintmask 1010011110000000
          -5 23 32 -3 28 hhcurveto
          55 66 16 76 38 -32 16 -38 3 hvcurveto
          hintmask 1001011110000000
          5 21 154 7 85 120 30 139 rlinecurve
          -125 hlineto
          hintmask 1010011110000000
          -84 -18 -46 -72 -90 hhcurveto
          -77 -36 58 99 128 33 205 146 66 40 -50 -89 hvcurveto
          -18 130 13 vlineto
          170 -92 84 -144 vhcurveto
          hintmask 1000111110000000
          -227 -81 -237 -211 hvcurveto
          endchar
        </CharString>
        <CharString name="Ccircumflex">
          6 -12 110 490 110 50 135 hstem
          45 129 285 130 vstem
          45 250 rmoveto
          -178 88 -84 151 163 88 123 143 31 vhcurveto
          -125 hlineto
          -84 -18 -46 -72 -90 hhcurveto
          -77 -36 58 99 128 33 205 146 66 40 -50 -89 hvcurveto
          -18 130 13 vlineto
          170 -92 84 -144 -227 -81 -237 -211 vhcurveto
          297 633 rmoveto
          -104 -135 rlineto
          93 hlineto
          51 69 34 -69 rlineto
          90 hlineto
          -66 135 rlineto
          endchar
        </CharString>
        <CharString name="Cdotaccent">
          6 -12 110 490 110 70 115 hstem
          45 129 285 130 vstem
          45 250 rmoveto
          -178 88 -84 151 163 88 123 143 31 vhcurveto
          -125 hlineto
          -84 -18 -46 -72 -90 hhcurveto
          -77 -36 58 99 128 33 205 146 66 40 -50 -89 hvcurveto
          -18 130 13 vlineto
          170 -92 84 -144 -227 -81 -237 -211 vhcurveto
          294 633 rmoveto
          -17 -115 rlineto
          107 hlineto
          17 115 rlineto
          endchar
        </CharString>
        <CharString name="D">
          6 0 114 458 114 hstem
          447 129 vstem
          264 hmoveto
          227 85 240 186 173 -89 87 -152 hvcurveto
          -211 hlineto
          -96 -686 rlineto
          289 572 rmoveto
          81 49 -52 -103 -120 -41 -183 -153 hvcurveto
          -82 hlineto
          64 458 rlineto
          endchar
        </CharString>
        <CharString name="Dcaron">
          6 0 114 458 114 62 135 hstem
          447 129 vstem
          251 883 rmoveto
          67 -135 rlineto
          98 hlineto
          104 135 rlineto
          -94 hlineto
          -50 -69 -35 69 rlineto
          -77 -883 rmoveto
          227 85 240 186 173 -89 87 -152 hvcurveto
          -211 hlineto
          -96 -686 rlineto
          289 572 rmoveto
          81 49 -52 -103 -120 -41 -183 -153 hvcurveto
          -82 hlineto
          64 458 rlineto
          endchar
        </CharString>
        <CharString name="Dcroat">
          6 0 114 198 85 175 114 hstem
          447 129 vstem
          264 hmoveto
          227 85 240 186 173 -89 87 -152 hvcurveto
          -211 hlineto
          -41 -289 rlineto
          -49 hlineto
          -11 -85 rlineto
          48 hlineto
          -43 -312 rlineto
          289 572 rmoveto
          81 49 -52 -103 -120 -41 -183 -153 hvcurveto
          -82 hlineto
          27 198 rlineto
          124 hlineto
          12 85 rlineto
          -124 hlineto
          25 175 rlineto
          endchar
        </CharString>
        <CharString name="Delta">
          -36 0 114 427 145 0 -20 hstemhm
          -27 556 hintmask 10110000
          -19 55 rmoveto
          -8 -55 rlineto
          548 hlineto
          8 55 -113 631 rlineto
          -147 hlineto
          122 -572 rmoveto
          -264 hlineto
          hintmask 11010000
          189 427 rlineto
          4 hlineto
          endchar
        </CharString>
        <CharString name="E">
          -39 0 114 180 114 164 114 hstem
          28 528 vstem
          466 hmoveto
          16 114 rlineto
          -312 hlineto
          26 180 rlineto
          262 hlineto
          16 114 rlineto
          -262 hlineto
          23 164 rlineto
          305 hlineto
          16 114 rlineto
          -432 hlineto
          -96 -686 rlineto
          endchar
        </CharString>
        <CharString name="Eacute">
          -39 0 114 180 114 164 114 65 132 hstem
          28 528 vstem
          377 883 rmoveto
          -86 -132 rlineto
          99 hlineto
          108 129 -1 3 rlineto
          -31 -883 rmoveto
          16 114 rlineto
          -312 hlineto
          26 180 rlineto
          262 hlineto
          16 114 rlineto
          -262 hlineto
          23 164 rlineto
          305 hlineto
          16 114 rlineto
          -432 hlineto
          -96 -686 rlineto
          endchar
        </CharString>
        <CharString name="Ebreve">
          -39 0 114 180 114 164 114 90 107 hstem
          28 528 vstem
          362 776 rmoveto
          80 57 57 50 7 hvcurveto
          -74 hlineto
          -14 -4 -27 -19 -34 hhcurveto
          -33 -20 19 14 -1 hvcurveto
          -74 hlineto
          -1 -4 0 -3 -4 vvcurveto
          -47 45 -49 79 vhcurveto
          104 -776 rmoveto
          16 114 rlineto
          -312 hlineto
          26 180 rlineto
          262 hlineto
          16 114 rlineto
          -262 hlineto
          23 164 rlineto
          305 hlineto
          16 114 rlineto
          -432 hlineto
          -96 -686 rlineto
          endchar
        </CharString>
        <CharString name="Ecaron">
          -39 0 114 180 114 164 114 62 135 hstem
          28 528 vstem
          237 883 rmoveto
          67 -135 rlineto
          98 hlineto
          104 135 rlineto
          -94 hlineto
          -50 -69 -35 69 rlineto
          139 -883 rmoveto
          16 114 rlineto
          -312 hlineto
          26 180 rlineto
          262 hlineto
          16 114 rlineto
          -262 hlineto
          23 164 rlineto
          305 hlineto
          16 114 rlineto
          -432 hlineto
          -96 -686 rlineto
          endchar
        </CharString>
        <CharString name="Ecircumflex">
          -39 0 114 180 114 164 114 62 135 hstem
          28 528 vstem
          323 883 rmoveto
          -104 -135 rlineto
          93 hlineto
          51 69 34 -69 rlineto
          90 hlineto
          -66 135 rlineto
          45 -883 rmoveto
          16 114 rlineto
          -312 hlineto
          26 180 rlineto
          262 hlineto
          16 114 rlineto
          -262 hlineto
          23 164 rlineto
          305 hlineto
          16 114 rlineto
          -432 hlineto
          -96 -686 rlineto
          endchar
        </CharString>
        <CharString name="Edieresis">
          -39 0 114 180 114 164 114 88 109 hstem
          28 528 vstem
          410 883 rmoveto
          -15 -109 rlineto
          100 hlineto
          15 109 rlineto
          -275 hmoveto
          -14 -109 rlineto
          99 hlineto
          15 109 rlineto
          131 -883 rmoveto
          16 114 rlineto
          -312 hlineto
          26 180 rlineto
          262 hlineto
          16 114 rlineto
          -262 hlineto
          23 164 rlineto
          305 hlineto
          16 114 rlineto
          -432 hlineto
          -96 -686 rlineto
          endchar
        </CharString>
        <CharString name="Edotaccent">
          -39 0 114 180 114 164 114 82 115 hstem
          28 528 vstem
          319 883 rmoveto
          -17 -115 rlineto
          107 hlineto
          17 115 rlineto
          40 -883 rmoveto
          16 114 rlineto
          -312 hlineto
          26 180 rlineto
          262 hlineto
          16 114 rlineto
          -262 hlineto
          23 164 rlineto
          305 hlineto
          16 114 rlineto
          -432 hlineto
          -96 -686 rlineto
          endchar
        </CharString>
        <CharString name="Egrave">
          -39 0 114 180 114 164 114 65 132 hstem
          28 528 vstem
          233 880 rmoveto
          90 -129 rlineto
          99 hlineto
          -67 132 rlineto
          -120 hlineto
          231 -883 rmoveto
          16 114 rlineto
          -312 hlineto
          26 180 rlineto
          262 hlineto
          16 114 rlineto
          -262 hlineto
          23 164 rlineto
          305 hlineto
          16 114 rlineto
          -432 hlineto
          -96 -686 rlineto
          endchar
        </CharString>
        <CharString name="Emacron">
          -39 0 114 180 114 164 114 73 87 hstem
          28 528 vstem
          239 846 rmoveto
          -13 -87 rlineto
          255 hlineto
          13 87 rlineto
          -28 -846 rmoveto
          16 114 rlineto
          -312 hlineto
          26 180 rlineto
          262 hlineto
          16 114 rlineto
          -262 hlineto
          23 164 rlineto
          305 hlineto
          16 114 rlineto
          -432 hlineto
          -96 -686 rlineto
          endchar
        </CharString>
        <CharString name="Eng">
          18 -182 101 102 -21 686 -20 hstem
          28 563 vstem
          320 -81 rmoveto
          -43 hlineto
          -12 -89 rlineto
          -6 19 37 -6 30 hhcurveto
          94 34 71 70 10 hvcurveto
          102 727 rlineto
          -113 hlineto
          -53 -382 rlineto
          -2 -11 -5 -46 0 vvcurveto
          -3 -3 rlineto
          0 -15 47 -7 17 vhcurveto
          -157 378 rlineto
          -112 hlineto
          -96 -686 rlineto
          112 hlineto
          53 382 rlineto
          3 18 3 39 0 vvcurveto
          4 3 rlineto
          0 16 -50 6 -14 vhcurveto
          154 -371 -6 -40 rlineto
          -31 -5 -17 -17 -31 hhcurveto
          endchar
        </CharString>
        <CharString name="Eogonek">
          -39 -190 69 -55 55 -34 -21 176 114 180 114 164 114 hstemhm
          323 102 hintmask 10011110
          323 -113 rmoveto
          -59 45 -18 42 vhcurveto
          hintmask 00111110
          22 22 5 9 24 hvcurveto
          hintmask 01011110
          8 55 rlineto
          -22 hlineto
          -28 -11 18 22 32 25 33 16 16 hvcurveto
          16 114 rlineto
          -312 hlineto
          26 180 rlineto
          262 hlineto
          16 114 rlineto
          -262 hlineto
          23 164 rlineto
          305 hlineto
          16 114 rlineto
          -432 hlineto
          -96 -686 rlineto
          353 hlineto
          hintmask 10011110
          -31 -26 -27 -34 -53 vvcurveto
          endchar
        </CharString>
        <CharString name="Eth">
          6 0 114 198 85 175 114 hstem
          447 129 vstem
          264 hmoveto
          227 85 240 186 173 -89 87 -152 hvcurveto
          -211 hlineto
          -41 -289 rlineto
          -49 hlineto
          -11 -85 rlineto
          48 hlineto
          -43 -312 rlineto
          289 572 rmoveto
          81 49 -52 -103 -120 -41 -183 -153 hvcurveto
          -82 hlineto
          27 198 rlineto
          124 hlineto
          12 85 rlineto
          -124 hlineto
          25 175 rlineto
          endchar
        </CharString>
        <CharString name="Euro">
          -130 -12 101 138 81 70 81 138 101 -10 -20 hstemhm
          6 488 hintmask 11110100
          17 308 rmoveto
          -11 -81 rlineto
          59 hlineto
          -148 14 93 -91 150 hhcurveto
          26 24 4 7 25 hvcurveto
          14 99 rlineto
          -6 -21 -21 -3 -23 hhcurveto
          -100 -44 52 86 -13 hvcurveto
          180 hlineto
          12 81 rlineto
          -195 hlineto
          11 2 12 2 12 vhcurveto
          1 12 2 11 2 12 rrcurveto
          195 hlineto
          12 81 rlineto
          -180 hlineto
          85 40 68 53 87 hhcurveto
          23 21 -3 -6 19 hvcurveto
          hintmask 11101100
          14 100 rlineto
          hintmask 11110100
          7 -22 -26 3 -25 hhcurveto
          -170 -97 -91 -148 -56 hvcurveto
          -60 hlineto
          -12 -81 rlineto
          49 hlineto
          -2 -12 -2 -11 -1 -12 rrcurveto
          -2 -12 -2 -12 -11 vvcurveto
          endchar
        </CharString>
        <CharString name="F">
          -85 21 -21 285 114 173 114 hstem
          28 495 vstem
          155 hmoveto
          40 285 rlineto
          232 hlineto
          16 114 rlineto
          -232 hlineto
          24 173 rlineto
          273 hlineto
          15 114 rlineto
          -398 hlineto
          -97 -686 rlineto
          endchar
        </CharString>
        <CharString name="G">
          52 -12 110 -77 -21 263 110 215 110 hstemhm
          45 129 309 130 hintmask 10111100
          45 250 rmoveto
          -178 82 -84 142 81 62 34 54 46 vhcurveto
          hintmask 01111100
          12 -76 rlineto
          82 hlineto
          52 373 rlineto
          -282 hlineto
          -16 -110 rlineto
          153 hlineto
          hintmask 10111100
          -99 -16 -51 -66 -95 hhcurveto
          -85 -38 58 99 128 37 205 161 68 43 -46 -86 hvcurveto
          -9 130 vlineto
          169 -95 82 -151 -237 -85 -247 -201 vhcurveto
          endchar
        </CharString>
        <CharString name="Gbreve">
          52 -12 110 -77 -21 263 110 215 110 78 107 hstemhm
          45 129 309 130 hintmask 10111110
          45 250 rmoveto
          -178 82 -84 142 81 62 34 54 46 vhcurveto
          hintmask 01111110
          12 -76 rlineto
          82 hlineto
          52 373 rlineto
          -282 hlineto
          -16 -110 rlineto
          153 hlineto
          hintmask 10111110
          -99 -16 -51 -66 -95 hhcurveto
          -85 -38 58 99 128 37 205 161 68 43 -46 -86 hvcurveto
          -9 130 vlineto
          169 -95 82 -151 -237 -85 -247 -201 vhcurveto
          341 526 rmoveto
          80 57 57 50 7 hvcurveto
          -74 hlineto
          -14 -4 -27 -19 -34 hhcurveto
          -33 -20 19 14 -1 hvcurveto
          -74 hlineto
          -1 -4 0 -3 -4 vvcurveto
          -47 45 -49 79 vhcurveto
          endchar
        </CharString>
        <CharString name="Gcircumflex">
          52 -12 110 -77 -21 263 110 215 110 50 135 hstemhm
          45 129 309 130 hintmask 10111110
          45 250 rmoveto
          -178 82 -84 142 81 62 34 54 46 vhcurveto
          hintmask 01111110
          12 -76 rlineto
          82 hlineto
          52 373 rlineto
          -282 hlineto
          -16 -110 rlineto
          153 hlineto
          hintmask 10111110
          -99 -16 -51 -66 -95 hhcurveto
          -85 -38 58 99 128 37 205 161 68 43 -46 -86 hvcurveto
          -9 130 vlineto
          169 -95 82 -151 -237 -85 -247 -201 vhcurveto
          302 633 rmoveto
          -104 -135 rlineto
          93 hlineto
          51 69 34 -69 rlineto
          90 hlineto
          -66 135 rlineto
          endchar
        </CharString>
        <CharString name="Gcommaaccent">
          52 -178 123 43 110 -77 -21 263 110 215 110 hstemhm
          45 129 309 130 hintmask 11011110
          45 250 rmoveto
          -178 82 -84 142 81 62 34 54 46 vhcurveto
          hintmask 10111110
          12 -76 rlineto
          82 hlineto
          52 373 rlineto
          -282 hlineto
          -16 -110 rlineto
          153 hlineto
          hintmask 11011110
          -99 -16 -51 -66 -95 hhcurveto
          -85 -38 58 99 128 37 205 161 68 43 -46 -86 hvcurveto
          -9 130 vlineto
          169 -95 82 -151 -237 -85 -247 -201 vhcurveto
          282 -305 rmoveto
          -124 hlineto
          -17 -123 rlineto
          45 hlineto
          -46 -85 rlineto
          65 hlineto
          61 96 rlineto
          endchar
        </CharString>
        <CharString name="Gdotaccent">
          52 -12 110 -77 -21 263 110 215 110 70 115 hstemhm
          45 129 309 130 hintmask 10111110
          45 250 rmoveto
          -178 82 -84 142 81 62 34 54 46 vhcurveto
          hintmask 01111110
          12 -76 rlineto
          82 hlineto
          52 373 rlineto
          -282 hlineto
          -16 -110 rlineto
          153 hlineto
          hintmask 10111110
          -99 -16 -51 -66 -95 hhcurveto
          -85 -38 58 99 128 37 205 161 68 43 -46 -86 hvcurveto
          -9 130 vlineto
          169 -95 82 -151 -237 -85 -247 -201 vhcurveto
          298 633 rmoveto
          -17 -115 rlineto
          107 hlineto
          17 115 rlineto
          endchar
        </CharString>
        <CharString name="H">
          6 21 -21 294 114 278 -20 hstem
          28 563 vstem
          368 hmoveto
          127 hlineto
          96 686 rlineto
          -127 hlineto
          -38 -278 rlineto
          -214 hlineto
          39 278 rlineto
          -127 hlineto
          -96 -686 rlineto
          127 hlineto
          41 294 rlineto
          214 hlineto
          endchar
        </CharString>
        <CharString name="Hbar">
          6 21 -21 286 114 90 87 -87 196 hstemhm
          28 597 hintmask 11011000
          124 686 rmoveto
          hintmask 11101000
          -15 -109 rlineto
          -49 hlineto
          hintmask 11011000
          -13 -87 rlineto
          49 hlineto
          -68 -490 rlineto
          127 hlineto
          40 286 rlineto
          214 hlineto
          -41 -286 rlineto
          127 hlineto
          68 490 rlineto
          48 hlineto
          hintmask 11101000
          14 87 rlineto
          -50 hlineto
          hintmask 11011000
          16 109 rlineto
          -127 hlineto
          hintmask 11101000
          -15 -109 rlineto
          -213 hlineto
          hintmask 11011000
          15 109 rlineto
          -40 -286 rmoveto
          12 90 rlineto
          214 hlineto
          -12 -90 rlineto
          endchar
        </CharString>
        <CharString name="Hcircumflex">
          6 21 -21 294 114 278 -20 82 135 hstem
          28 563 vstem
          338 883 rmoveto
          -104 -135 rlineto
          93 hlineto
          51 69 34 -69 rlineto
          90 hlineto
          -66 135 rlineto
          -68 -883 rmoveto
          127 hlineto
          96 686 rlineto
          -127 hlineto
          -38 -278 rlineto
          -214 hlineto
          39 278 rlineto
          -127 hlineto
          -96 -686 rlineto
          127 hlineto
          41 294 rlineto
          214 hlineto
          endchar
        </CharString>
        <CharString name="I">
          -358 21 -21 686 -20 hstem
          18 223 vstem
          114 686 rmoveto
          -96 -686 rlineto
          127 hlineto
          96 686 rlineto
          endchar
        </CharString>
        <CharString name="IJ">
          98 -12 110 -98 216 -195 -21 686 -20 hstemhm
          230 124 hintmask 10011000
          114 686 rmoveto
          hintmask 00111000
          -96 -686 rlineto
          127 hlineto
          96 686 rlineto
          hintmask 01011000
          -1 -470 rmoveto
          -9 -65 -1 -11 -11 vvcurveto
          hintmask 10011000
          -92 67 -49 119 110 69 61 114 16 vhcurveto
          74 523 rlineto
          -127 hlineto
          -72 -513 rlineto
          -48 -7 -22 -27 -41 hhcurveto
          -41 -21 21 39 hvcurveto
          hintmask 01011000
          4 0 6 7 48 vhcurveto
          endchar
        </CharString>
        <CharString name="Iacute">
          -358 21 -21 686 -20 85 132 hstem
          18 313 vstem
          114 686 rmoveto
          -96 -686 rlineto
          127 hlineto
          96 686 rlineto
          -31 197 rmoveto
          -86 -132 rlineto
          99 hlineto
          108 129 -1 3 rlineto
          endchar
        </CharString>
        <CharString name="Ibreve">
          -358 21 -21 686 -20 110 107 hstem
          18 321 vstem
          114 686 rmoveto
          -96 -686 rlineto
          127 hlineto
          96 686 rlineto
          -46 90 rmoveto
          80 57 57 50 7 hvcurveto
          -74 hlineto
          -14 -4 -27 -19 -34 hhcurveto
          -33 -20 19 14 -1 hvcurveto
          -74 hlineto
          -1 -4 0 -3 -4 vvcurveto
          -47 45 -49 79 vhcurveto
          endchar
        </CharString>
        <CharString name="Icircumflex">
          -358 21 -21 686 -20 82 135 hstem
          18 302 vstem
          114 686 rmoveto
          -96 -686 rlineto
          127 hlineto
          96 686 rlineto
          -85 197 rmoveto
          -104 -135 rlineto
          93 hlineto
          51 69 34 -69 rlineto
          90 hlineto
          -66 135 rlineto
          endchar
        </CharString>
        <CharString name="Idieresis">
          -358 21 -21 686 -20 108 109 hstem
          18 325 vstem
          114 686 rmoveto
          -96 -686 rlineto
          127 hlineto
          96 686 rlineto
          2 197 rmoveto
          -15 -109 rlineto
          100 hlineto
          15 109 rlineto
          -275 hmoveto
          -14 -109 rlineto
          99 hlineto
          15 109 rlineto
          endchar
        </CharString>
        <CharString name="Idotaccent">
          -358 21 -21 686 -20 102 115 hstem
          18 242 vstem
          114 686 rmoveto
          -96 -686 rlineto
          127 hlineto
          96 686 rlineto
          -88 197 rmoveto
          -17 -115 rlineto
          107 hlineto
          17 115 rlineto
          endchar
        </CharString>
        <CharString name="Igrave">
          -358 21 -21 686 -20 85 132 hstem
          18 238 vstem
          114 686 rmoveto
          -96 -686 rlineto
          127 hlineto
          96 686 rlineto
          -174 194 rmoveto
          90 -129 rlineto
          99 hlineto
          -67 132 rlineto
          -120 hlineto
          endchar
        </CharString>
        <CharString name="Imacron">
          -358 21 -21 686 -20 93 87 hstem
          18 309 vstem
          114 686 rmoveto
          -96 -686 rlineto
          127 hlineto
          96 686 rlineto
          -169 160 rmoveto
          -13 -87 rlineto
          255 hlineto
          13 87 rlineto
          endchar
        </CharString>
        <CharString name="Iogonek">
          -358 -190 69 -55 55 -34 -21 197 -21 686 -20 hstemhm
          2 102 hintmask 10011100
          2 -113 rmoveto
          -59 45 -18 42 vhcurveto
          hintmask 00111100
          22 22 5 9 24 hvcurveto
          hintmask 01011100
          8 55 rlineto
          -22 hlineto
          -28 -11 18 22 32 25 33 16 16 hvcurveto
          96 686 rlineto
          -127 hlineto
          -96 -686 rlineto
          42 hlineto
          hintmask 10011100
          -31 -26 -27 -34 -53 vvcurveto
          endchar
        </CharString>
        <CharString name="Itilde">
          -358 21 -21 686 -20 95 122 hstem
          18 357 vstem
          114 686 rmoveto
          -96 -686 rlineto
          127 hlineto
          96 686 rlineto
          -150 75 rmoveto
          27 8 15 10 21 hhcurveto
          44 34 -37 47 hhcurveto
          71 44 67 55 hvcurveto
          -65 hlineto
          -28 -8 -15 -9 -21 hhcurveto
          -44 -34 37 -48 hhcurveto
          -70 -43 -69 -53 hvcurveto
          endchar
        </CharString>
        <CharString name="J">
          -130 -12 110 588 -20 hstem
          2 124 vstem
          12 216 rmoveto
          -9 -65 -1 -11 -11 vvcurveto
          -92 67 -49 119 110 69 61 114 16 vhcurveto
          74 523 rlineto
          -127 hlineto
          -72 -513 rlineto
          -48 -7 -22 -27 -41 hhcurveto
          -41 -21 21 39 4 0 6 7 48 hvcurveto
          endchar
        </CharString>
        <CharString name="Jcircumflex">
          -130 -12 110 588 -20 82 135 hstem
          2 124 vstem
          381 883 rmoveto
          -104 -135 rlineto
          93 hlineto
          51 69 34 -69 rlineto
          90 hlineto
          -66 135 rlineto
          -467 -667 rmoveto
          -9 -65 -1 -11 -11 vvcurveto
          -92 67 -49 119 110 69 61 114 16 vhcurveto
          74 523 rlineto
          -127 hlineto
          -72 -513 rlineto
          -48 -7 -22 -27 -41 hhcurveto
          -41 -21 21 39 4 0 6 7 48 hvcurveto
          endchar
        </CharString>
        <CharString name="K">
          6 21 -21 686 -20 hstem
          28 614 vstem
          252 686 rmoveto
          -128 hlineto
          -96 -686 rlineto
          128 hlineto
          24 175 124 132 108 -307 rlineto
          140 hlineto
          -153 405 243 281 rlineto
          -150 hlineto
          -288 -338 rlineto
          endchar
        </CharString>
        <CharString name="Kcommaaccent">
          6 -178 123 76 -21 686 -20 hstem
          28 614 vstem
          317 -55 rmoveto
          -124 hlineto
          -17 -123 rlineto
          45 hlineto
          -46 -85 rlineto
          65 hlineto
          61 96 rlineto
          -49 853 rmoveto
          -128 hlineto
          -96 -686 rlineto
          128 hlineto
          24 175 124 132 108 -307 rlineto
          140 hlineto
          -153 405 243 281 rlineto
          -150 hlineto
          -288 -338 rlineto
          endchar
        </CharString>
        <CharString name="L">
          -85 0 120 566 -20 hstem
          28 431 vstem
          28 hmoveto
          414 hlineto
          17 120 rlineto
          -287 hlineto
          79 566 rlineto
          -127 hlineto
          endchar
        </CharString>
        <CharString name="Lacute">
          -85 0 120 566 -20 85 132 hstem
          28 431 vstem
          213 883 rmoveto
          -86 -132 rlineto
          99 hlineto
          108 129 -1 3 rlineto
          -305 -883 rmoveto
          414 hlineto
          17 120 rlineto
          -287 hlineto
          79 566 rlineto
          -127 hlineto
          endchar
        </CharString>
        <CharString name="Lcaron">
          -85 0 120 429 137 hstem
          28 461 vstem
          383 549 rmoveto
          -73 -156 rlineto
          72 hlineto
          90 168 17 125 rlineto
          -138 hlineto
          -19 -137 rlineto
          -304 -549 rmoveto
          414 hlineto
          17 120 rlineto
          -287 hlineto
          79 566 rlineto
          -127 hlineto
          endchar
        </CharString>
        <CharString name="Lcommaaccent">
          -85 -178 123 55 120 566 -20 hstem
          28 431 vstem
          317 -55 rmoveto
          -124 hlineto
          -17 -123 rlineto
          45 hlineto
          -46 -85 rlineto
          65 hlineto
          61 96 rlineto
          -273 167 rmoveto
          414 hlineto
          17 120 rlineto
          -287 hlineto
          79 566 rlineto
          -127 hlineto
          endchar
        </CharString>
        <CharString name="Ldot">
          -85 0 120 291 115 160 -20 hstem
          28 431 vstem
          348 526 rmoveto
          -16 -115 rlineto
          106 hlineto
          18 115 rlineto
          -428 -526 rmoveto
          414 hlineto
          17 120 rlineto
          -287 hlineto
          79 566 rlineto
          -127 hlineto
          endchar
        </CharString>
        <CharString name="Lslash">
          -85 0 120 566 -20 hstem
          -10 469 vstem
          124 686 rmoveto
          -47 -339 -74 -57 -13 -106 72 56 -34 -240 rlineto
          414 hlineto
          17 120 rlineto
          -287 hlineto
          32 231 129 101 14 108 -128 -101 32 227 rlineto
          endchar
        </CharString>
        <CharString name="M">
          97 0 153 -132 -21 547 139 hstemhm
          21 668 hintmask 01110000
          593 hmoveto
          96 686 rlineto
          -173 hlineto
          -135 -374 rlineto
          hintmask 10110000
          -15 -40 -30 -119 0 vvcurveto
          -4 hlineto
          0 -3 110 -4 45 vhcurveto
          -31 378 rlineto
          -177 hlineto
          -96 -686 rlineto
          108 hlineto
          62 437 rlineto
          4 27 6 83 0 vvcurveto
          4 hlineto
          43 -547 rlineto
          110 hlineto
          195 547 rlineto
          4 hlineto
          0 -16 -79 -4 -31 vhcurveto
          -61 -437 rlineto
          endchar
        </CharString>
        <CharString name="N">
          6 21 -21 686 -20 hstem
          28 563 vstem
          495 hmoveto
          96 686 rlineto
          -113 hlineto
          -53 -382 rlineto
          -2 -11 -5 -46 0 vvcurveto
          -3 -3 rlineto
          0 -15 47 -7 17 vhcurveto
          -157 378 rlineto
          -112 hlineto
          -96 -686 rlineto
          112 hlineto
          53 382 rlineto
          3 18 3 39 0 vvcurveto
          4 3 rlineto
          0 16 -50 6 -14 vhcurveto
          157 -378 rlineto
          endchar
        </CharString>
        <CharString name="NULL">
          -586 endchar
        </CharString>
        <CharString name="Nacute">
          6 21 -21 686 -20 85 132 hstem
          28 563 vstem
          392 883 rmoveto
          -86 -132 rlineto
          99 hlineto
          108 129 -1 3 rlineto
          -17 -883 rmoveto
          96 686 rlineto
          -113 hlineto
          -53 -382 rlineto
          -2 -11 -5 -46 0 vvcurveto
          -3 -3 rlineto
          0 -15 47 -7 17 vhcurveto
          -157 378 rlineto
          -112 hlineto
          -96 -686 rlineto
          112 hlineto
          53 382 rlineto
          3 18 3 39 0 vvcurveto
          4 3 rlineto
          0 16 -50 6 -14 vhcurveto
          157 -378 rlineto
          endchar
        </CharString>
        <CharString name="Ncaron">
          6 21 -21 686 -20 82 135 hstem
          28 563 vstem
          251 883 rmoveto
          67 -135 rlineto
          98 hlineto
          104 135 rlineto
          -94 hlineto
          -50 -69 -35 69 rlineto
          154 -883 rmoveto
          96 686 rlineto
          -113 hlineto
          -53 -382 rlineto
          -2 -11 -5 -46 0 vvcurveto
          -3 -3 rlineto
          0 -15 47 -7 17 vhcurveto
          -157 378 rlineto
          -112 hlineto
          -96 -686 rlineto
          112 hlineto
          53 382 rlineto
          3 18 3 39 0 vvcurveto
          4 3 rlineto
          0 16 -50 6 -14 vhcurveto
          157 -378 rlineto
          endchar
        </CharString>
        <CharString name="Ncommaaccent">
          6 -178 123 76 -21 686 -20 hstem
          28 563 vstem
          317 -55 rmoveto
          -124 hlineto
          -17 -123 rlineto
          45 hlineto
          -46 -85 rlineto
          65 hlineto
          61 96 rlineto
          194 167 rmoveto
          96 686 rlineto
          -113 hlineto
          -53 -382 rlineto
          -2 -11 -5 -46 0 vvcurveto
          -3 -3 rlineto
          0 -15 47 -7 17 vhcurveto
          -157 378 rlineto
          -112 hlineto
          -96 -686 rlineto
          112 hlineto
          53 382 rlineto
          3 18 3 39 0 vvcurveto
          4 3 rlineto
          0 16 -50 6 -14 vhcurveto
          157 -378 rlineto
          endchar
        </CharString>
        <CharString name="Ntilde">
          6 21 -21 686 -20 95 122 hstem
          28 563 vstem
          272 761 rmoveto
          27 8 15 10 21 hhcurveto
          44 34 -37 47 hhcurveto
          71 44 67 55 hvcurveto
          -65 hlineto
          -28 -8 -15 -9 -21 hhcurveto
          -44 -34 37 -48 hhcurveto
          -70 -43 -69 -53 hvcurveto
          287 -761 rmoveto
          96 686 rlineto
          -113 hlineto
          -53 -382 rlineto
          -2 -11 -5 -46 0 vvcurveto
          -3 -3 rlineto
          0 -15 47 -7 17 vhcurveto
          -157 378 rlineto
          -112 hlineto
          -96 -686 rlineto
          112 hlineto
          53 382 rlineto
          3 18 3 39 0 vvcurveto
          4 3 rlineto
          0 16 -50 6 -14 vhcurveto
          157 -378 rlineto
          endchar
        </CharString>
        <CharString name="O">
          52 -12 110 490 110 hstem
          45 129 319 130 vstem
          45 250 rmoveto
          -178 94 -84 160 237 87 246 201 179 -95 84 -160 -238 -85 -247 -201 vhcurveto
          129 5 rmoveto
          128 37 205 162 81 39 -58 -100 -127 -38 -205 -161 -82 -38 58 99 vhcurveto
          endchar
        </CharString>
        <CharString name="OE">
          234 -12 110 -98 98 -98 114 180 114 164 114 -98 110 hstemhm
          40 129 hintmask 10010110
          40 232 rmoveto
          -166 69 -78 116 60 54 23 50 45 vhcurveto
          hintmask 00111010
          -9 -61 rlineto
          382 hlineto
          15 114 rlineto
          -255 hlineto
          26 180 rlineto
          205 hlineto
          16 114 rlineto
          -205 hlineto
          23 164 rlineto
          248 hlineto
          16 114 rlineto
          -375 hlineto
          hintmask 00110110
          -9 -62 rlineto
          50 -34 -53 24 -67 hhcurveto
          hintmask 10010110
          -210 -58 -301 -165 hvcurveto
          143 136 rmoveto
          152 21 46 68 77 hhcurveto
          68 37 -37 -98 -24 -3 -29 -11 -82 hvcurveto
          hintmask 01011010
          -157 -22 -49 -63 -81 hhcurveto
          -64 -33 40 95 hvcurveto
          hintmask 10010110
          24 2 29 12 82 vhcurveto
          endchar
        </CharString>
        <CharString name="Oacute">
          52 -12 110 490 110 53 132 hstem
          45 129 319 130 vstem
          45 250 rmoveto
          -178 94 -84 160 237 87 246 201 179 -95 84 -160 -238 -85 -247 -201 vhcurveto
          129 5 rmoveto
          128 37 205 162 81 39 -58 -100 -127 -38 -205 -161 -82 -38 58 99 vhcurveto
          242 628 rmoveto
          -86 -132 rlineto
          99 hlineto
          108 129 -1 3 rlineto
          endchar
        </CharString>
        <CharString name="Obreve">
          52 -12 110 490 110 78 107 hstem
          45 129 319 130 vstem
          45 250 rmoveto
          -178 94 -84 160 237 87 246 201 179 -95 84 -160 -238 -85 -247 -201 vhcurveto
          129 5 rmoveto
          128 37 205 162 81 39 -58 -100 -127 -38 -205 -161 -82 -38 58 99 vhcurveto
          227 521 rmoveto
          80 57 57 50 7 hvcurveto
          -74 hlineto
          -14 -4 -27 -19 -34 hhcurveto
          -33 -20 19 14 -1 hvcurveto
          -74 hlineto
          -1 -4 0 -3 -4 vvcurveto
          -47 45 -49 79 vhcurveto
          endchar
        </CharString>
        <CharString name="Ocircumflex">
          52 -12 110 490 110 50 135 hstem
          45 129 319 130 vstem
          45 250 rmoveto
          -178 94 -84 160 237 87 246 201 179 -95 84 -160 -238 -85 -247 -201 vhcurveto
          129 5 rmoveto
          128 37 205 162 81 39 -58 -100 -127 -38 -205 -161 -82 -38 58 99 vhcurveto
          188 628 rmoveto
          -104 -135 rlineto
          93 hlineto
          51 69 34 -69 rlineto
          90 hlineto
          -66 135 rlineto
          endchar
        </CharString>
        <CharString name="Odieresis">
          52 -12 110 490 110 76 109 hstem
          45 129 319 130 vstem
          45 250 rmoveto
          -178 94 -84 160 237 87 246 201 179 -95 84 -160 -238 -85 -247 -201 vhcurveto
          129 5 rmoveto
          128 37 205 162 81 39 -58 -100 -127 -38 -205 -161 -82 -38 58 99 vhcurveto
          275 628 rmoveto
          -15 -109 rlineto
          100 hlineto
          15 109 rlineto
          -275 hmoveto
          -14 -109 rlineto
          99 hlineto
          15 109 rlineto
          endchar
        </CharString>
        <CharString name="Ograve">
          52 -12 110 490 110 53 132 hstem
          45 129 319 130 vstem
          45 250 rmoveto
          -178 94 -84 160 237 87 246 201 179 -95 84 -160 -238 -85 -247 -201 vhcurveto
          129 5 rmoveto
          128 37 205 162 81 39 -58 -100 -127 -38 -205 -161 -82 -38 58 99 vhcurveto
          99 625 rmoveto
          90 -129 rlineto
          99 hlineto
          -67 132 rlineto
          -120 hlineto
          endchar
        </CharString>
        <CharString name="Ohungarumlaut">
          52 -12 110 490 110 53 132 hstem
          45 129 319 130 vstem
          45 250 rmoveto
          -178 94 -84 160 237 87 246 201 179 -95 84 -160 -238 -85 -247 -201 vhcurveto
          129 5 rmoveto
          128 37 205 162 81 39 -58 -100 -127 -38 -205 -161 -82 -38 58 99 vhcurveto
          301 628 rmoveto
          -62 -132 rlineto
          79 hlineto
          84 129 -1 3 rlineto
          -240 hmoveto
          -62 -132 rlineto
          79 hlineto
          84 129 -1 3 rlineto
          endchar
        </CharString>
        <CharString name="Omacron">
          52 -12 110 490 110 61 87 hstem
          45 129 319 130 vstem
          45 250 rmoveto
          -178 94 -84 160 237 87 246 201 179 -95 84 -160 -238 -85 -247 -201 vhcurveto
          129 5 rmoveto
          128 37 205 162 81 39 -58 -100 -127 -38 -205 -161 -82 -38 58 99 vhcurveto
          104 591 rmoveto
          -13 -87 rlineto
          255 hlineto
          13 87 rlineto
          endchar
        </CharString>
        <CharString name="Omega">
          182 0 114 474 110 hstem
          122 124 322 130 vstem
          94 114 rmoveto
          -15 -114 rlineto
          244 hlineto
          12 82 rlineto
          -60 17 -29 54 83 vvcurveto
          18 2 20 12 94 vhcurveto
          137 17 66 83 100 hhcurveto
          84 41 -58 -99 -19 -2 -21 -13 -95 hvcurveto
          -16 -117 -47 -78 -80 -20 -12 -81 rcurveline
          245 hlineto
          15 114 rlineto
          -24 hlineto
          -16 -31 -10 -4 -29 hvcurveto
          85 65 55 111 160 vvcurveto
          178 -95 84 -160 -220 -101 -217 -199 -81 27 -60 42 -41 vhcurveto
          4 -29 -28 10 -15 hhcurveto
          endchar
        </CharString>
        <CharString name="Oslash">
          52 -12 110 490 110 -70 95 hstemhm
          45 129 319 130 hintmask 11011000
          45 -37 rmoveto
          84 hlineto
          34 53 rlineto
          -18 38 45 -10 53 hhcurveto
          237 87 246 201 hvcurveto
          hintmask 10111000
          85 -22 64 -40 44 vhcurveto
          62 95 rlineto
          -84 hlineto
          hintmask 11011000
          -35 -53 rlineto
          19 -37 -46 9 -53 hhcurveto
          -238 -85 -247 -201 -85 21 -64 40 -43 hvcurveto
          78 119 rmoveto
          -7 22 -3 26 30 vvcurveto
          128 37 205 162 26 23 -6 -12 17 vhcurveto
          43 -63 rmoveto
          7 -22 4 -26 -29 vvcurveto
          -127 -38 -205 -161 -27 -22 6 11 -17 vhcurveto
          endchar
        </CharString>
        <CharString name="Oslashacute">
          52 -12 110 490 110 -70 95 28 132 hstemhm
          45 129 319 130 hintmask 11011100
          45 -37 rmoveto
          84 hlineto
          34 53 rlineto
          -18 38 45 -10 53 hhcurveto
          237 87 246 201 hvcurveto
          hintmask 10111100
          85 -22 64 -40 44 vhcurveto
          62 95 rlineto
          -84 hlineto
          hintmask 11011100
          -35 -53 rlineto
          19 -37 -46 9 -53 hhcurveto
          -238 -85 -247 -201 -85 21 -64 40 -43 hvcurveto
          78 119 rmoveto
          -7 22 -3 26 30 vvcurveto
          128 37 205 162 26 23 -6 -12 17 vhcurveto
          43 -63 rmoveto
          7 -22 4 -26 -29 vvcurveto
          -127 -38 -205 -161 -27 -22 6 11 -17 vhcurveto
          188 768 rmoveto
          -86 -132 rlineto
          99 hlineto
          108 129 -1 3 rlineto
          endchar
        </CharString>
        <CharString name="Otilde">
          52 -12 110 490 110 63 122 hstem
          45 129 319 130 vstem
          45 250 rmoveto
          -178 94 -84 160 237 87 246 201 179 -95 84 -160 -238 -85 -247 -201 vhcurveto
          129 5 rmoveto
          128 37 205 162 81 39 -58 -100 -127 -38 -205 -161 -82 -38 58 99 vhcurveto
          122 506 rmoveto
          27 8 15 10 21 hhcurveto
          44 34 -37 47 hhcurveto
          71 44 67 55 hvcurveto
          -65 hlineto
          -28 -8 -15 -9 -21 hhcurveto
          -44 -34 37 -48 hhcurveto
          -70 -43 -69 -53 hvcurveto
          endchar
        </CharString>
        <CharString name="P">
          -39 21 -21 266 113 193 114 hstem
          421 131 vstem
          323 266 rmoveto
          129 100 97 146 103 -62 74 -129 hvcurveto
          -237 hlineto
          -96 -686 rlineto
          126 hlineto
          38 266 rlineto
          146 306 rmoveto
          53 30 -33 -50 -69 -44 -41 -61 hvcurveto
          -108 hlineto
          27 193 rlineto
          endchar
        </CharString>
        <CharString name="Q">
          52 -124 222 490 110 hstem
          45 129 319 130 vstem
          296 -12 rmoveto
          84 -112 rlineto
          155 hlineto
          -112 138 rlineto
          144 69 56 191 161 vvcurveto
          179 -95 84 -160 -238 -85 -247 -201 -177 93 -84 158 -1 vhcurveto
          77 600 rmoveto
          81 39 -58 -100 -127 -38 -205 -161 -82 -38 58 99 128 37 205 162 hvcurveto
          endchar
        </CharString>
        <CharString name="R">
          6 21 -21 286 113 173 114 hstem
          453 137 vstem
          445 311 rmoveto
          89 30 56 77 99 vvcurveto
          100 -64 69 -133 vhcurveto
          -269 hlineto
          -96 -686 rlineto
          127 hlineto
          39 286 rlineto
          126 hlineto
          80 -286 rlineto
          137 hlineto
          -163 572 rmoveto
          55 24 -28 -45 -62 -41 -38 -67 hvcurveto
          -135 hlineto
          25 173 rlineto
          endchar
        </CharString>
        <CharString name="Racute">
          6 21 -21 286 113 173 114 65 132 hstem
          453 137 vstem
          392 883 rmoveto
          -86 -132 rlineto
          99 hlineto
          108 129 -1 3 rlineto
          -67 -572 rmoveto
          89 30 56 77 99 vvcurveto
          100 -64 69 -133 vhcurveto
          -269 hlineto
          -96 -686 rlineto
          127 hlineto
          39 286 rlineto
          126 hlineto
          80 -286 rlineto
          137 hlineto
          -163 572 rmoveto
          55 24 -28 -45 -62 -41 -38 -67 hvcurveto
          -135 hlineto
          25 173 rlineto
          endchar
        </CharString>
        <CharString name="Rcaron">
          6 21 -21 286 113 173 114 62 135 hstem
          453 137 vstem
          251 883 rmoveto
          67 -135 rlineto
          98 hlineto
          104 135 rlineto
          -94 hlineto
          -50 -69 -35 69 rlineto
          104 -572 rmoveto
          89 30 56 77 99 vvcurveto
          100 -64 69 -133 vhcurveto
          -269 hlineto
          -96 -686 rlineto
          127 hlineto
          39 286 rlineto
          126 hlineto
          80 -286 rlineto
          137 hlineto
          -163 572 rmoveto
          55 24 -28 -45 -62 -41 -38 -67 hvcurveto
          -135 hlineto
          25 173 rlineto
          endchar
        </CharString>
        <CharString name="Rcommaaccent">
          6 -178 123 76 -21 286 113 173 114 hstem
          453 137 vstem
          317 -55 rmoveto
          -124 hlineto
          -17 -123 rlineto
          45 hlineto
          -46 -85 rlineto
          65 hlineto
          61 96 rlineto
          144 478 rmoveto
          89 30 56 77 99 vvcurveto
          100 -64 69 -133 vhcurveto
          -269 hlineto
          -96 -686 rlineto
          127 hlineto
          39 286 rlineto
          126 hlineto
          80 -286 rlineto
          137 hlineto
          -163 572 rmoveto
          55 24 -28 -45 -62 -41 -38 -67 hvcurveto
          -135 hlineto
          25 173 rlineto
          endchar
        </CharString>
        <CharString name="S">
          -39 -12 110 489 111 hstemhm
          31 132 -77 134 156 133 -106 129 hintmask 11101000
          31 172 rmoveto
          -135 127 -49 101 141 109 81 144 vhcurveto
          hintmask 11011000
          222 -289 -43 124 vvcurveto
          65 69 6 22 vhcurveto
          hintmask 11010100
          65 27 -45 -58 hvcurveto
          129 hlineto
          115 -41 99 -173 -171 -61 -107 -100 vhcurveto
          hintmask 11011000
          -201 290 38 -141 vvcurveto
          -46 -38 -43 -71 vhcurveto
          hintmask 11101000
          -89 -15 52 35 25 3 15 2 8 hvcurveto
          -132 hlineto
          -2 -10 -3 -28 -23 vvcurveto
          endchar
        </CharString>
        <CharString name="Sacute">
          -39 -12 110 489 111 53 132 hstemhm
          31 132 -77 134 156 133 -106 129 hintmask 11110100
          31 172 rmoveto
          -135 127 -49 101 141 109 81 144 vhcurveto
          hintmask 11101100
          222 -289 -43 124 vvcurveto
          65 69 6 22 vhcurveto
          hintmask 11101010
          65 27 -45 -58 hvcurveto
          129 hlineto
          115 -41 99 -173 -171 -61 -107 -100 vhcurveto
          hintmask 11101100
          -201 290 38 -141 vvcurveto
          -46 -38 -43 -71 vhcurveto
          hintmask 11110100
          -89 -15 52 35 25 3 15 2 8 hvcurveto
          -132 hlineto
          -2 -10 -3 -28 -23 vvcurveto
          hintmask 11101100
          341 711 rmoveto
          -86 -132 rlineto
          99 hlineto
          108 129 -1 3 rlineto
          endchar
        </CharString>
        <CharString name="Scaron">
          -39 -12 110 489 111 50 135 hstemhm
          31 132 -77 134 156 133 -106 129 hintmask 11110100
          31 172 rmoveto
          -135 127 -49 101 141 109 81 144 vhcurveto
          hintmask 11101100
          222 -289 -43 124 vvcurveto
          65 69 6 22 vhcurveto
          hintmask 11101010
          65 27 -45 -58 hvcurveto
          129 hlineto
          115 -41 99 -173 -171 -61 -107 -100 vhcurveto
          hintmask 11101100
          -201 290 38 -141 vvcurveto
          -46 -38 -43 -71 vhcurveto
          hintmask 11110100
          -89 -15 52 35 25 3 15 2 8 hvcurveto
          -132 hlineto
          -2 -10 -3 -28 -23 vvcurveto
          hintmask 11101100
          201 711 rmoveto
          67 -135 rlineto
          98 hlineto
          104 135 rlineto
          -94 hlineto
          -50 -69 -35 69 rlineto
          endchar
        </CharString>
        <CharString name="Scedilla">
          -39 -182 57 -28 -21 97 175 -89 -21 26 -21 594 111 hstemhm
          31 132 -77 134 30 85 41 133 -106 129 hintmask 1000111001000000
          31 172 rmoveto
          -111 86 -53 87 -15 vhcurveto
          hintmask 1010010111000000
          -18 -70 rlineto
          32 hlineto
          22 10 -6 -12 -24 -17 -6 -24 hvcurveto
          -71 hlineto
          hintmask 0100110101000000
          -7 -49 rlineto
          hintmask 1010010111000000
          -5 23 33 -3 27 hhcurveto
          56 65 16 76 38 -32 16 -37 3 hvcurveto
          hintmask 1001010111000000
          5 21 rlineto
          135 5 103 80 140 vvcurveto
          hintmask 1000110101000000
          222 -289 -43 124 vvcurveto
          65 69 6 22 vhcurveto
          hintmask 1000110100100000
          65 27 -45 -58 hvcurveto
          129 hlineto
          115 -41 99 -173 -171 -61 -107 -100 vhcurveto
          hintmask 1010010101000000
          -201 290 38 -141 vvcurveto
          -46 -38 -43 -71 vhcurveto
          hintmask 1010011001000000
          -89 -15 52 35 25 3 15 2 8 hvcurveto
          -132 hlineto
          hintmask 1000111001000000
          -2 -10 -3 -28 -23 vvcurveto
          endchar
        </CharString>
        <CharString name="Scircumflex">
          -39 -12 110 489 111 50 135 hstemhm
          31 132 -77 134 156 133 -106 129 hintmask 11110100
          31 172 rmoveto
          -135 127 -49 101 141 109 81 144 vhcurveto
          hintmask 11101100
          222 -289 -43 124 vvcurveto
          65 69 6 22 vhcurveto
          hintmask 11101010
          65 27 -45 -58 hvcurveto
          129 hlineto
          115 -41 99 -173 -171 -61 -107 -100 vhcurveto
          hintmask 11101100
          -201 290 38 -141 vvcurveto
          -46 -38 -43 -71 vhcurveto
          hintmask 11110100
          -89 -15 52 35 25 3 15 2 8 hvcurveto
          -132 hlineto
          -2 -10 -3 -28 -23 vvcurveto
          hintmask 11101100
          287 711 rmoveto
          -104 -135 rlineto
          93 hlineto
          51 69 34 -69 rlineto
          90 hlineto
          -66 135 rlineto
          endchar
        </CharString>
        <CharString name="T">
          -85 21 -21 572 114 hstem
          64 480 vstem
          233 572 rmoveto
          -80 -572 rlineto
          126 hlineto
          80 572 rlineto
          169 hlineto
          16 114 rlineto
          -464 hlineto
          -16 -114 rlineto
          endchar
        </CharString>
        <CharString name="Tbar">
          -85 21 -21 306 87 179 114 hstem
          64 480 vstem
          233 572 rmoveto
          -25 -179 rlineto
          -109 hlineto
          -13 -87 rlineto
          109 hlineto
          -42 -306 rlineto
          126 hlineto
          42 306 rlineto
          118 hlineto
          13 87 rlineto
          -119 hlineto
          26 179 rlineto
          169 hlineto
          16 114 rlineto
          -464 hlineto
          -16 -114 rlineto
          endchar
        </CharString>
        <CharString name="Tcaron">
          -85 21 -21 572 114 62 135 hstem
          64 480 vstem
          233 572 rmoveto
          -80 -572 rlineto
          126 hlineto
          80 572 rlineto
          169 hlineto
          16 114 rlineto
          -464 hlineto
          -16 -114 rlineto
          139 311 rmoveto
          67 -135 rlineto
          98 hlineto
          104 135 rlineto
          -94 hlineto
          -50 -69 -35 69 rlineto
          endchar
        </CharString>
        <CharString name="Tcommaaccent">
          -85 -178 123 76 -21 572 114 hstem
          64 480 vstem
          233 572 rmoveto
          -80 -572 rlineto
          126 hlineto
          80 572 rlineto
          169 hlineto
          16 114 rlineto
          -464 hlineto
          -16 -114 rlineto
          205 -627 rmoveto
          -124 hlineto
          -17 -123 rlineto
          45 hlineto
          -46 -85 rlineto
          65 hlineto
          61 96 rlineto
          endchar
        </CharString>
        <CharString name="Thorn">
          -39 21 -21 142 113 193 114 124 -20 hstem
          404 131 vstem
          28 hmoveto
          127 hlineto
          20 142 rlineto
          131 hlineto
          129 100 97 146 103 -62 74 -129 hvcurveto
          -110 hlineto
          17 124 rlineto
          -127 hlineto
          197 -238 rmoveto
          53 30 -33 -50 -69 -44 -41 -61 hvcurveto
          -108 hlineto
          27 193 rlineto
          endchar
        </CharString>
        <CharString name="U">
          6 -12 110 588 -20 hstem
          59 128 vstem
          127 686 rmoveto
          0 -68 -463 -47 -123 81 -65 142 135 89 81 154 22 hvcurveto
          65 463 rlineto
          -127 hlineto
          -64 -459 rlineto
          -84 -12 -42 -45 -66 hhcurveto
          -61 -34 35 66 28 67 459 0 hvcurveto
          endchar
        </CharString>
        <CharString name="Uacute">
          6 -12 110 588 -20 85 132 hstem
          59 128 vstem
          392 883 rmoveto
          -86 -132 rlineto
          99 hlineto
          108 129 -1 3 rlineto
          -385 -197 rmoveto
          0 -68 -463 -47 -123 81 -65 142 135 89 81 154 22 hvcurveto
          65 463 rlineto
          -127 hlineto
          -64 -459 rlineto
          -84 -12 -42 -45 -66 hhcurveto
          -61 -34 35 66 28 67 459 0 hvcurveto
          endchar
        </CharString>
        <CharString name="Ubreve">
          6 -12 110 588 -20 110 107 hstem
          59 128 vstem
          377 776 rmoveto
          80 57 57 50 7 hvcurveto
          -74 hlineto
          -14 -4 -27 -19 -34 hhcurveto
          -33 -20 19 14 -1 hvcurveto
          -74 hlineto
          -1 -4 0 -3 -4 vvcurveto
          -47 45 -49 79 vhcurveto
          -250 -90 rmoveto
          0 -68 -463 -47 -123 81 -65 142 135 89 81 154 22 hvcurveto
          65 463 rlineto
          -127 hlineto
          -64 -459 rlineto
          -84 -12 -42 -45 -66 hhcurveto
          -61 -34 35 66 28 67 459 0 hvcurveto
          endchar
        </CharString>
        <CharString name="Ucircumflex">
          6 -12 110 588 -20 82 135 hstem
          59 128 vstem
          338 883 rmoveto
          -104 -135 rlineto
          93 hlineto
          51 69 34 -69 rlineto
          90 hlineto
          -66 135 rlineto
          -309 -197 rmoveto
          0 -68 -463 -47 -123 81 -65 142 135 89 81 154 22 hvcurveto
          65 463 rlineto
          -127 hlineto
          -64 -459 rlineto
          -84 -12 -42 -45 -66 hhcurveto
          -61 -34 35 66 28 67 459 0 hvcurveto
          endchar
        </CharString>
        <CharString name="Udieresis">
          6 -12 110 588 -20 108 109 hstem
          59 128 vstem
          425 883 rmoveto
          -15 -109 rlineto
          100 hlineto
          15 109 rlineto
          -275 hmoveto
          -14 -109 rlineto
          99 hlineto
          15 109 rlineto
          -223 -197 rmoveto
          0 -68 -463 -47 -123 81 -65 142 135 89 81 154 22 hvcurveto
          65 463 rlineto
          -127 hlineto
          -64 -459 rlineto
          -84 -12 -42 -45 -66 hhcurveto
          -61 -34 35 66 28 67 459 0 hvcurveto
          endchar
        </CharString>
        <CharString name="Ugrave">
          6 -12 110 588 -20 85 132 hstem
          59 128 vstem
          248 880 rmoveto
          90 -129 rlineto
          99 hlineto
          -67 132 rlineto
          -120 hlineto
          -123 -197 rmoveto
          0 -68 -463 -47 -123 81 -65 142 135 89 81 154 22 hvcurveto
          65 463 rlineto
          -127 hlineto
          -64 -459 rlineto
          -84 -12 -42 -45 -66 hhcurveto
          -61 -34 35 66 28 67 459 0 hvcurveto
          endchar
        </CharString>
        <CharString name="Uhungarumlaut">
          6 -12 110 588 -20 85 132 hstem
          59 128 vstem
          450 883 rmoveto
          -62 -132 rlineto
          79 hlineto
          84 129 -1 3 rlineto
          -240 hmoveto
          -62 -132 rlineto
          79 hlineto
          84 129 -1 3 rlineto
          -283 -197 rmoveto
          0 -68 -463 -47 -123 81 -65 142 135 89 81 154 22 hvcurveto
          65 463 rlineto
          -127 hlineto
          -64 -459 rlineto
          -84 -12 -42 -45 -66 hhcurveto
          -61 -34 35 66 28 67 459 0 hvcurveto
          endchar
        </CharString>
        <CharString name="Umacron">
          6 -12 110 588 -20 93 87 hstem
          59 128 vstem
          253 846 rmoveto
          -13 -87 rlineto
          255 hlineto
          13 87 rlineto
          -381 -160 rmoveto
          0 -68 -463 -47 -123 81 -65 142 135 89 81 154 22 hvcurveto
          65 463 rlineto
          -127 hlineto
          -64 -459 rlineto
          -84 -12 -42 -45 -66 hhcurveto
          -61 -34 35 66 28 67 459 0 hvcurveto
          endchar
        </CharString>
        <CharString name="Uogonek">
          6 -185 69 -55 55 -34 -21 159 110 588 -20 hstemhm
          59 128 50 102 hintmask 10011110
          237 -108 rmoveto
          -59 45 -18 42 vhcurveto
          hintmask 00111110
          22 22 5 9 24 hvcurveto
          hintmask 01011110
          8 55 rlineto
          -22 hlineto
          -28 -11 18 22 32 25 33 16 16 hvcurveto
          81 31 51 74 16 113 65 463 rcurveline
          -127 hlineto
          -64 -459 rlineto
          -84 -12 -42 -45 -66 hhcurveto
          -61 -34 35 66 28 67 459 0 hvcurveto
          -127 hlineto
          0 -68 -463 -47 -123 79 -65 139 hvcurveto
          hintmask 10011110
          -22 -24 -18 -29 -43 vvcurveto
          endchar
        </CharString>
        <CharString name="Uring">
          6 -12 110 588 -20 55 50 92 50 hstem
          59 128 95 50 92 50 vstem
          378 721 rmoveto
          53 43 43 53 52 -42 44 -54 -53 -43 -43 -53 -54 44 -42 52 hvcurveto
          50 vmoveto
          -26 -20 20 26 26 20 20 26 25 21 -20 -26 -26 -21 -20 -25 hvcurveto
          -251 -85 rmoveto
          0 -68 -463 -47 -123 81 -65 142 135 89 81 154 22 hvcurveto
          65 463 rlineto
          -127 hlineto
          -64 -459 rlineto
          -84 -12 -42 -45 -66 hhcurveto
          -61 -34 35 66 28 67 459 0 hvcurveto
          endchar
        </CharString>
        <CharString name="Utilde">
          6 -12 110 588 -20 95 122 hstem
          59 128 vstem
          272 761 rmoveto
          27 8 15 10 21 hhcurveto
          44 34 -37 47 hhcurveto
          71 44 67 55 hvcurveto
          -65 hlineto
          -28 -8 -15 -9 -21 hhcurveto
          -44 -34 37 -48 hhcurveto
          -70 -43 -69 -53 hvcurveto
          -81 -75 rmoveto
          0 -68 -463 -47 -123 81 -65 142 135 89 81 154 22 hvcurveto
          65 463 rlineto
          -127 hlineto
          -64 -459 rlineto
          -84 -12 -42 -45 -66 hhcurveto
          -61 -34 35 66 28 67 459 0 hvcurveto
          endchar
        </CharString>
        <CharString name="V">
          -39 21 -21 686 -20 hstem
          67 541 vstem
          67 686 rmoveto
          111 -686 rlineto
          127 hlineto
          303 686 rlineto
          -128 hlineto
          -208 -488 rlineto
          -4 hlineto
          -71 488 rlineto
          endchar
        </CharString>
        <CharString name="W">
          188 0 168 366 152 0 -20 hstemhm
          430 110 hintmask 10110000
          67 686 rmoveto
          51 -686 rlineto
          135 hlineto
          hintmask 11010000
          146 437 rlineto
          10 29 16 68 0 vvcurveto
          5 hlineto
          0 0 -1 -27 0 -29 0 -14 0 -15 1 -12 50 flex
          31 -437 rlineto
          135 hlineto
          236 686 rlineto
          -112 hlineto
          -139 -422 rlineto
          -11 -34 -15 -62 0 vvcurveto
          -4 hlineto
          -22 518 rlineto
          -145 hlineto
          -140 -422 rlineto
          -10 -29 -16 -67 0 vvcurveto
          -4 hlineto
          -21 518 rlineto
          endchar
        </CharString>
        <CharString name="Wacute">
          188 0 168 366 152 0 -20 85 132 hstemhm
          430 110 hintmask 10111000
          67 686 rmoveto
          51 -686 rlineto
          135 hlineto
          hintmask 11011000
          146 437 rlineto
          10 29 16 68 0 vvcurveto
          5 hlineto
          0 0 -1 -27 0 -29 0 -14 0 -15 1 -12 50 flex
          31 -437 rlineto
          135 hlineto
          236 686 rlineto
          -112 hlineto
          -139 -422 rlineto
          -11 -34 -15 -62 0 vvcurveto
          -4 hlineto
          -22 518 rlineto
          -145 hlineto
          -140 -422 rlineto
          -10 -29 -16 -67 0 vvcurveto
          -4 hlineto
          -21 518 rlineto
          292 197 rmoveto
          -86 -132 rlineto
          99 hlineto
          108 129 -1 3 rlineto
          endchar
        </CharString>
        <CharString name="Wcircumflex">
          188 0 168 366 152 0 -20 82 135 hstemhm
          430 110 hintmask 10111000
          67 686 rmoveto
          51 -686 rlineto
          135 hlineto
          hintmask 11011000
          146 437 rlineto
          10 29 16 68 0 vvcurveto
          5 hlineto
          0 0 -1 -27 0 -29 0 -14 0 -15 1 -12 50 flex
          31 -437 rlineto
          135 hlineto
          236 686 rlineto
          -112 hlineto
          -139 -422 rlineto
          -11 -34 -15 -62 0 vvcurveto
          -4 hlineto
          -22 518 rlineto
          -145 hlineto
          -140 -422 rlineto
          -10 -29 -16 -67 0 vvcurveto
          -4 hlineto
          -21 518 rlineto
          238 197 rmoveto
          -104 -135 rlineto
          93 hlineto
          51 69 34 -69 rlineto
          90 hlineto
          -66 135 rlineto
          endchar
        </CharString>
        <CharString name="Wdieresis">
          188 0 168 366 152 0 -20 108 109 hstemhm
          430 110 hintmask 10111000
          67 686 rmoveto
          51 -686 rlineto
          135 hlineto
          hintmask 11011000
          146 437 rlineto
          10 29 16 68 0 vvcurveto
          5 hlineto
          0 0 -1 -27 0 -29 0 -14 0 -15 1 -12 50 flex
          31 -437 rlineto
          135 hlineto
          236 686 rlineto
          -112 hlineto
          -139 -422 rlineto
          -11 -34 -15 -62 0 vvcurveto
          -4 hlineto
          -22 518 rlineto
          -145 hlineto
          -140 -422 rlineto
          -10 -29 -16 -67 0 vvcurveto
          -4 hlineto
          -21 518 rlineto
          325 197 rmoveto
          -15 -109 rlineto
          100 hlineto
          15 109 rlineto
          -275 hmoveto
          -14 -109 rlineto
          99 hlineto
          15 109 rlineto
          endchar
        </CharString>
        <CharString name="Wgrave">
          188 0 168 366 152 0 -20 85 132 hstemhm
          430 110 hintmask 10111000
          67 686 rmoveto
          51 -686 rlineto
          135 hlineto
          hintmask 11011000
          146 437 rlineto
          10 29 16 68 0 vvcurveto
          5 hlineto
          0 0 -1 -27 0 -29 0 -14 0 -15 1 -12 50 flex
          31 -437 rlineto
          135 hlineto
          236 686 rlineto
          -112 hlineto
          -139 -422 rlineto
          -11 -34 -15 -62 0 vvcurveto
          -4 hlineto
          -22 518 rlineto
          -145 hlineto
          -140 -422 rlineto
          -10 -29 -16 -67 0 vvcurveto
          -4 hlineto
          -21 518 rlineto
          149 194 rmoveto
          90 -129 rlineto
          99 hlineto
          -67 132 rlineto
          -120 hlineto
          endchar
        </CharString>
        <CharString name="X">
          -39 21 -21 686 -20 hstem
          -29 618 vstem
          220 358 rmoveto
          -249 -358 rlineto
          139 hlineto
          160 238 rlineto
          4 hlineto
          95 -238 rlineto
          142 hlineto
          -151 358 229 328 rlineto
          -142 hlineto
          -137 -209 rlineto
          -4 hlineto
          -82 209 rlineto
          -140 hlineto
          endchar
        </CharString>
        <CharString name="Y">
          -39 21 -21 686 -20 hstem
          67 541 vstem
          215 259 rmoveto
          -36 -259 rlineto
          126 hlineto
          37 259 266 427 rlineto
          -129 hlineto
          -179 -301 rlineto
          -4 hlineto
          -99 301 rlineto
          -130 hlineto
          endchar
        </CharString>
        <CharString name="Yacute">
          -39 21 -21 686 -20 85 132 hstem
          67 541 vstem
          215 259 rmoveto
          -36 -259 rlineto
          126 hlineto
          37 259 266 427 rlineto
          -129 hlineto
          -179 -301 rlineto
          -4 hlineto
          -99 301 rlineto
          -130 hlineto
          305 197 rmoveto
          -86 -132 rlineto
          99 hlineto
          108 129 -1 3 rlineto
          endchar
        </CharString>
        <CharString name="Ycircumflex">
          -39 21 -21 686 -20 82 135 hstem
          67 541 vstem
          215 259 rmoveto
          -36 -259 rlineto
          126 hlineto
          37 259 266 427 rlineto
          -129 hlineto
          -179 -301 rlineto
          -4 hlineto
          -99 301 rlineto
          -130 hlineto
          251 197 rmoveto
          -104 -135 rlineto
          93 hlineto
          51 69 34 -69 rlineto
          90 hlineto
          -66 135 rlineto
          endchar
        </CharString>
        <CharString name="Ydieresis">
          -39 21 -21 686 -20 108 109 hstem
          67 541 vstem
          215 259 rmoveto
          -36 -259 rlineto
          126 hlineto
          37 259 266 427 rlineto
          -129 hlineto
          -179 -301 rlineto
          -4 hlineto
          -99 301 rlineto
          -130 hlineto
          338 197 rmoveto
          -15 -109 rlineto
          100 hlineto
          15 109 rlineto
          -275 hmoveto
          -14 -109 rlineto
          99 hlineto
          15 109 rlineto
          endchar
        </CharString>
        <CharString name="Ygrave">
          -39 21 -21 686 -20 85 132 hstem
          67 541 vstem
          215 259 rmoveto
          -36 -259 rlineto
          126 hlineto
          37 259 266 427 rlineto
          -129 hlineto
          -179 -301 rlineto
          -4 hlineto
          -99 301 rlineto
          -130 hlineto
          162 194 rmoveto
          90 -129 rlineto
          99 hlineto
          -67 132 rlineto
          -120 hlineto
          endchar
        </CharString>
        <CharString name="Z">
          -85 0 114 458 114 hstem
          -12 541 vstem
          -8 49 rmoveto
          -4 -49 rlineto
          455 hlineto
          16 114 rlineto
          -278 hlineto
          344 522 4 50 rlineto
          -428 hlineto
          -16 -114 rlineto
          250 hlineto
          endchar
        </CharString>
        <CharString name="Zacute">
          -85 0 114 458 114 65 132 hstem
          -12 541 vstem
          -8 49 rmoveto
          -4 -49 rlineto
          455 hlineto
          16 114 rlineto
          -278 hlineto
          344 522 4 50 rlineto
          -428 hlineto
          -16 -114 rlineto
          250 hlineto
          8 311 rmoveto
          -86 -132 rlineto
          99 hlineto
          108 129 -1 3 rlineto
          endchar
        </CharString>
        <CharString name="Zcaron">
          -85 0 114 458 114 62 135 hstem
          -12 541 vstem
          -8 49 rmoveto
          -4 -49 rlineto
          455 hlineto
          16 114 rlineto
          -278 hlineto
          344 522 4 50 rlineto
          -428 hlineto
          -16 -114 rlineto
          250 hlineto
          -132 311 rmoveto
          67 -135 rlineto
          98 hlineto
          104 135 rlineto
          -94 hlineto
          -50 -69 -35 69 rlineto
          endchar
        </CharString>
        <CharString name="Zdotaccent">
          -85 0 114 458 114 82 115 hstem
          -12 541 vstem
          -8 49 rmoveto
          -4 -49 rlineto
          455 hlineto
          16 114 rlineto
          -278 hlineto
          344 522 4 50 rlineto
          -428 hlineto
          -16 -114 rlineto
          250 hlineto
          -50 311 rmoveto
          -17 -115 rlineto
          107 hlineto
          17 115 rlineto
          endchar
        </CharString>
        <CharString name="a">
          -130 -12 103 344 103 -12 -20 hstemhm
          22 119 hintmask 11010000
          221 538 rmoveto
          -99 -100 -110 -254 -124 53 -62 89 36 44 21 49 26 hvcurveto
          -44 10 29 -26 44 hhcurveto
          28 19 9 7 12 hvcurveto
          12 85 rlineto
          -18 hlineto
          -14 -10 8 20 hvcurveto
          hintmask 10110000
          11 62 398 0 vhcurveto
          -93 hlineto
          hintmask 11010000
          -20 -63 rlineto
          47 -19 -36 28 -55 hhcurveto
          -26 -447 rmoveto
          -38 -16 35 64 58 20 187 83 41 12 -36 -61 -75 -18 -172 -84 hvcurveto
          endchar
        </CharString>
        <CharString name="aacute">
          -130 -12 103 344 103 -12 -20 85 132 hstemhm
          22 119 hintmask 11011000
          287 723 rmoveto
          -86 -132 rlineto
          99 hlineto
          108 129 -1 3 rlineto
          -186 -185 rmoveto
          -99 -100 -110 -254 -124 53 -62 89 36 44 21 49 26 hvcurveto
          -44 10 29 -26 44 hhcurveto
          28 19 9 7 12 hvcurveto
          12 85 rlineto
          -18 hlineto
          -14 -10 8 20 hvcurveto
          hintmask 10111000
          11 62 398 0 vhcurveto
          -93 hlineto
          hintmask 11011000
          -20 -63 rlineto
          47 -19 -36 28 -55 hhcurveto
          -26 -447 rmoveto
          -38 -16 35 64 58 20 187 83 41 12 -36 -61 -75 -18 -172 -84 hvcurveto
          endchar
        </CharString>
        <CharString name="abreve">
          -130 -12 103 344 103 -12 -20 110 74 -74 107 hstemhm
          22 119 hintmask 11001100
          272 616 rmoveto
          80 57 57 50 7 hvcurveto
          -74 hlineto
          hintmask 11010100
          -14 -4 -27 -19 -34 hhcurveto
          -16 -14 5 6 -9 hvcurveto
          hintmask 11001100
          -9 7 -5 8 -1 7 rrcurveto
          -74 hlineto
          -1 -4 0 -3 -4 vvcurveto
          -47 45 -49 79 vhcurveto
          -51 -78 rmoveto
          -99 -100 -110 -254 -124 53 -62 89 36 44 21 49 26 hvcurveto
          -44 10 29 -26 44 hhcurveto
          28 19 9 7 12 hvcurveto
          12 85 rlineto
          -18 hlineto
          -14 -10 8 20 hvcurveto
          hintmask 10101100
          11 62 398 0 vhcurveto
          -93 hlineto
          hintmask 11001100
          -20 -63 rlineto
          47 -19 -36 28 -55 hhcurveto
          -26 -447 rmoveto
          -38 -16 35 64 58 20 187 83 41 12 -36 -61 -75 -18 -172 -84 hvcurveto
          endchar
        </CharString>
        <CharString name="acircumflex">
          -130 -12 103 344 103 -12 -20 82 135 -66 66 hstemhm
          22 119 hintmask 11010100
          233 723 rmoveto
          -104 -135 rlineto
          93 hlineto
          hintmask 11001100
          51 69 rlineto
          hintmask 11010100
          34 -69 rlineto
          90 hlineto
          -66 135 rlineto
          -110 -185 rmoveto
          -99 -100 -110 -254 -124 53 -62 89 36 44 21 49 26 hvcurveto
          -44 10 29 -26 44 hhcurveto
          28 19 9 7 12 hvcurveto
          12 85 rlineto
          -18 hlineto
          -14 -10 8 20 hvcurveto
          hintmask 10110100
          11 62 398 0 vhcurveto
          -93 hlineto
          hintmask 11010100
          -20 -63 rlineto
          47 -19 -36 28 -55 hhcurveto
          -26 -447 rmoveto
          -38 -16 35 64 58 20 187 83 41 12 -36 -61 -75 -18 -172 -84 hvcurveto
          endchar
        </CharString>
        <CharString name="acute">
          -313 591 132 hstem
          140 207 vstem
          226 723 rmoveto
          -86 -132 rlineto
          99 hlineto
          108 129 -1 3 rlineto
          endchar
        </CharString>
        <CharString name="adieresis">
          -130 -12 103 344 103 -12 -20 108 109 hstemhm
          22 119 hintmask 11011000
          221 538 rmoveto
          -99 -100 -110 -254 -124 53 -62 89 36 44 21 49 26 hvcurveto
          -44 10 29 -26 44 hhcurveto
          28 19 9 7 12 hvcurveto
          12 85 rlineto
          -18 hlineto
          -14 -10 8 20 hvcurveto
          hintmask 10111000
          11 62 398 0 vhcurveto
          -93 hlineto
          hintmask 11011000
          -20 -63 rlineto
          47 -19 -36 28 -55 hhcurveto
          -26 -447 rmoveto
          -38 -16 35 64 58 20 187 83 41 12 -36 -61 -75 -18 -172 -84 hvcurveto
          125 632 rmoveto
          -15 -109 rlineto
          100 hlineto
          15 109 rlineto
          -275 hmoveto
          -14 -109 rlineto
          99 hlineto
          15 109 rlineto
          endchar
        </CharString>
        <CharString name="ae">
          143 -12 97 -97 100 145 87 120 98 hstemhm
          19 125 148 125 155 121 hintmask 10111110
          19 129 rmoveto
          -116 82 -25 61 69 49 28 41 41 vhcurveto
          -47 27 48 -22 71 hhcurveto
          124 56 89 105 24 hvcurveto
          -123 hlineto
          -52 -11 -25 -45 -40 hhcurveto
          -40 -15 34 68 7 0 18 2 21 hvcurveto
          263 hlineto
          8 42 3 45 39 vvcurveto
          120 -55 59 -108 -55 -42 -17 -27 -33 vhcurveto
          28 -25 -41 16 -55 hhcurveto
          -119 -79 -66 -102 hvcurveto
          116 hlineto
          40 5 17 30 49 hhcurveto
          36 10 -19 -26 -6 0 -7 -1 -7 hvcurveto
          -6 -55 rlineto
          -149 -139 -44 -147 hvcurveto
          413 191 rmoveto
          62 14 27 59 50 hhcurveto
          36 13 -29 -53 -5 0 -5 -2 -29 hvcurveto
          hintmask 01111110
          -426 -186 rmoveto
          79 78 20 72 vhcurveto
          -4 -30 rlineto
          -62 -8 -31 -53 -55 hhcurveto
          -36 -16 17 29 hvcurveto
          endchar
        </CharString>
        <CharString name="aeacute">
          143 -12 97 -97 100 145 87 120 98 53 132 hstemhm
          19 125 148 125 155 121 hintmask 10111111
          19 129 rmoveto
          -116 82 -25 61 69 49 28 41 41 vhcurveto
          -47 27 48 -22 71 hhcurveto
          124 56 89 105 24 hvcurveto
          -123 hlineto
          -52 -11 -25 -45 -40 hhcurveto
          -40 -15 34 68 7 0 18 2 21 hvcurveto
          263 hlineto
          8 42 3 45 39 vvcurveto
          120 -55 59 -108 -55 -42 -17 -27 -33 vhcurveto
          28 -25 -41 16 -55 hhcurveto
          -119 -79 -66 -102 hvcurveto
          116 hlineto
          40 5 17 30 49 hhcurveto
          36 10 -19 -26 -6 0 -7 -1 -7 hvcurveto
          -6 -55 rlineto
          -149 -139 -44 -147 hvcurveto
          413 191 rmoveto
          62 14 27 59 50 hhcurveto
          36 13 -29 -53 -5 0 -5 -2 -29 hvcurveto
          hintmask 01111111
          -426 -186 rmoveto
          79 78 20 72 vhcurveto
          -4 -30 rlineto
          -62 -8 -31 -53 -55 hhcurveto
          -36 -16 17 29 hvcurveto
          293 589 rmoveto
          -86 -132 rlineto
          99 hlineto
          108 129 -1 3 rlineto
          endchar
        </CharString>
        <CharString name="afii00208">
          234 223 95 hstem
          95 626 vstem
          108 318 rmoveto
          -13 -95 rlineto
          613 hlineto
          13 95 rlineto
          endchar
        </CharString>
        <CharString name="afii61248">
          227 -13 71 246 71 -65 71 246 71 hstemhm
          92 87 108 86 63 87 131 87 hintmask 11011111
          627 698 rmoveto
          -515 -710 rlineto
          77 hlineto
          514 710 rlineto
          hintmask 10111111
          -483 -388 rmoveto
          73 51 44 104 14 hvcurveto
          -84 hlineto
          -51 -7 -16 -26 -31 hhcurveto
          -29 -12 21 42 46 11 137 62 23 12 -17 -34 -8 -1 -8 -1 -10 hvcurveto
          86 hlineto
          2 13 0 12 11 vvcurveto
          78 -46 34 -75 -93 -67 -80 -175 -91 41 -42 87 vhcurveto
          hintmask 11011111
          216 -187 rmoveto
          -93 46 -43 90 93 54 61 133 18 vhcurveto
          3 20 1 19 18 vvcurveto
          93 -44 44 -91 -101 -69 -79 -173 vhcurveto
          87 2 rmoveto
          55 12 124 71 34 14 -23 -44 -55 -10 -124 -72 -34 -15 23 44 vhcurveto
          endchar
        </CharString>
        <CharString name="afii61289">
          -54 -12 99 564 84 hstem
          116 124 161 89 vstem
          60 132 rmoveto
          20 12 19 13 20 13 rrcurveto
          -2 -13 -1 -13 -12 vvcurveto
          -82 47 -62 114 44 35 9 17 37 vhcurveto
          14 103 rlineto
          -18 -30 -34 -12 -39 hhcurveto
          -36 -28 22 56 10 1 11 2 12 hvcurveto
          10 74 124 104 98 115 12 91 rlinecurve
          2 12 1 12 11 vvcurveto
          77 -46 41 -79 -86 -89 -56 -171 -24 vhcurveto
          -34 -245 -59 -42 rlineto
          213 287 rmoveto
          107 15 36 36 29 hhcurveto
          24 11 -17 -29 -69 -57 -80 -76 -75 hvcurveto
          endchar
        </CharString>
        <CharString name="afii61352">
          354 21 -21 180 84 40 80 234 80 -12 -20 hstemhm
          633 91 105 90 hintmask 11110110
          822 488 rmoveto
          -67 -10 -19 -37 -34 hhcurveto
          -24 -11 22 40 12 0 14 7 42 hvcurveto
          67 10 17 37 34 hhcurveto
          25 12 -22 -42 -12 -1 -13 -6 -41 hvcurveto
          93 13 rmoveto
          3 22 1 19 18 vvcurveto
          95 -41 43 -79 -93 -73 -79 -177 -95 41 -43 79 87 57 61 136 18 vhcurveto
          -305 -321 rmoveto
          244 hlineto
          12 84 rlineto
          -244 hlineto
          -127 -264 rmoveto
          hintmask 11101110
          96 686 rlineto
          -113 hlineto
          -53 -382 rlineto
          -2 -11 -5 -46 0 vvcurveto
          -3 -3 rlineto
          0 -15 47 -7 17 vhcurveto
          -157 378 rlineto
          -112 hlineto
          -96 -686 rlineto
          112 hlineto
          53 382 rlineto
          3 18 3 39 0 vvcurveto
          4 3 rlineto
          0 16 -50 6 -14 vhcurveto
          157 -378 rlineto
          endchar
        </CharString>
        <CharString name="agrave">
          -130 -12 103 344 103 -12 -20 85 132 hstemhm
          22 119 hintmask 11011000
          143 720 rmoveto
          90 -129 rlineto
          99 hlineto
          -67 132 rlineto
          -120 hlineto
          76 -185 rmoveto
          -99 -100 -110 -254 -124 53 -62 89 36 44 21 49 26 hvcurveto
          -44 10 29 -26 44 hhcurveto
          28 19 9 7 12 hvcurveto
          12 85 rlineto
          -18 hlineto
          -14 -10 8 20 hvcurveto
          hintmask 10111000
          11 62 398 0 vhcurveto
          -93 hlineto
          hintmask 11011000
          -20 -63 rlineto
          47 -19 -36 28 -55 hhcurveto
          -26 -447 rmoveto
          -38 -16 35 64 58 20 187 83 41 12 -36 -61 -75 -18 -172 -84 hvcurveto
          endchar
        </CharString>
        <CharString name="amacron">
          -130 -12 103 344 103 -12 -20 93 87 hstemhm
          22 119 hintmask 11011000
          148 686 rmoveto
          -13 -87 rlineto
          255 hlineto
          13 87 rlineto
          -182 -148 rmoveto
          -99 -100 -110 -254 -124 53 -62 89 36 44 21 49 26 hvcurveto
          -44 10 29 -26 44 hhcurveto
          28 19 9 7 12 hvcurveto
          12 85 rlineto
          -18 hlineto
          -14 -10 8 20 hvcurveto
          hintmask 10111000
          11 62 398 0 vhcurveto
          -93 hlineto
          hintmask 11011000
          -20 -63 rlineto
          47 -19 -36 28 -55 hhcurveto
          -26 -447 rmoveto
          -38 -16 35 64 58 20 187 83 41 12 -36 -61 -75 -18 -172 -84 hvcurveto
          endchar
        </CharString>
        <CharString name="ampersand">
          6 -12 101 209 101 198 101 hstemhm
          32 125 -66 123 204 121 hintmask 11110100
          32 155 rmoveto
          -105 86 -62 130 140 89 81 125 16 vhcurveto
          14 104 rlineto
          78 hlineto
          14 101 rlineto
          -197 hlineto
          -29 -208 rlineto
          -65 -9 -39 -37 -71 hhcurveto
          -60 -37 26 58 100 68 25 62 hvcurveto
          38 hlineto
          14 101 rlineto
          hintmask 11101100
          -41 hlineto
          -50 -34 32 54 68 45 44 71 57 31 -25 -51 -6 0 -7 -4 -26 hvcurveto
          119 hlineto
          5 38 1 9 9 vvcurveto
          98 -81 62 -122 -136 -109 -76 -140 -63 34 -38 48 -25 vhcurveto
          -4 vlineto
          hintmask 11110100
          -76 -17 -65 -73 -107 vvcurveto
          endchar
        </CharString>
        <CharString name="aogonek">
          -130 -186 69 -55 55 -34 -21 160 103 -75 -21 440 103 -12 -20 hstemhm
          22 119 128 102 hintmask 0011010110000000
          164 -12 rmoveto
          36 44 21 49 26 hvcurveto
          hintmask 1000110110000000
          7 -31 16 -22 24 -10 rrcurveto
          -26 -25 -22 -32 -47 vvcurveto
          -59 45 -18 42 vhcurveto
          hintmask 0010110110000000
          22 22 5 9 24 hvcurveto
          hintmask 0100101110000000
          8 55 rlineto
          -22 hlineto
          -28 -11 18 22 32 25 33 16 16 hvcurveto
          12 85 rlineto
          -18 hlineto
          -14 -10 8 20 11 62 398 0 hvcurveto
          -93 hlineto
          hintmask 0010110110000000
          -20 -63 rlineto
          47 -19 -36 28 -55 hhcurveto
          -99 -100 -110 -254 hvcurveto
          hintmask 0011010110000000
          -124 53 -62 89 vhcurveto
          31 103 rmoveto
          -38 -16 35 64 hvcurveto
          hintmask 0010110100000000
          58 20 187 83 41 12 -36 -61 vhcurveto
          hintmask 0011010110000000
          -75 -18 -172 -84 vhcurveto
          endchar
        </CharString>
        <CharString name="approxequal">
          -37 26 120 -59 120 30 120 -59 120 hstemhm
          -2 551 hintmask 10011000
          27 225 rmoveto
          0 69 73 84 38 31 -15 -15 31 vhcurveto
          hintmask 10101000
          -16 31 31 -15 37 hhcurveto
          95 58 73 0 hvcurveto
          17 120 rlineto
          0 -70 -73 -84 -38 -31 15 16 -31 vhcurveto
          hintmask 01011000
          15 -30 -31 15 -37 hhcurveto
          -95 -58 -73 0 hvcurveto
          -46 -331 rmoveto
          0 69 73 84 38 31 -15 -15 31 vhcurveto
          hintmask 10101000
          -16 31 30 -15 37 hhcurveto
          95 58 73 0 hvcurveto
          17 120 rlineto
          0 -69 -73 -84 -38 -31 15 16 -31 vhcurveto
          hintmask 01101000
          15 -31 -31 15 -37 hhcurveto
          -95 -58 -73 0 hvcurveto
          endchar
        </CharString>
        <CharString name="aring">
          -130 -12 103 344 103 -12 -20 55 50 92 50 hstemhm
          22 119 36 50 92 50 hintmask 11011111
          273 561 rmoveto
          53 43 43 53 52 -42 44 -54 -53 -43 -43 -53 -54 44 -42 52 hvcurveto
          50 vmoveto
          -26 -20 20 26 26 20 20 26 25 21 -20 -26 -26 -21 -20 -25 hvcurveto
          hintmask 11001111
          -52 -73 rmoveto
          -99 -100 -110 -254 -124 53 -62 89 36 44 21 49 26 hvcurveto
          -44 10 29 -26 44 hhcurveto
          28 19 9 7 12 hvcurveto
          12 85 rlineto
          -18 hlineto
          -14 -10 8 20 hvcurveto
          hintmask 10101111
          11 62 398 0 vhcurveto
          -93 hlineto
          hintmask 11001111
          -20 -63 rlineto
          47 -19 -36 28 -55 hhcurveto
          -26 -447 rmoveto
          -38 -16 35 64 58 20 187 83 41 12 -36 -61 -75 -18 -172 -84 hvcurveto
          endchar
        </CharString>
        <CharString name="aringacute">
          -130 -12 103 344 103 -12 -20 54 48 91 48 21 115 hstemhm
          22 119 36 50 92 50 hintmask 1101111110000000
          273 560 rmoveto
          53 43 42 52 50 -42 43 -54 -53 -43 -42 -51 -53 44 -41 52 hvcurveto
          48 vmoveto
          -26 -20 20 26 25 20 20 26 25 21 -20 -25 -26 -21 -20 -25 hvcurveto
          hintmask 1100011110000000
          -52 -70 rmoveto
          -99 -100 -110 -254 -124 53 -62 89 36 44 21 49 26 hvcurveto
          -44 10 29 -26 44 hhcurveto
          28 19 9 7 12 hvcurveto
          12 85 rlineto
          -18 hlineto
          -14 -10 8 20 hvcurveto
          hintmask 1010011110000000
          11 62 398 0 vhcurveto
          -93 hlineto
          hintmask 1100011110000000
          -20 -63 rlineto
          47 -19 -36 28 -55 hhcurveto
          -26 -447 rmoveto
          -38 -16 35 64 58 20 187 83 41 12 -36 -61 -75 -18 -172 -84 hvcurveto
          106 792 rmoveto
          -75 -115 rlineto
          99 hlineto
          97 112 -1 3 rlineto
          endchar
        </CharString>
        <CharString name="arrowboth">
          414 198 109 hstem
          41 920 vstem
          789 436 rmoveto
          -52 hlineto
          35 -129 rlineto
          -526 hlineto
          71 129 rlineto
          -52 hlineto
          -222 -173 -2 -21 172 -173 rlineto
          52 hlineto
          -35 129 rlineto
          526 hlineto
          -71 -129 rlineto
          52 hlineto
          221 173 3 21 rlineto
          endchar
        </CharString>
        <CharString name="arrowdown">
          -86 11 -21 hstem
          32 374 vstem
          371 711 rmoveto
          -109 hlineto
          -101 -722 -122 53 -7 -52 145 -197 rlineto
          21 hlineto
          201 197 7 52 -137 -53 rlineto
          endchar
        </CharString>
        <CharString name="arrowleft">
          414 198 108 hstem
          41 927 vstem
          952 198 rmoveto
          16 108 rlineto
          -722 hlineto
          71 130 rlineto
          -52 hlineto
          -222 -173 -2 -21 172 -174 rlineto
          52 hlineto
          -35 130 rlineto
          endchar
        </CharString>
        <CharString name="arrowright">
          414 198 108 hstem
          34 927 vstem
          50 306 rmoveto
          -16 -108 rlineto
          722 hlineto
          -71 -130 rlineto
          52 hlineto
          221 173 3 21 -172 174 rlineto
          -52 hlineto
          34 -130 rlineto
          endchar
        </CharString>
        <CharString name="arrowup">
          -86 -207 918 hstem
          97 375 vstem
          133 -207 rmoveto
          108 hlineto
          102 722 121 -53 8 52 -145 197 rlineto
          -21 hlineto
          -202 -197 -7 -52 137 53 rlineto
          endchar
        </CharString>
        <CharString name="arrowupdn">
          -86 11 -21 hstem
          29 440 vstem
          396 -10 rmoveto
          7 52 -137 -53 74 526 122 -53 7 52 -145 197 rlineto
          -21 hlineto
          -201 -197 -7 -52 137 53 -74 -526 -122 53 -7 -52 145 -197 rlineto
          21 hlineto
          endchar
        </CharString>
        <CharString name="arrowupdnbse">
          -86 -233 86 hstem
          0 471 vstem
          379 -147 rmoveto
          -367 hlineto
          -12 -86 rlineto
          367 hlineto
          46 330 rmoveto
          7 52 -137 -53 59 419 122 -53 7 52 -145 197 rlineto
          -21 hlineto
          -201 -197 -7 -52 136 53 -58 -419 -122 53 -8 -52 146 -197 rlineto
          21 hlineto
          endchar
        </CharString>
        <CharString name="asciicircum">
          -107 564 122 0 -20 hstemhm
          4 420 hintmask 01100000
          215 686 rmoveto
          -211 -392 rlineto
          115 hlineto
          hintmask 10100000
          132 270 63 -270 rlineto
          110 hlineto
          -102 392 rlineto
          endchar
        </CharString>
        <CharString name="asciitilde">
          -107 209 120 -59 120 hstemhm
          20 454 hintmask 01100000
          20 197 rmoveto
          0 61 73 72 vhcurveto
          hintmask 10100000
          66 41 -61 64 hhcurveto
          82 51 73 0 hvcurveto
          17 120 rlineto
          0 -61 -73 -72 vhcurveto
          hintmask 01100000
          -66 -41 61 -64 hhcurveto
          -82 -51 -73 0 hvcurveto
          endchar
        </CharString>
        <CharString name="asterisk">
          -267 533 -20 173 -20 hstem
          47 316 vstem
          168 483 rmoveto
          -24 -102 rlineto
          78 hlineto
          4 102 76 -60 49 68 -88 42 100 44 -30 66 -92 -58 24 101 rlineto
          -78 hlineto
          -4 -102 -76 59 -48 -66 86 -44 -98 -42 29 -68 rlineto
          endchar
        </CharString>
        <CharString name="at">
          214 -154 65 111 87 -87 93 313 93 112 65 hstemhm
          33 68 121 108 386 68 hintmask 11011111
          558 22 rmoveto
          161 65 187 160 194 -57 135 -269 -261 -164 -174 -330 -247 134 -101 221 50 54 14 4 11 hvcurveto
          8 67 rlineto
          0 -42 -20 -90 -160 -118 71 214 324 162 113 212 183 58 -95 -170 -94 -34 -165 -92 -28 -11 13 27 12 53 342 1 7 vhcurveto
          -84 hlineto
          -19 -57 rlineto
          43 -17 -33 25 -49 hhcurveto
          -90 -91 -100 -230 hvcurveto
          hintmask 10111111
          -113 48 -56 81 31 41 17 38 26 vhcurveto
          hintmask 11011111
          -25 13 30 -30 66 hhcurveto
          hintmask 10111111
          -179 93 rmoveto
          -35 -14 32 58 53 18 170 75 38 10 -33 -55 -69 -16 -156 -76 hvcurveto
          endchar
        </CharString>
        <CharString name="atilde">
          -130 -12 103 344 103 -12 -20 95 85 -48 85 hstemhm
          22 119 hintmask 11010100
          167 601 rmoveto
          hintmask 11001100
          27 8 15 10 21 hhcurveto
          hintmask 11010100
          44 34 -37 47 hhcurveto
          hintmask 11001100
          71 44 67 55 hvcurveto
          -65 hlineto
          hintmask 11010100
          -28 -8 -15 -9 -21 hhcurveto
          -22 -19 9 10 -20 hvcurveto
          hintmask 11001100
          9 -20 -21 9 -24 hhcurveto
          -35 -28 -17 -24 -20 hvcurveto
          hintmask 11010100
          -19 -24 -11 -30 -27 vvcurveto
          118 -63 rmoveto
          -99 -100 -110 -254 -124 53 -62 89 36 44 21 49 26 hvcurveto
          -44 10 29 -26 44 hhcurveto
          28 19 9 7 12 hvcurveto
          12 85 rlineto
          -18 hlineto
          -14 -10 8 20 hvcurveto
          hintmask 10101100
          11 62 398 0 vhcurveto
          -93 hlineto
          hintmask 11001100
          -20 -63 rlineto
          hintmask 11010100
          47 -19 -36 28 -55 hhcurveto
          -26 -447 rmoveto
          -38 -16 35 64 58 20 187 83 41 12 -36 -61 -75 -18 -172 -84 hvcurveto
          endchar
        </CharString>
        <CharString name="b">
          -85 -12 109 -76 -21 429 109 185 -20 hstemhm
          345 122 hintmask 10111000
          262 -12 rmoveto
          159 46 226 135 131 -55 58 -80 -50 -46 -25 -39 -29 hvcurveto
          35 249 rlineto
          -119 hlineto
          hintmask 01111000
          -100 -723 rlineto
          93 hlineto
          hintmask 10111000
          24 70 rlineto
          -58 22 44 -24 56 hhcurveto
          21 441 rmoveto
          45 17 -31 -58 -71 -14 -172 -96 -46 -19 33 58 74 19 167 94 hvcurveto
          endchar
        </CharString>
        <CharString name="backslash">
          -358 -49 784 hstem
          58 139 vstem
          58 735 rmoveto
          57 -784 rlineto
          82 hlineto
          -58 784 rlineto
          endchar
        </CharString>
        <CharString name="bar">
          -356 -152 -21 896 -20 hstem
          70 90 vstem
          70 723 rmoveto
          -896 90 896 vlineto
          endchar
        </CharString>
        <CharString name="braceleft">
          -267 -159 77 324 41 10 41 324 77 hstemhm
          56 118 -87 110 hintmask 10111000
          58 -11 rmoveto
          -1 -10 -1 -7 -12 vvcurveto
          -100 84 -19 95 vhcurveto
          10 77 rlineto
          -33 -38 8 42 hvcurveto
          hintmask 11110100
          28 23 159 40 vvcurveto
          56 -24 32 -70 vhcurveto
          1 10 rlineto
          hintmask 10110100
          78 33 40 68 12 hvcurveto
          11 67 15 63 9 66 rrcurveto
          51 7 46 10 35 hhcurveto
          10 77 rlineto
          -104 -95 -22 -126 -18 hvcurveto
          -28 -193 rlineto
          -45 -7 -42 -15 -36 hhcurveto
          hintmask 11110100
          -13 -92 rlineto
          36 -2 34 -12 -34 vvcurveto
          hintmask 10111000
          -7 -3 -11 -26 -187 vhcurveto
          endchar
        </CharString>
        <CharString name="braceright">
          -267 -159 77 324 41 10 41 324 77 hstemhm
          135 110 -87 118 hintmask 11010100
          70 -21 rmoveto
          -51 -7 -46 -10 -35 hhcurveto
          -10 -77 rlineto
          hintmask 11011000
          104 95 22 126 18 hvcurveto
          28 193 rlineto
          45 7 42 15 36 hhcurveto
          hintmask 11111000
          13 92 rlineto
          -36 2 -34 12 34 vvcurveto
          7 3 11 26 187 vhcurveto
          hintmask 11010100
          1 10 1 7 12 vvcurveto
          100 -84 19 -95 vhcurveto
          -10 -77 rlineto
          33 38 -8 -42 hvcurveto
          hintmask 11111000
          -28 -23 -159 -40 vvcurveto
          -56 24 -32 70 vhcurveto
          -1 -10 rlineto
          hintmask 11011000
          -78 -33 -40 -68 -12 hvcurveto
          hintmask 11010100
          -11 -67 -15 -63 -9 -66 rrcurveto
          endchar
        </CharString>
        <CharString name="bracketleft">
          -313 -161 95 706 95 hstem
          -6 323 vstem
          205 -66 rmoveto
          -83 hlineto
          99 706 rlineto
          83 hlineto
          13 95 rlineto
          -199 hlineto
          -124 -896 rlineto
          198 hlineto
          endchar
        </CharString>
        <CharString name="bracketright">
          -313 -161 95 706 95 hstem
          -26 323 vstem
          69 -66 rmoveto
          -82 hlineto
          -13 -95 rlineto
          198 hlineto
          125 896 rlineto
          -199 hlineto
          -13 -95 rlineto
          83 hlineto
          endchar
        </CharString>
        <CharString name="breve">
          -313 616 74 -74 107 hstemhm
          7 268 hintmask 01100000
          131 616 rmoveto
          80 57 57 50 7 hvcurveto
          -74 hlineto
          hintmask 10100000
          -14 -4 -27 -19 -34 hhcurveto
          -16 -14 5 6 -9 hvcurveto
          hintmask 01100000
          -9 7 -5 8 -1 7 rrcurveto
          -74 hlineto
          -1 -4 0 -3 -4 vvcurveto
          -47 45 -49 79 vhcurveto
          endchar
        </CharString>
        <CharString name="brokenbar">
          -356 -152 -21 896 -20 hstem
          70 90 vstem
          70 723 rmoveto
          -372 90 372 vlineto
          -90 -524 rmoveto
          -372 90 372 vlineto
          endchar
        </CharString>
        <CharString name="bullet">
          -299 220 247 hstem
          34 241 vstem
          154 220 rmoveto
          67 54 57 67 67 -54 56 -67 -67 -53 -56 -67 -67 53 -57 67 hvcurveto
          endchar
        </CharString>
        <CharString name="c">
          -130 -12 101 348 101 hstem
          36 122 152 122 vstem
          36 172 rmoveto
          -125 56 -59 111 133 52 96 111 25 vhcurveto
          -119 hlineto
          -57 -12 -27 -49 -43 hhcurveto
          -43 -11 35 67 37 16 209 86 39 11 -33 -61 hvcurveto
          -15 122 15 vlineto
          131 -48 64 -115 -193 -40 -201 -165 vhcurveto
          endchar
        </CharString>
        <CharString name="cacute">
          -130 -12 101 348 101 53 132 hstem
          36 122 152 122 vstem
          36 172 rmoveto
          -125 56 -59 111 133 52 96 111 25 vhcurveto
          -119 hlineto
          -57 -12 -27 -49 -43 hhcurveto
          -43 -11 35 67 37 16 209 86 39 11 -33 -61 hvcurveto
          -15 122 15 vlineto
          131 -48 64 -115 -193 -40 -201 -165 vhcurveto
          268 551 rmoveto
          -86 -132 rlineto
          99 hlineto
          108 129 -1 3 rlineto
          endchar
        </CharString>
        <CharString name="caron">
          -313 588 135 hstem
          9 269 vstem
          9 723 rmoveto
          67 -135 rlineto
          98 hlineto
          104 135 rlineto
          -94 hlineto
          -50 -69 -35 69 rlineto
          endchar
        </CharString>
        <CharString name="ccaron">
          -130 -12 101 348 101 50 135 hstem
          36 122 152 122 vstem
          36 172 rmoveto
          -125 56 -59 111 133 52 96 111 25 vhcurveto
          -119 hlineto
          -57 -12 -27 -49 -43 hhcurveto
          -43 -11 35 67 37 16 209 86 39 11 -33 -61 hvcurveto
          -15 122 15 vlineto
          131 -48 64 -115 -193 -40 -201 -165 vhcurveto
          127 551 rmoveto
          67 -135 rlineto
          98 hlineto
          104 135 rlineto
          -94 hlineto
          -50 -69 -35 69 rlineto
          endchar
        </CharString>
        <CharString name="ccedilla">
          -130 -182 57 -28 -21 97 44 43 -21 24 -21 445 101 hstemhm
          36 122 47 86 19 122 hintmask 1000111010000000
          36 172 rmoveto
          -107 41 -59 81 -14 vhcurveto
          hintmask 1010111110000000
          -17 -69 rlineto
          32 hlineto
          22 10 -6 -12 -24 -17 -6 -23 hvcurveto
          -72 hlineto
          hintmask 0100111010000000
          -7 -49 rlineto
          hintmask 1010111110000000
          -5 23 33 -3 27 hhcurveto
          56 66 16 76 38 -33 16 -37 3 hvcurveto
          hintmask 1001011110000000
          5 22 116 11 48 90 23 105 rlinecurve
          -119 hlineto
          hintmask 1010111110000000
          -57 -12 -27 -49 -43 hhcurveto
          -43 -11 35 67 37 16 209 86 hvcurveto
          hintmask 1000111010000000
          39 11 -33 -61 hvcurveto
          -15 122 15 vlineto
          131 -48 64 -115 -193 -40 -201 -165 vhcurveto
          endchar
        </CharString>
        <CharString name="ccircumflex">
          -130 -12 101 348 101 50 135 -66 66 hstemhm
          36 122 152 122 hintmask 11101100
          36 172 rmoveto
          -125 56 -59 111 133 52 96 111 25 vhcurveto
          -119 hlineto
          -57 -12 -27 -49 -43 hhcurveto
          -43 -11 35 67 37 16 209 86 39 11 -33 -61 hvcurveto
          -15 122 15 vlineto
          131 -48 64 -115 -193 -40 -201 -165 vhcurveto
          214 551 rmoveto
          -104 -135 rlineto
          93 hlineto
          hintmask 11011100
          51 69 rlineto
          hintmask 11101100
          34 -69 rlineto
          90 hlineto
          -66 135 rlineto
          endchar
        </CharString>
        <CharString name="cdotaccent">
          -130 -12 101 348 101 70 115 hstem
          36 122 152 122 vstem
          36 172 rmoveto
          -125 56 -59 111 133 52 96 111 25 vhcurveto
          -119 hlineto
          -57 -12 -27 -49 -43 hhcurveto
          -43 -11 35 67 37 16 209 86 39 11 -33 -61 hvcurveto
          -15 122 15 vlineto
          131 -48 64 -115 -193 -40 -201 -165 vhcurveto
          210 551 rmoveto
          -17 -115 rlineto
          107 hlineto
          17 115 rlineto
          endchar
        </CharString>
        <CharString name="cedilla">
          -313 -182 57 -28 -21 97 88 hstemhm
          141 86 hintmask 10110000
          168 11 rmoveto
          -68 hlineto
          -23 -88 rlineto
          33 hlineto
          22 9 -6 -12 -24 -16 -6 -24 hvcurveto
          -71 hlineto
          hintmask 01110000
          -7 -49 rlineto
          hintmask 10110000
          -5 23 32 -3 28 hhcurveto
          55 66 16 76 38 -32 16 -38 3 hvcurveto
          endchar
        </CharString>
        <CharString name="cent">
          -130 723 -20 hstem
          36 114 168 114 vstem
          156 -49 rmoveto
          48 hlineto
          16 117 120 8 49 93 24 106 rlinecurve
          -111 hlineto
          -11 -51 -23 -46 -34 -13 49 355 rcurveline
          27 -11 8 -33 -53 vvcurveto
          -15 114 15 vlineto
          120 -40 63 -95 10 vhcurveto
          15 107 rlineto
          -48 hlineto
          -15 -106 rlineto
          -176 -14 -37 -192 -159 vvcurveto
          -113 46 -59 90 -10 vhcurveto
          14 95 rmoveto
          -28 12 -8 36 58 vvcurveto
          34 14 180 71 34 vhcurveto
          endchar
        </CharString>
        <CharString name="circumflex">
          -313 588 135 -66 66 hstemhm
          47 268 hintmask 10100000
          151 723 rmoveto
          -104 -135 rlineto
          93 hlineto
          hintmask 01100000
          51 69 rlineto
          hintmask 10100000
          34 -69 rlineto
          90 hlineto
          -66 135 rlineto
          endchar
        </CharString>
        <CharString name="colon">
          -313 0 137 252 137 hstem
          23 211 vstem
          96 526 rmoveto
          -19 -137 rlineto
          138 hlineto
          19 137 rlineto
          -192 -389 rmoveto
          -19 -137 rlineto
          138 hlineto
          19 137 rlineto
          endchar
        </CharString>
        <CharString name="comma">
          -358 0 137 hstem
          -6 179 vstem
          35 137 rmoveto
          -19 -137 rlineto
          51 hlineto
          -73 -156 rlineto
          72 hlineto
          90 168 17 125 rlineto
          endchar
        </CharString>
        <CharString name="commaaccent">
          -313 -178 123 hstem
          71 142 vstem
          213 -55 rmoveto
          -124 hlineto
          -17 -123 rlineto
          45 hlineto
          -46 -85 rlineto
          65 hlineto
          61 96 rlineto
          endchar
        </CharString>
        <CharString name="copyright">
          18 -12 55 91 75 269 75 90 55 hstem
          16 56 71 88 138 84 79 56 vstem
          302 -12 rmoveto
          178 108 139 216 216 -108 139 -178 -178 -108 -139 -216 -216 108 -139 178 hvcurveto
          55 vmoveto
          -143 -87 117 183 183 87 117 143 143 87 -117 -183 -183 -87 -117 -143 hvcurveto
          2 91 rmoveto
          86 63 51 106 hvcurveto
          -84 hlineto
          -56 -25 -26 -37 -51 -25 45 75 vhcurveto
          29 vlineto
          75 24 45 49 37 25 -27 -56 vhcurveto
          87 hlineto
          110 -64 48 -85 -101 -60 -67 -143 -143 60 -66 101 vhcurveto
          endchar
        </CharString>
        <CharString name="currency">
          -130 108 90 289 90 hstem
          22 84 243 85 vstem
          174 vmoveto
          61 -61 42 42 rlineto
          -29 35 43 -18 47 hhcurveto
          46 43 18 29 35 hvcurveto
          42 -42 61 61 -50 49 rlineto
          18 35 11 40 44 vvcurveto
          43 -10 39 -18 35 vhcurveto
          49 49 -60 62 -42 -42 rlineto
          30 -35 -44 19 -46 hhcurveto
          -48 -43 -19 -30 -35 hvcurveto
          -42 42 -60 -62 49 -50 rlineto
          -18 -35 -9 -39 -42 vvcurveto
          -43 10 -41 18 -34 vhcurveto
          178 -26 rmoveto
          -67 -55 64 80 81 55 64 67 66 55 -64 -81 -80 -55 -64 -66 hvcurveto
          endchar
        </CharString>
        <CharString name="d">
          -85 -12 109 -97 97 332 109 185 -20 hstemhm
          36 121 hintmask 10111000
          36 174 rmoveto
          -123 53 -63 90 49 46 25 63 37 vhcurveto
          hintmask 01111000
          -76 97 vlineto
          100 723 rlineto
          -118 hlineto
          -37 -254 rlineto
          44 -20 -36 25 -55 hhcurveto
          hintmask 10111000
          -103 -103 -110 -254 hvcurveto
          184 -77 rmoveto
          -46 -17 31 58 71 15 172 99 44 17 -33 -58 -74 -18 -167 -94 hvcurveto
          endchar
        </CharString>
        <CharString name="dagger">
          -130 -152 -21 859 -20 hstem
          46 421 vstem
          213 425 rmoveto
          -104 -598 rlineto
          114 hlineto
          64 598 164 -18 16 113 -169 -17 43 183 rlineto
          -108 hlineto
          -9 -183 -162 17 -16 -113 rlineto
          endchar
        </CharString>
        <CharString name="daggerdbl">
          -130 -152 -21 190 -21 690 -20 hstem
          173.5 114.5 vstem
          8 109 rmoveto
          -15 -113 166 17 -43 -186 rlineto
          108 hlineto
          9 186 164 -17 16 113 -169 -18 41 169 6 165 164 -18 16 113 -169 -17 43 183 rlineto
          -108 hlineto
          -9 -183 -162 17 -16 -113 167 18 -40 -165 -7 -169 rlineto
          endchar
        </CharString>
        <CharString name="dcaron">
          21 -12 109 -97 97 332 109 11 137 -137 174 hstemhm
          36 121 hintmask 10110100
          36 174 rmoveto
          -123 53 -63 90 49 46 25 63 37 vhcurveto
          hintmask 01001100
          -76 97 vlineto
          100 723 rlineto
          -118 hlineto
          hintmask 10110100
          -37 -254 rlineto
          44 -20 -36 25 -55 hhcurveto
          -103 -103 -110 -254 hvcurveto
          184 -77 rmoveto
          -46 -17 31 58 71 15 172 99 44 17 -33 -58 -74 -18 -167 -94 hvcurveto
          hintmask 10010100
          372 452 rmoveto
          -73 -156 rlineto
          72 hlineto
          90 168 17 125 rlineto
          -138 hlineto
          -19 -137 rlineto
          endchar
        </CharString>
        <CharString name="dcroat">
          -85 -12 109 -97 97 332 109 45 87 -87 140 hstemhm
          36 121 229 118 hintmask 10101100
          36 174 rmoveto
          -123 53 -63 90 49 46 25 63 37 vhcurveto
          hintmask 01101110
          -76 97 vlineto
          80 583 rlineto
          58 hlineto
          hintmask 10110110
          12 87 rlineto
          -58 hlineto
          hintmask 10101110
          8 53 rlineto
          -118 hlineto
          hintmask 10110110
          -8 -53 rlineto
          -131 hlineto
          hintmask 10101100
          -12 -87 rlineto
          131 hlineto
          -17 -114 rlineto
          44 -20 -36 25 -55 hhcurveto
          -103 -103 -110 -254 hvcurveto
          184 -77 rmoveto
          -46 -17 31 58 71 15 172 99 44 17 -33 -58 -74 -18 -167 -94 hvcurveto
          endchar
        </CharString>
        <CharString name="degree">
          -186 414 68 147 69 hstem
          56 68 147 69 vstem
          198 414 rmoveto
          79 63 63 79 79 -63 63 -79 -79 -63 -63 -79 -79 63 -63 79 hvcurveto
          68 vmoveto
          -41 -33 33 41 41 33 32 41 41 32 -32 -41 -41 -32 -33 -41 hvcurveto
          endchar
        </CharString>
        <CharString name="dieresis">
          -313 614 109 hstem
          70 289 vstem
          259 723 rmoveto
          -15 -109 rlineto
          100 hlineto
          15 109 rlineto
          -275 hmoveto
          -14 -109 rlineto
          99 hlineto
          15 109 rlineto
          endchar
        </CharString>
        <CharString name="divide">
          -37 41 110 52 104 52 111 hstem
          25 497 vstem
          252 470 rmoveto
          -16 -111 rlineto
          104 hlineto
          16 111 rlineto
          -316 -163 rmoveto
          -15 -104 rlineto
          482 hlineto
          15 104 rlineto
          -315 -156 rmoveto
          -16 -110 rlineto
          104 hlineto
          16 110 rlineto
          endchar
        </CharString>
        <CharString name="dollar">
          -130 723 -20 hstemhm
          24 116 -68 116 115 119 -93 113 hintmask 10110000
          160 -49 rmoveto
          49 hlineto
          16 116 rlineto
          103 2 94 50 125 vvcurveto
          93 -76 28 -75 28 vhcurveto
          hintmask 10101000
          19 130 rlineto
          32 -10 7 -28 -34 vvcurveto
          113 hlineto
          77 -33 74 -106 13 vhcurveto
          15 108 rlineto
          -49 hlineto
          -15 -107 rlineto
          -100 -5 -82 -56 -102 vvcurveto
          -94 73 -30 64 -26 vhcurveto
          hintmask 11010000
          -20 -142 rlineto
          -28 7 -21 19 38 vvcurveto
          8 4 17 0 vhcurveto
          -114 hlineto
          0 -6 -24 -23 -75 58 -48 94 -11 hvcurveto
          hintmask 10110000
          49 345 rmoveto
          -22 12 -15 16 25 vvcurveto
          31 23 21 30 6 vhcurveto
          15 -243 rmoveto
          27 -15 20 -18 -30 vvcurveto
          -40 -34 -18 -31 -4 vhcurveto
          endchar
        </CharString>
        <CharString name="dotaccent">
          -313 608 115 hstem
          74 124 vstem
          91 723 rmoveto
          -17 -115 rlineto
          107 hlineto
          17 115 rlineto
          endchar
        </CharString>
        <CharString name="dotlessi">
          -358 21 -21 526 -20 hstem
          23 192 vstem
          96 526 rmoveto
          -73 -526 rlineto
          119 hlineto
          73 526 rlineto
          endchar
        </CharString>
        <CharString name="e">
          -130 -12 97 148 87 121 97 hstem
          33 120 155 121 vstem
          33 172 rmoveto
          -125 56 -59 114 124 56 89 105 24 vhcurveto
          -123 hlineto
          -52 -11 -25 -45 -40 hhcurveto
          -40 -15 34 68 7 0 18 2 21 hvcurveto
          263 hlineto
          8 42 3 45 39 vvcurveto
          120 -55 59 -108 -188 -45 -193 -173 vhcurveto
          135 148 rmoveto
          62 14 27 59 50 hhcurveto
          36 13 -29 -53 -5 0 -5 -2 -29 hvcurveto
          endchar
        </CharString>
        <CharString name="eacute">
          -130 -12 97 148 87 121 97 53 132 hstem
          33 120 155 121 vstem
          33 172 rmoveto
          -125 56 -59 114 124 56 89 105 24 vhcurveto
          -123 hlineto
          -52 -11 -25 -45 -40 hhcurveto
          -40 -15 34 68 7 0 18 2 21 hvcurveto
          263 hlineto
          8 42 3 45 39 vvcurveto
          120 -55 59 -108 -188 -45 -193 -173 vhcurveto
          135 148 rmoveto
          62 14 27 59 50 hhcurveto
          36 13 -29 -53 -5 0 -5 -2 -29 hvcurveto
          -8 403 rmoveto
          -86 -132 rlineto
          99 hlineto
          108 129 -1 3 rlineto
          endchar
        </CharString>
        <CharString name="ebreve">
          -130 -12 97 148 87 121 97 78 74 -74 107 hstemhm
          33 120 155 121 hintmask 11101110
          33 172 rmoveto
          -125 56 -59 114 124 56 89 105 24 vhcurveto
          -123 hlineto
          -52 -11 -25 -45 -40 hhcurveto
          -40 -15 34 68 7 0 18 2 21 hvcurveto
          263 hlineto
          8 42 3 45 39 vvcurveto
          120 -55 59 -108 -188 -45 -193 -173 vhcurveto
          135 148 rmoveto
          62 14 27 59 50 hhcurveto
          36 13 -29 -53 -5 0 -5 -2 -29 hvcurveto
          -23 296 rmoveto
          80 57 57 50 7 hvcurveto
          -74 hlineto
          hintmask 11110110
          -14 -4 -27 -19 -34 hhcurveto
          -16 -14 5 6 -9 hvcurveto
          hintmask 11101110
          -9 7 -5 8 -1 7 rrcurveto
          -74 hlineto
          -1 -4 0 -3 -4 vvcurveto
          -47 45 -49 79 vhcurveto
          endchar
        </CharString>
        <CharString name="ecaron">
          -130 -12 97 148 87 121 97 50 135 hstem
          33 120 155 121 vstem
          33 172 rmoveto
          -125 56 -59 114 124 56 89 105 24 vhcurveto
          -123 hlineto
          -52 -11 -25 -45 -40 hhcurveto
          -40 -15 34 68 7 0 18 2 21 hvcurveto
          263 hlineto
          8 42 3 45 39 vvcurveto
          120 -55 59 -108 -188 -45 -193 -173 vhcurveto
          135 148 rmoveto
          62 14 27 59 50 hhcurveto
          36 13 -29 -53 -5 0 -5 -2 -29 hvcurveto
          -149 403 rmoveto
          67 -135 rlineto
          98 hlineto
          104 135 rlineto
          -94 hlineto
          -50 -69 -35 69 rlineto
          endchar
        </CharString>
        <CharString name="ecircumflex">
          -130 -12 97 148 87 121 97 50 135 -66 66 hstemhm
          33 120 155 121 hintmask 11110110
          33 172 rmoveto
          -125 56 -59 114 124 56 89 105 24 vhcurveto
          -123 hlineto
          -52 -11 -25 -45 -40 hhcurveto
          -40 -15 34 68 7 0 18 2 21 hvcurveto
          263 hlineto
          8 42 3 45 39 vvcurveto
          120 -55 59 -108 -188 -45 -193 -173 vhcurveto
          135 148 rmoveto
          62 14 27 59 50 hhcurveto
          36 13 -29 -53 -5 0 -5 -2 -29 hvcurveto
          -62 403 rmoveto
          -104 -135 rlineto
          93 hlineto
          hintmask 11101110
          51 69 rlineto
          hintmask 11110110
          34 -69 rlineto
          90 hlineto
          -66 135 rlineto
          endchar
        </CharString>
        <CharString name="edieresis">
          -130 -12 97 148 87 121 97 76 109 hstem
          33 120 155 121 vstem
          33 172 rmoveto
          -125 56 -59 114 124 56 89 105 24 vhcurveto
          -123 hlineto
          -52 -11 -25 -45 -40 hhcurveto
          -40 -15 34 68 7 0 18 2 21 hvcurveto
          263 hlineto
          8 42 3 45 39 vvcurveto
          120 -55 59 -108 -188 -45 -193 -173 vhcurveto
          135 148 rmoveto
          62 14 27 59 50 hhcurveto
          36 13 -29 -53 -5 0 -5 -2 -29 hvcurveto
          25 403 rmoveto
          -15 -109 rlineto
          100 hlineto
          15 109 rlineto
          -275 hmoveto
          -14 -109 rlineto
          99 hlineto
          15 109 rlineto
          endchar
        </CharString>
        <CharString name="edotaccent">
          -130 -12 97 148 87 121 97 70 115 hstem
          33 120 155 121 vstem
          33 172 rmoveto
          -125 56 -59 114 124 56 89 105 24 vhcurveto
          -123 hlineto
          -52 -11 -25 -45 -40 hhcurveto
          -40 -15 34 68 7 0 18 2 21 hvcurveto
          263 hlineto
          8 42 3 45 39 vvcurveto
          120 -55 59 -108 -188 -45 -193 -173 vhcurveto
          135 148 rmoveto
          62 14 27 59 50 hhcurveto
          36 13 -29 -53 -5 0 -5 -2 -29 hvcurveto
          -66 403 rmoveto
          -17 -115 rlineto
          107 hlineto
          17 115 rlineto
          endchar
        </CharString>
        <CharString name="egrave">
          -130 -12 97 148 87 121 97 53 132 hstem
          33 120 155 121 vstem
          33 172 rmoveto
          -125 56 -59 114 124 56 89 105 24 vhcurveto
          -123 hlineto
          -52 -11 -25 -45 -40 hhcurveto
          -40 -15 34 68 7 0 18 2 21 hvcurveto
          263 hlineto
          8 42 3 45 39 vvcurveto
          120 -55 59 -108 -188 -45 -193 -173 vhcurveto
          135 148 rmoveto
          62 14 27 59 50 hhcurveto
          36 13 -29 -53 -5 0 -5 -2 -29 hvcurveto
          -152 400 rmoveto
          90 -129 rlineto
          99 hlineto
          -67 132 rlineto
          -120 hlineto
          endchar
        </CharString>
        <CharString name="eight">
          -130 -12 100 213 99 198 100 hstemhm
          21 124 -65 119 97 122 -90 121 hintmask 11110100
          21 149 rmoveto
          -92 53 -69 128 144 72 111 126 56 -20 45 -47 26 vhcurveto
          hintmask 11101010
          62 40 36 76 70 vvcurveto
          84 -51 76 -118 -128 -72 -107 -121 -49 17 -43 37 -26 vhcurveto
          hintmask 11110100
          -79 -37 -34 -85 -81 vvcurveto
          hintmask 11101010
          229 251 rmoveto
          -33 -18 23 46 54 20 75 58 32 19 -23 -44 -86 -36 -45 -42 hvcurveto
          hintmask 11110100
          -105 -237 rmoveto
          59 24 79 67 40 20 -27 -49 -89 -38 -48 -52 -39 -22 26 49 vhcurveto
          endchar
        </CharString>
        <CharString name="ellipsis">
          234 0 137 hstem
          36 157 116 157 116 157 vstem
          601 137 rmoveto
          -19 -137 rlineto
          138 hlineto
          19 137 rlineto
          -411 hmoveto
          -19 -137 rlineto
          138 hlineto
          19 137 rlineto
          -411 hmoveto
          -19 -137 rlineto
          138 hlineto
          19 137 rlineto
          endchar
        </CharString>
        <CharString name="emacron">
          -130 -12 97 148 87 121 97 61 87 hstem
          33 120 155 121 vstem
          33 172 rmoveto
          -125 56 -59 114 124 56 89 105 24 vhcurveto
          -123 hlineto
          -52 -11 -25 -45 -40 hhcurveto
          -40 -15 34 68 7 0 18 2 21 hvcurveto
          263 hlineto
          8 42 3 45 39 vvcurveto
          120 -55 59 -108 -188 -45 -193 -173 vhcurveto
          135 148 rmoveto
          62 14 27 59 50 hhcurveto
          36 13 -29 -53 -5 0 -5 -2 -29 hvcurveto
          -146 366 rmoveto
          -13 -87 rlineto
          255 hlineto
          13 87 rlineto
          endchar
        </CharString>
        <CharString name="emdash">
          234 221 98 hstem
          -1 832 vstem
          11 319 rmoveto
          -12 -98 rlineto
          819 hlineto
          13 98 rlineto
          endchar
        </CharString>
        <CharString name="endash">
          -130 221 98 hstem
          -1 468 vstem
          11 319 rmoveto
          -12 -98 rlineto
          455 hlineto
          13 98 rlineto
          endchar
        </CharString>
        <CharString name="eng">
          -85 -182 101 102 -21 429 97 -97 109 hstemhm
          341 122 hintmask 11101000
          96 526 rmoveto
          -73 -526 rlineto
          119 hlineto
          43 316 rlineto
          hintmask 11011000
          73 10 42 40 46 hhcurveto
          41 17 -20 -46 -8 -3 -43 -51 -345 hvcurveto
          -31 -5 -17 -17 -31 hhcurveto
          -43 hlineto
          -12 -89 rlineto
          -6 19 37 -6 30 hhcurveto
          94 36 71 70 10 hvcurveto
          53 372 5 45 27 vvcurveto
          84 -43 51 -84 -68 -44 -36 -46 -31 vhcurveto
          hintmask 11101000
          70 vlineto
          endchar
        </CharString>
        <CharString name="eogonek">
          -130 -185 69 -55 55 -34 -21 159 97 -76 -21 245 87 121 97 hstemhm
          33 120 -9 102 62 121 hintmask 1000111011000000
          144 -108 rmoveto
          -59 45 -18 42 vhcurveto
          hintmask 0010111011000000
          22 22 5 9 24 hvcurveto
          hintmask 0101011011000000
          8 55 rlineto
          -22 hlineto
          -28 -11 18 22 32 25 33 16 16 hvcurveto
          67 31 35 68 18 78 rrcurveto
          -123 hlineto
          hintmask 0011011101000000
          -52 -11 -25 -45 -40 hhcurveto
          -40 -15 34 68 7 0 18 2 21 hvcurveto
          263 hlineto
          8 42 3 45 39 vvcurveto
          120 -55 59 -108 -188 -45 -193 -173 -118 50 -59 102 -7 vhcurveto
          hintmask 1000111011000000
          -23 -24 -18 -29 -43 vvcurveto
          hintmask 0010111011000000
          24 428 rmoveto
          62 14 27 59 50 hhcurveto
          36 13 -29 -53 -5 0 -5 -2 -29 hvcurveto
          endchar
        </CharString>
        <CharString name="equal">
          -107 96 103 109 104 hstem
          10 457 vstem
          55 412 rmoveto
          -15 -104 rlineto
          412 hlineto
          15 104 rlineto
          -442 -213 rmoveto
          -15 -103 rlineto
          412 hlineto
          15 103 rlineto
          endchar
        </CharString>
        <CharString name="equivalence">
          -107 17 103 109 104 109 104 hstem
          -4 486 vstem
          70 546 rmoveto
          -15 -104 rlineto
          412 hlineto
          15 104 rlineto
          -442 -213 rmoveto
          -15 -104 rlineto
          412 hlineto
          15 104 rlineto
          -442 -213 rmoveto
          -14 -103 rlineto
          411 hlineto
          15 103 rlineto
          endchar
        </CharString>
        <CharString name="estimated">
          14 -12 42 218 42 206 42 hstem
          45 108 298 108 vstem
          153 248 rmoveto
          406 5 hlineto
          165 -98 120 -159 -160 -97 -116 -159 -159 97 -116 160 104 78 50 80 42 vhcurveto
          -34 21 rlineto
          -67 -34 -68 -42 -88 hhcurveto
          -62 -50 19 34 -37 hvcurveto
          298 207 rmoveto
          -298 152 hlineto
          34 37 50 20 62 hhcurveto
          61 50 -20 -35 38 hvcurveto
          endchar
        </CharString>
        <CharString name="eth">
          -85 -12 101 348 101 -4 -20 75.5 71 -71 133.5 -112.5 76.5 -23 59 hstemhm
          33 123 183 124 hintmask 1100100110000000
          33 182 rmoveto
          -133 63 -61 123 150 94 118 261 vhcurveto
          hintmask 1100010110000000
          104 -26 78 -31 58 vhcurveto
          76 7 10 73 -131 -12 rlineto
          hintmask 1100100110000000
          -16 20 -15 16 -12 12 rrcurveto
          -124 hlineto
          -2 -4 rlineto
          hintmask 1100001110000000
          11 -13 16 -19 17 -23 rrcurveto
          hintmask 1101000110000000
          -75 -7 rlineto
          hintmask 1010100110000000
          -10 -73 129 11 11 -20 11 -22 7 -19 rlinecurve
          -4 -4 rlineto
          hintmask 1100100110000000
          5 -14 -21 3 -17 hhcurveto
          -117 -103 -123 -233 hvcurveto
          190 -93 rmoveto
          -47 -20 32 62 38 6 216 110 47 20 -33 -61 -38 -6 -216 -110 hvcurveto
          endchar
        </CharString>
        <CharString name="exclam">
          -313 0 137 549 -20 hstem
          34 242 vstem
          123 686 rmoveto
          -34 -489 rlineto
          82 hlineto
          105 489 rlineto
          -222 -549 rmoveto
          -20 -137 rlineto
          138 hlineto
          20 137 rlineto
          endchar
        </CharString>
        <CharString name="exclamdbl">
          -40 0 137 549 -20 hstem
          35 515 vstem
          397 686 rmoveto
          -34 -489 rlineto
          82 hlineto
          105 489 rlineto
          -426 hmoveto
          -34 -489 rlineto
          82 hlineto
          105 489 rlineto
          51 -549 rmoveto
          -20 -137 rlineto
          138 hlineto
          20 137 rlineto
          -411 hmoveto
          -20 -137 rlineto
          138 hlineto
          20 137 rlineto
          endchar
        </CharString>
        <CharString name="exclamdown">
          -313 389 137 hstem
          8 243 vstem
          113 526 rmoveto
          -20 -137 rlineto
          138 hlineto
          20 137 rlineto
          -139 -197 rmoveto
          -104 -489 rlineto
          153 hlineto
          33 489 rlineto
          endchar
        </CharString>
        <CharString name="f">
          -313 -182 101 506 101 104 101 hstemhm
          -85 418 -231.5 118.5 hintmask 11110000
          83 425 rmoveto
          -60 -458 rlineto
          -31 -4 -17 -17 -30 hhcurveto
          -44 hlineto
          -13 -89 rlineto
          -6 20 37 -6 29 hhcurveto
          hintmask 11101000
          93 37 71 70 9 hvcurveto
          62 466 rlineto
          90 hlineto
          14 101 rlineto
          -90 hlineto
          8 61 rlineto
          28 4 17 15 27 hhcurveto
          48 hlineto
          13 89 rlineto
          6 -19 -38 6 -27 hhcurveto
          -95 -38 -71 -70 -10 hvcurveto
          -9 -64 rlineto
          -52 hlineto
          -14 -101 rlineto
          endchar
        </CharString>
        <CharString name="five">
          -130 -12 100 260 98 128 112 hstem
          24 124 160 124 vstem
          24 168 rmoveto
          -113 68 -67 113 126 101 106 184 114 -59 54 -80 -47 -33 -18 -16 -22 vhcurveto
          33 162 rlineto
          224 hlineto
          16 112 rlineto
          -329 hlineto
          -76 -380 113 -16 rlineto
          33 19 25 25 37 hhcurveto
          32 23 -31 -57 -113 -51 -59 -47 -40 -22 34 55 11 1 12 2 13 hvcurveto
          -124 hlineto
          -2 -16 -1 -15 -14 vvcurveto
          endchar
        </CharString>
        <CharString name="fiveeighths">
          98 0 68 -59 -21 194 67 23 67 15 68 59 65 -17 -20 102 75 12 -20 hstemhm
          32 83 84 83 110 83 -48 79 47 83 -65 82 hintmask 1010101101110100
          392 97 rmoveto
          -55 31 -42 79 89 45 66 77 31 -12 27 -24 16 vhcurveto
          hintmask 1010101101101010
          33 24 20 42 44 vvcurveto
          54 -33 41 -69 -76 -48 -62 -72 -28 9 -27 18 -17 vhcurveto
          hintmask 1010101101110100
          -42 -23 -20 -49 -47 vvcurveto
          hintmask 1010101101101010
          114 186 rmoveto
          28 9 43 32 17 7 -11 -22 -47 -16 -25 -23 -17 -9 12 22 vhcurveto
          hintmask 1010101011110100
          -31 -175 rmoveto
          34 14 40 33 20 11 -14 -25 -50 -20 -25 -27 -20 -11 13 27 vhcurveto
          87 590 rmoveto
          hintmask 0111110011110100
          -494 -710 rlineto
          67 hlineto
          493 710 rlineto
          -485 -426 rmoveto
          78 61 63 110 68 -36 33 -50 hvcurveto
          hintmask 1010101101110100
          -21 -21 -10 -7 -11 hvcurveto
          15 82 rlineto
          132 hlineto
          11 75 rlineto
          -202 hlineto
          hintmask 1011110101110100
          -46 -229 74 -12 rlineto
          21 11 14 15 20 hhcurveto
          16 11 -17 -29 -63 -27 -33 -24 -21 -12 17 27 6 1 6 1 7 hvcurveto
          -83 hlineto
          -1 -9 -1 -8 -8 vvcurveto
          hintmask 0111110011110100
          -66 42 -39 69 vhcurveto
          endchar
        </CharString>
        <CharString name="florin">
          -130 -182 101 467 101 143 101 hstem
          -64 546 vstem
          180 386 rmoveto
          -118 -424 rlineto
          -28 -8 -18 -15 -27 hhcurveto
          -48 hlineto
          -25 -89 rlineto
          -6 18 35 -6 28 hhcurveto
          95 48 71 70 20 hvcurveto
          119 427 rlineto
          90 hlineto
          28 101 rlineto
          -90 hlineto
          28 100 rlineto
          28 8 17 15 28 hhcurveto
          48 hlineto
          26 89 rlineto
          6 -18 -36 6 -28 hhcurveto
          -95 -48 -71 -70 -20 hvcurveto
          -29 -103 rlineto
          -72 hlineto
          -28 -101 rlineto
          endchar
        </CharString>
        <CharString name="four">
          -130 21 -21 155 101 442 -20 hstem
          3 446 vstem
          3 155 rmoveto
          244 hlineto
          -22 -155 rlineto
          119 hlineto
          22 155 rlineto
          69 hlineto
          14 101 rlineto
          -70 hlineto
          44 308 rlineto
          -53 hlineto
          -19 -53 -40 -81 -33 -52 -17 -122 rcurveline
          -142 hlineto
          46 54 141 210 63 178 rrcurveto
          -122 hlineto
          -62 -152 -80 -168 -88 -127 rrcurveto
          endchar
        </CharString>
        <CharString name="fraction">
          -449 9 -21 710 -20 hstem
          -215 560 vstem
          -215 -12 rmoveto
          67 hlineto
          493 710 rlineto
          -66 hlineto
          endchar
        </CharString>
        <CharString name="franc">
          -82 21 -21 285 114 -34 124 83 114 hstemhm
          9 524 hintmask 11011000
          352 hmoveto
          34 244 rlineto
          hintmask 10111000
          93 13 44 28 47 hhcurveto
          28 hlineto
          15 116 rlineto
          0 -13 8 -25 -50 -29 -49 -43 -19 vhcurveto
          80 -97 vlineto
          hintmask 11011000
          -11 -78 rlineto
          -99 hlineto
          25 173 rlineto
          222 hlineto
          16 114 rlineto
          -349 hlineto
          -95 -686 rlineto
          125 hlineto
          40 285 rlineto
          99 hlineto
          -39 -285 rlineto
          endchar
        </CharString>
        <CharString name="g">
          -85 -182 101 -101 158 38 103 312 109 -12 -20 hstemhm
          7 122 -93 122 hintmask 10110010
          241 538 rmoveto
          -159 -46 -220 -131 -121 65 -52 80 47 44 27 38 28 hvcurveto
          -8 -54 rlineto
          hintmask 10110100
          -71 -11 -34 -35 -55 hhcurveto
          -22 -16 5 10 -10 hvcurveto
          hintmask 01110100
          -10 10 -5 14 18 vvcurveto
          -122 hlineto
          hintmask 10101100
          -84 57 -74 120 129 77 67 164 23 vhcurveto
          67 477 rlineto
          -94 hlineto
          hintmask 10110010
          -23 -70 rlineto
          57 -23 -45 25 -54 hhcurveto
          -18 -421 rmoveto
          -42 -23 27 52 68 14 165 96 46 19 -33 -58 -68 -20 -153 -90 hvcurveto
          endchar
        </CharString>
        <CharString name="gbreve">
          -85 -182 101 -101 158 38 103 312 109 -12 -20 110 74 -74 107 hstemhm
          7 122 -93 122 hintmask 1011001010000000
          301 616 rmoveto
          80 57 57 50 7 hvcurveto
          -74 hlineto
          hintmask 1011010010000000
          -14 -4 -27 -19 -34 hhcurveto
          -16 -14 5 6 -9 hvcurveto
          hintmask 1011001010000000
          -9 7 -5 8 -1 7 rrcurveto
          -74 hlineto
          -1 -4 0 -3 -4 vvcurveto
          -47 45 -49 79 vhcurveto
          -60 -78 rmoveto
          -159 -46 -220 -131 -121 65 -52 80 47 44 27 38 28 hvcurveto
          -8 -54 rlineto
          hintmask 1011001100000000
          -71 -11 -34 -35 -55 hhcurveto
          -22 -16 5 10 -10 hvcurveto
          hintmask 0111001100000000
          -10 10 -5 14 18 vvcurveto
          -122 hlineto
          hintmask 1010101100000000
          -84 57 -74 120 129 77 67 164 23 vhcurveto
          67 477 rlineto
          -94 hlineto
          hintmask 1011001010000000
          -23 -70 rlineto
          57 -23 -45 25 -54 hhcurveto
          -18 -421 rmoveto
          -42 -23 27 52 68 14 165 96 46 19 -33 -58 -68 -20 -153 -90 hvcurveto
          endchar
        </CharString>
        <CharString name="gcircumflex">
          -85 -182 101 -101 158 38 103 312 109 -12 -20 82 135 -66 66 hstemhm
          7 122 -93 122 hintmask 1011010010000000
          262 723 rmoveto
          -104 -135 rlineto
          93 hlineto
          hintmask 1011001010000000
          51 69 rlineto
          hintmask 1011010010000000
          34 -69 rlineto
          90 hlineto
          -66 135 rlineto
          -119 -185 rmoveto
          -159 -46 -220 -131 -121 65 -52 80 47 44 27 38 28 hvcurveto
          -8 -54 rlineto
          hintmask 1011010100000000
          -71 -11 -34 -35 -55 hhcurveto
          -22 -16 5 10 -10 hvcurveto
          hintmask 0111010100000000
          -10 10 -5 14 18 vvcurveto
          -122 hlineto
          hintmask 1010110100000000
          -84 57 -74 120 129 77 67 164 23 vhcurveto
          67 477 rlineto
          -94 hlineto
          hintmask 1011010010000000
          -23 -70 rlineto
          57 -23 -45 25 -54 hhcurveto
          -18 -421 rmoveto
          -42 -23 27 52 68 14 165 96 46 19 -33 -58 -68 -20 -153 -90 hvcurveto
          endchar
        </CharString>
        <CharString name="gcommaaccent">
          -85 -182 101 -101 158 38 103 312 109 -12 -20 84 123 hstemhm
          7 122 -93 122 hintmask 10110101
          225 590 rmoveto
          124 hlineto
          17 123 rlineto
          -45 hlineto
          46 85 rlineto
          -65 hlineto
          -61 -96 rlineto
          -164 vmoveto
          -159 -46 -220 -131 -121 65 -52 80 47 44 27 38 28 hvcurveto
          -8 -54 rlineto
          hintmask 10110110
          -71 -11 -34 -35 -55 hhcurveto
          -22 -16 5 10 -10 hvcurveto
          hintmask 01110110
          -10 10 -5 14 18 vvcurveto
          -122 hlineto
          hintmask 10101110
          -84 57 -74 120 129 77 67 164 23 vhcurveto
          67 477 rlineto
          -94 hlineto
          hintmask 10110101
          -23 -70 rlineto
          57 -23 -45 25 -54 hhcurveto
          -18 -421 rmoveto
          -42 -23 27 52 68 14 165 96 46 19 -33 -58 -68 -20 -153 -90 hvcurveto
          endchar
        </CharString>
        <CharString name="gdotaccent">
          -85 -182 101 -101 158 38 103 312 109 -12 -20 102 115 hstemhm
          7 122 -93 122 hintmask 10110101
          258 723 rmoveto
          -17 -115 rlineto
          107 hlineto
          17 115 rlineto
          -124 -185 rmoveto
          -159 -46 -220 -131 -121 65 -52 80 47 44 27 38 28 hvcurveto
          -8 -54 rlineto
          hintmask 10110110
          -71 -11 -34 -35 -55 hhcurveto
          -22 -16 5 10 -10 hvcurveto
          hintmask 01110110
          -10 10 -5 14 18 vvcurveto
          -122 hlineto
          hintmask 10101110
          -84 57 -74 120 129 77 67 164 23 vhcurveto
          67 477 rlineto
          -94 hlineto
          hintmask 10110101
          -23 -70 rlineto
          57 -23 -45 25 -54 hhcurveto
          -18 -421 rmoveto
          -42 -23 27 52 68 14 165 96 46 19 -33 -58 -68 -20 -153 -90 hvcurveto
          endchar
        </CharString>
        <CharString name="germandbls">
          -85 0 102 222 113 197 101 hstemhm
          355 121 -96 122 hintmask 11110000
          17 hmoveto
          117 hlineto
          74 528 rlineto
          hintmask 11101000
          68 9 40 38 54 hhcurveto
          46 23 -30 -44 -65 -46 -58 -43 hvcurveto
          -49 hlineto
          -16 -113 rlineto
          hintmask 11110000
          52 hlineto
          45 32 -42 -54 -66 -53 -60 -55 hvcurveto
          -51 hlineto
          -14 -102 rlineto
          74 hlineto
          126 94 117 113 73 -36 65 -56 23 hvcurveto
          4 vlineto
          hintmask 11101000
          69 25 49 76 73 vvcurveto
          105 -74 61 -109 -113 -97 -62 -153 -21 vhcurveto
          endchar
        </CharString>
        <CharString name="grave">
          -313 591 132 hstem
          86 189 vstem
          86 720 rmoveto
          90 -129 rlineto
          99 hlineto
          -67 132 rlineto
          -120 hlineto
          endchar
        </CharString>
        <CharString name="greater">
          -107 12 -21 540 -20 hstem
          -3 457 vstem
          12 109 rmoveto
          -15 -118 440 206 17 127 -383 207 -16 -118 290 -152 rlineto
          endchar
        </CharString>
        <CharString name="greaterequal">
          -37 0 103 hstem
          20 479 vstem
          57 262 rmoveto
          -16 -118 441 206 17 127 -382 207 -17 -118 290 -152 rlineto
          -355 -311 rmoveto
          -15 -103 rlineto
          412 hlineto
          15 103 rlineto
          endchar
        </CharString>
        <CharString name="guillemotleft">
          -130 326 200 hstemhm
          28 438 hintmask 11000000
          211 326 rmoveto
          107 -200 rlineto
          91 hlineto
          -79 200 136 200 rlineto
          -95 hlineto
          -343 -200 rmoveto
          107 -200 rlineto
          91 hlineto
          -79 200 136 200 rlineto
          -95 hlineto
          endchar
        </CharString>
        <CharString name="guillemotright">
          -130 326 200 hstemhm
          9 438 hintmask 11000000
          328 326 rmoveto
          -137 -200 rlineto
          95 hlineto
          161 200 -108 200 rlineto
          -91 hlineto
          -103 -200 rmoveto
          -136 -200 rlineto
          94 hlineto
          161 200 -108 200 rlineto
          -91 hlineto
          endchar
        </CharString>
        <CharString name="guilsinglleft">
          -313 526 -20 hstem
          32 255 vstem
          32 326 rmoveto
          107 -200 rlineto
          91 hlineto
          -79 200 136 200 rlineto
          -95 hlineto
          endchar
        </CharString>
        <CharString name="guilsinglright">
          -313 526 -20 hstem
          12 255 vstem
          148 326 rmoveto
          -136 -200 rlineto
          94 hlineto
          161 200 -108 200 rlineto
          -91 hlineto
          endchar
        </CharString>
        <CharString name="h">
          -85 21 -21 429 109 185 -20 hstem
          341 122 vstem
          123 723 rmoveto
          -100 -723 rlineto
          119 hlineto
          44 316 rlineto
          73 10 41 40 46 hhcurveto
          41 17 -20 -46 -8 -1 -9 -48 -346 hvcurveto
          118 hlineto
          50 372 3 4 27 vvcurveto
          84 -43 51 -84 -59 -40 -29 -38 -31 vhcurveto
          36 252 rlineto
          endchar
        </CharString>
        <CharString name="hbar">
          -85 21 -21 429 109 45 87 -87 140 hstemhm
          119.5 118.5 103 122 hintmask 11011100
          123 723 rmoveto
          hintmask 11101100
          -7 -53 rlineto
          -58 hlineto
          hintmask 11011100
          -13 -87 rlineto
          59 hlineto
          -81 -583 rlineto
          119 hlineto
          44 316 rlineto
          73 10 41 40 46 hhcurveto
          41 17 -20 -46 -8 -1 -9 -48 -346 hvcurveto
          118 hlineto
          50 372 3 4 27 vvcurveto
          84 -43 51 -84 -59 -40 -29 -38 -31 vhcurveto
          16 112 rlineto
          130 hlineto
          hintmask 11101100
          12 87 rlineto
          -130 hlineto
          hintmask 11011100
          8 53 rlineto
          endchar
        </CharString>
        <CharString name="hcircumflex">
          -85 21 -21 429 109 185 -20 45 135 hstemhm
          341 122 hintmask 11101000
          123 723 rmoveto
          -100 -723 rlineto
          119 hlineto
          44 316 rlineto
          73 10 41 40 46 hhcurveto
          41 17 -20 -46 -8 -1 -9 -48 -346 hvcurveto
          118 hlineto
          50 372 3 4 27 vvcurveto
          84 -43 51 -84 -59 -40 -29 -38 -31 vhcurveto
          36 252 rlineto
          hintmask 11111000
          -88 160 rmoveto
          -104 -135 rlineto
          93 hlineto
          51 69 34 -69 rlineto
          90 hlineto
          -66 135 rlineto
          endchar
        </CharString>
        <CharString name="house">
          14 0 89 hstem
          36 493 vstem
          339 563 rmoveto
          -260 -253 -43 -310 rlineto
          449 hlineto
          44 310 rlineto
          -209 118 rmoveto
          112 -151 -26 -188 rlineto
          -265 hlineto
          26 188 rlineto
          endchar
        </CharString>
        <CharString name="hungarumlaut">
          -313 591 132 hstem
          4 303 vstem
          206 723 rmoveto
          -62 -132 rlineto
          79 hlineto
          84 129 -1 3 rlineto
          -240 hmoveto
          -62 -132 rlineto
          79 hlineto
          84 129 -1 3 rlineto
          endchar
        </CharString>
        <CharString name="hyphen">
          -313 211 118 hstem
          13 258 vstem
          30 329 rmoveto
          -17 -118 rlineto
          241 hlineto
          17 118 rlineto
          endchar
        </CharString>
        <CharString name="i">
          -358 21 -21 526 -20 108 109 hstem
          23 219 vstem
          123 723 rmoveto
          -15 -109 rlineto
          119 hlineto
          15 109 rlineto
          -146 -197 rmoveto
          -73 -526 rlineto
          119 hlineto
          73 526 rlineto
          endchar
        </CharString>
        <CharString name="iacute">
          -358 21 -21 526 -20 85 132 hstem
          23 285 vstem
          96 526 rmoveto
          -73 -526 rlineto
          119 hlineto
          73 526 rlineto
          -28 197 rmoveto
          -86 -132 rlineto
          99 hlineto
          108 129 -1 3 rlineto
          endchar
        </CharString>
        <CharString name="ibreve">
          -358 21 -21 526 -20 110 74 -74 107 hstemhm
          23 293 hintmask 11011000
          96 526 rmoveto
          -73 -526 rlineto
          119 hlineto
          73 526 rlineto
          -43 90 rmoveto
          80 57 57 50 7 hvcurveto
          -74 hlineto
          hintmask 11101000
          -14 -4 -27 -19 -34 hhcurveto
          -16 -14 5 6 -9 hvcurveto
          hintmask 11011000
          -9 7 -5 8 -1 7 rrcurveto
          -74 hlineto
          -1 -4 0 -3 -4 vvcurveto
          -47 45 -49 79 vhcurveto
          endchar
        </CharString>
        <CharString name="icircumflex">
          -358 21 -21 526 -20 82 135 -66 66 hstemhm
          23 274 hintmask 11101000
          96 526 rmoveto
          -73 -526 rlineto
          119 hlineto
          73 526 rlineto
          -82 197 rmoveto
          -104 -135 rlineto
          93 hlineto
          hintmask 11011000
          51 69 rlineto
          hintmask 11101000
          34 -69 rlineto
          90 hlineto
          -66 135 rlineto
          endchar
        </CharString>
        <CharString name="idieresis">
          -358 21 -21 526 -20 108 109 hstem
          23 297 vstem
          96 526 rmoveto
          -73 -526 rlineto
          119 hlineto
          73 526 rlineto
          5 197 rmoveto
          -15 -109 rlineto
          100 hlineto
          15 109 rlineto
          -275 hmoveto
          -14 -109 rlineto
          99 hlineto
          15 109 rlineto
          endchar
        </CharString>
        <CharString name="igrave">
          -358 21 -21 526 -20 85 132 hstem
          23 210 vstem
          96 526 rmoveto
          -73 -526 rlineto
          119 hlineto
          73 526 rlineto
          -171 194 rmoveto
          90 -129 rlineto
          99 hlineto
          -67 132 rlineto
          -120 hlineto
          endchar
        </CharString>
        <CharString name="ij">
          -130 -182 101 102 -21 526 -20 108 109 hstem
          23 446 vstem
          123 723 rmoveto
          -15 -109 rlineto
          119 hlineto
          15 109 rlineto
          -146 -197 rmoveto
          -73 -526 rlineto
          119 hlineto
          73 526 rlineto
          136 197 rmoveto
          -15 -109 rlineto
          118 hlineto
          15 109 rlineto
          -146 -197 rmoveto
          -77 -559 rlineto
          -31 -5 -17 -17 -31 hhcurveto
          -43 hlineto
          -12 -89 rlineto
          -6 19 37 -6 30 hhcurveto
          94 35 71 70 10 hvcurveto
          79 567 rlineto
          endchar
        </CharString>
        <CharString name="imacron">
          -358 21 -21 526 -20 93 87 hstem
          23 281 vstem
          96 526 rmoveto
          -73 -526 rlineto
          119 hlineto
          73 526 rlineto
          -166 160 rmoveto
          -13 -87 rlineto
          255 hlineto
          13 87 rlineto
          endchar
        </CharString>
        <CharString name="infinity">
          127 138 83 154 82 hstem
          44 95 431 96 vstem
          173 138 rmoveto
          68 50 38 56 53 hvcurveto
          -83 55 60 -11 45 hhcurveto
          96 66 96 91 82 -58 50 -74 -78 -50 -58 -32 -35 hvcurveto
          59 -40 -46 31 -74 hhcurveto
          -87 -80 -75 -107 -85 58 -52 71 hvcurveto
          233 164 rmoveto
          38 35 32 35 40 hhcurveto
          36 21 -28 -39 -31 -23 -56 -50 -33 -24 12 65 -37 hvcurveto
          -205 -77 rmoveto
          -36 -23 31 38 55 43 30 34 48 18 -32 -45 24 hvcurveto
          2 -5 rlineto
          -35 -29 -39 -37 -42 hhcurveto
          endchar
        </CharString>
        <CharString name="integral">
          -312 -141 70 79 -21 803 69 hstem
          -47 376 vstem
          45 -13 rmoveto
          -44 -6 -34 -14 -42 hhcurveto
          -10 -70 rlineto
          100 89 17 95 13 hvcurveto
          21 149 58 613 0 vvcurveto
          43 6 36 14 43 hhcurveto
          10 69 rlineto
          -101 -90 -18 -94 -13 hvcurveto
          -21 -150 -59 -610 0 vvcurveto
          endchar
        </CharString>
        <CharString name="integralbt">
          18 -250 69 hstem
          99 329 vstem
          99 -250 rmoveto
          100 89 18 94 14 hvcurveto
          11 80 60 477 55 440 rrcurveto
          -114 hlineto
          -121 -983 rlineto
          -43 -5 -38 -14 -42 hhcurveto
          endchar
        </CharString>
        <CharString name="integraltp">
          18 790 69 hstem
          175 329 vstem
          289 -250 rmoveto
          121 983 rlineto
          43 5 37 14 43 hhcurveto
          9 69 rlineto
          -102 -88 -18 -94 -13 hvcurveto
          -12 -80 -61 -477 -53 -440 rrcurveto
          endchar
        </CharString>
        <CharString name="intersection">
          136 21 -21 579 107 hstem
          533 118 vstem
          407 686 rmoveto
          -156 -141 -118 -158 -22 hvcurveto
          -57 -410 rlineto
          119 hlineto
          58 410 rlineto
          100 14 83 69 88 hhcurveto
          81 59 -57 -85 -8 -1 -10 -1 -9 hvcurveto
          -58 -410 rlineto
          119 hlineto
          56 410 rlineto
          2 14 1 13 13 vvcurveto
          137 -102 99 -142 vhcurveto
          endchar
        </CharString>
        <CharString name="iogonek">
          -358 -190 69 -55 55 -34 -21 197 -21 526 -20 102 115 hstemhm
          -1 102 hintmask 10011110
          -1 -113 rmoveto
          -59 45 -18 42 vhcurveto
          hintmask 00111110
          22 22 5 9 24 hvcurveto
          hintmask 01011110
          8 55 rlineto
          -22 hlineto
          -28 -11 18 22 32 25 33 16 16 hvcurveto
          73 526 rlineto
          -119 hlineto
          -73 -526 rlineto
          34 hlineto
          hintmask 10011110
          -31 -26 -27 -34 -53 vvcurveto
          hintmask 00111110
          130 836 rmoveto
          -17 -115 rlineto
          107 hlineto
          17 115 rlineto
          endchar
        </CharString>
        <CharString name="itilde">
          -358 21 -21 526 -20 95 85 -48 85 hstemhm
          3 348 hintmask 11011000
          96 526 rmoveto
          -73 -526 rlineto
          119 hlineto
          73 526 rlineto
          hintmask 11101000
          -148 75 rmoveto
          hintmask 11011000
          27 8 15 10 21 hhcurveto
          hintmask 11101000
          44 34 -37 47 hhcurveto
          hintmask 11011000
          71 44 67 55 hvcurveto
          -65 hlineto
          hintmask 11101000
          -28 -8 -15 -9 -21 hhcurveto
          -22 -19 9 10 -20 hvcurveto
          hintmask 11011000
          9 -20 -21 9 -24 hhcurveto
          -35 -28 -17 -24 -20 hvcurveto
          hintmask 11101000
          -19 -24 -11 -30 -27 vvcurveto
          endchar
        </CharString>
        <CharString name="j">
          -358 -182 101 607 -20 108 109 hstem
          -90 331 vstem
          123 723 rmoveto
          -15 -109 rlineto
          118 hlineto
          15 109 rlineto
          -146 -197 rmoveto
          -77 -559 rlineto
          -31 -5 -17 -17 -31 hhcurveto
          -43 hlineto
          -12 -89 rlineto
          -6 19 37 -6 30 hhcurveto
          94 35 71 70 10 hvcurveto
          79 567 rlineto
          endchar
        </CharString>
        <CharString name="jcircumflex">
          -358 -182 101 607 -20 82 135 -66 66 hstemhm
          -90 385 hintmask 11101000
          95 526 rmoveto
          -77 -559 rlineto
          -31 -5 -17 -17 -31 hhcurveto
          -43 hlineto
          -12 -89 rlineto
          -6 19 37 -6 30 hhcurveto
          94 35 71 70 10 hvcurveto
          79 567 rlineto
          -83 197 rmoveto
          -104 -135 rlineto
          93 hlineto
          hintmask 11011000
          51 69 rlineto
          hintmask 11101000
          34 -69 rlineto
          90 hlineto
          -66 135 rlineto
          endchar
        </CharString>
        <CharString name="k">
          -130 21 -21 526 -20 217 -20 hstem
          23 465 vstem
          123 723 rmoveto
          -100 -723 rlineto
          119 hlineto
          22 160 56 55 76 -215 rlineto
          126 hlineto
          -118 310 184 216 rlineto
          -135 hlineto
          -166 -197 55 394 rlineto
          endchar
        </CharString>
        <CharString name="kcommaaccent">
          -130 -178 123 76 -21 526 -20 217 -20 hstem
          23 465 vstem
          123 723 rmoveto
          -100 -723 rlineto
          119 hlineto
          22 160 56 55 76 -215 rlineto
          126 hlineto
          -118 310 184 216 rlineto
          -135 hlineto
          -166 -197 55 394 rlineto
          16 -778 rmoveto
          -124 hlineto
          -17 -123 rlineto
          45 hlineto
          -46 -85 rlineto
          65 hlineto
          61 96 rlineto
          endchar
        </CharString>
        <CharString name="kgreenlandic">
          -122 21 -21 525 -20 21 -20 hstemhm
          23 465 hintmask 11010000
          96 525 rmoveto
          -73 -525 rlineto
          119 hlineto
          22 160 56 55 76 -215 rlineto
          126 hlineto
          -118 310 rlineto
          hintmask 10110000
          184 216 rlineto
          -135 hlineto
          -166 -197 rlineto
          hintmask 11010000
          27 196 rlineto
          endchar
        </CharString>
        <CharString name="l">
          -358 21 -21 723 -20 hstem
          22 219 vstem
          122 723 rmoveto
          -100 -723 rlineto
          119 hlineto
          100 723 rlineto
          endchar
        </CharString>
        <CharString name="lacute">
          -358 21 -21 723 -20 48 132 hstemhm
          22 308 hintmask 11010000
          122 723 rmoveto
          -100 -723 rlineto
          119 hlineto
          100 723 rlineto
          hintmask 11110000
          -32 160 rmoveto
          -86 -132 rlineto
          99 hlineto
          108 129 -1 3 rlineto
          endchar
        </CharString>
        <CharString name="lcaron">
          -261 21 -21 549 137 -137 174 hstemhm
          22 405 hintmask 10110000
          122 723 rmoveto
          -100 -723 rlineto
          119 hlineto
          100 723 rlineto
          hintmask 11010000
          80 -174 rmoveto
          -73 -156 rlineto
          72 hlineto
          90 168 17 125 rlineto
          -138 hlineto
          -19 -137 rlineto
          endchar
        </CharString>
        <CharString name="lcommaaccent">
          -358 -178 123 76 -21 723 -20 hstem
          -7 248 vstem
          122 723 rmoveto
          -100 -723 rlineto
          119 hlineto
          100 723 rlineto
          -106 -778 rmoveto
          -124 hlineto
          -17 -123 rlineto
          45 hlineto
          -46 -85 rlineto
          65 hlineto
          61 96 rlineto
          endchar
        </CharString>
        <CharString name="ldot">
          -252 21 -21 278 131 314 -20 hstem
          22 345 vstem
          122 723 rmoveto
          -100 -723 rlineto
          119 hlineto
          100 723 rlineto
          5 -314 rmoveto
          -19 -131 rlineto
          121 hlineto
          19 131 rlineto
          endchar
        </CharString>
        <CharString name="less">
          -107 12 -21 540 -20 hstem
          25 458 vstem
          42 324 rmoveto
          -17 -127 383 -206 16 118 -289 152 332 152 16 118 rlineto
          endchar
        </CharString>
        <CharString name="lessequal">
          -37 0 103 hstem
          20 509 vstem
          87 477 rmoveto
          -17 -127 383 -206 16 118 -289 152 332 152 17 118 rlineto
          -494 -581 rmoveto
          -15 -103 rlineto
          412 hlineto
          15 103 rlineto
          endchar
        </CharString>
        <CharString name="lira">
          -130 0 108 115 85 41 85 163 101 hstem
          364 117 vstem
          15 108 rmoveto
          -15 -108 rlineto
          400 hlineto
          16 108 rlineto
          -243 hlineto
          26 115 rlineto
          114 hlineto
          12 85 rlineto
          -113 hlineto
          6 41 rlineto
          113 hlineto
          11 85 rlineto
          -113 hlineto
          13 91 rlineto
          48 7 26 24 36 hhcurveto
          32 21 -20 -39 -7 -1 -7 -3 -25 hvcurveto
          118 hlineto
          2 19 1 14 13 vvcurveto
          102 -62 51 -103 -108 -69 -66 -133 -20 vhcurveto
          -10 -65 rlineto
          -61 hlineto
          -11 -85 rlineto
          62 hlineto
          -6 -41 rlineto
          -62 hlineto
          -11 -85 rlineto
          61 hlineto
          -16 -115 rlineto
          endchar
        </CharString>
        <CharString name="logicalnot">
          -107 350 113 hstem
          40 432 vstem
          56 463 rmoveto
          -16 -113 rlineto
          305 hlineto
          -23 -163 rlineto
          111 hlineto
          39 276 rlineto
          endchar
        </CharString>
        <CharString name="longs">
          -358 -182 101 506 101 104 101 hstem
          -85 418 vstem
          83 425 rmoveto
          -60 -458 rlineto
          -31 -4 -17 -17 -30 hhcurveto
          -44 hlineto
          -13 -89 rlineto
          -6 20 37 -6 29 hhcurveto
          93 37 71 70 9 hvcurveto
          84 628 rlineto
          28 4 17 15 27 hhcurveto
          48 hlineto
          13 89 rlineto
          6 -19 -38 6 -27 hhcurveto
          -95 -38 -71 -70 -10 hvcurveto
          -9 -64 rlineto
          -52 hlineto
          -14 -101 rlineto
          endchar
        </CharString>
        <CharString name="lslash">
          -358 21 -21 723 -20 hstem
          -22 313 vstem
          122 723 rmoveto
          -53 -384 -78 -61 -13 -106 76 60 -32 -232 rlineto
          119 hlineto
          46 336 90 71 14 107 -88 -70 38 279 rlineto
          endchar
        </CharString>
        <CharString name="m">
          143 21 -21 429 97 -97 109 hstemhm
          571 122 hintmask 11010000
          98 526 rmoveto
          -74 -526 rlineto
          119 hlineto
          43 316 rlineto
          hintmask 10110000
          74 10 37 39 41 hhcurveto
          35 13 -23 -35 -20 -2 -5 -47 -346 hvcurveto
          119 hlineto
          42 316 rlineto
          74 10 38 39 40 hhcurveto
          35 14 -23 -35 -20 -2 -5 -48 -346 hvcurveto
          119 hlineto
          51 372 2 4 27 vvcurveto
          84 -40 51 -77 -66 -41 -38 -48 -31 vhcurveto
          54 -13 -37 32 -61 hhcurveto
          -62 -41 -35 -45 -29 hvcurveto
          hintmask 11010000
          68 vlineto
          endchar
        </CharString>
        <CharString name="macron">
          -313 599 87 hstem
          2 268 vstem
          15 686 rmoveto
          -13 -87 rlineto
          255 hlineto
          13 87 rlineto
          endchar
        </CharString>
        <CharString name="minus">
          -107 203 104 hstem
          25 427 vstem
          40 307 rmoveto
          -15 -104 rlineto
          412 hlineto
          15 104 rlineto
          endchar
        </CharString>
        <CharString name="minute">
          -391 506 180 hstem
          73 136 vstem
          98 686 rmoveto
          -25 -180 rlineto
          89 hlineto
          47 177 -1 3 rlineto
          endchar
        </CharString>
        <CharString name="mu">
          -87 -151 -21 160 109 -97 97 429 -20 hstemhm
          -1 483 hintmask 11011000
          118 -172 rmoveto
          hintmask 10111000
          23 171 rlineto
          hintmask 11011000
          -7 14 16 -4 18 hhcurveto
          58 36 35 45 28 hvcurveto
          hintmask 10111000
          -68 98 vlineto
          73 526 rlineto
          -119 hlineto
          -43 -316 rlineto
          hintmask 11011000
          -73 -10 -42 -40 -46 hhcurveto
          -36 -22 20 46 8 2 9 47 346 hvcurveto
          -118 hlineto
          -96 -698 rlineto
          endchar
        </CharString>
        <CharString name="multiply">
          -107 39 435 hstem
          6 476 vstem
          6 111 rmoveto
          62 -72 165 146 126 -146 82 72 -126 145 167 146 -62 72 -166 -146 -125 146 -82 -72 125 -146 rlineto
          endchar
        </CharString>
        <CharString name="n">
          -85 21 -21 429 97 -97 109 hstemhm
          341 122 hintmask 11010000
          96 526 rmoveto
          -73 -526 rlineto
          119 hlineto
          43 316 rlineto
          hintmask 10110000
          73 10 42 40 46 hhcurveto
          41 17 -20 -46 -8 -2 -9 -47 -346 hvcurveto
          118 hlineto
          50 372 3 4 27 vvcurveto
          84 -43 51 -84 -68 -44 -36 -46 -31 vhcurveto
          hintmask 11010000
          70 vlineto
          endchar
        </CharString>
        <CharString name="nacute">
          -85 21 -21 429 97 -97 109 53 132 hstemhm
          341 122 hintmask 11011000
          96 526 rmoveto
          -73 -526 rlineto
          119 hlineto
          43 316 rlineto
          hintmask 10111000
          73 10 42 40 46 hhcurveto
          41 17 -20 -46 -8 -2 -9 -47 -346 hvcurveto
          118 hlineto
          50 372 3 4 27 vvcurveto
          84 -43 51 -84 -68 -44 -36 -46 -31 vhcurveto
          hintmask 11011000
          70 vlineto
          132 197 rmoveto
          -86 -132 rlineto
          99 hlineto
          108 129 -1 3 rlineto
          endchar
        </CharString>
        <CharString name="napostrophe">
          114 21 -21 429 97 -97 109 25 123 hstemhm
          539 122 hintmask 11011000
          257 686 rmoveto
          -124 hlineto
          -17 -123 rlineto
          46 hlineto
          -46 -84 rlineto
          65 hlineto
          60 95 rlineto
          53 -48 rmoveto
          -73 -526 rlineto
          119 hlineto
          43 316 rlineto
          hintmask 10111000
          73 10 42 40 46 hhcurveto
          41 17 -20 -46 -8 -2 -9 -47 -346 hvcurveto
          118 hlineto
          50 372 3 4 27 vvcurveto
          84 -43 51 -84 -68 -44 -36 -46 -31 vhcurveto
          hintmask 11011000
          70 vlineto
          endchar
        </CharString>
        <CharString name="ncaron">
          -85 21 -21 429 97 -97 109 50 135 hstemhm
          341 122 hintmask 11011000
          96 526 rmoveto
          -73 -526 rlineto
          119 hlineto
          43 316 rlineto
          hintmask 10111000
          73 10 42 40 46 hhcurveto
          41 17 -20 -46 -8 -2 -9 -47 -346 hvcurveto
          118 hlineto
          50 372 3 4 27 vvcurveto
          84 -43 51 -84 -68 -44 -36 -46 -31 vhcurveto
          hintmask 11011000
          70 vlineto
          -9 197 rmoveto
          67 -135 rlineto
          98 hlineto
          104 135 rlineto
          -94 hlineto
          -50 -69 -35 69 rlineto
          endchar
        </CharString>
        <CharString name="ncommaaccent">
          -85 -178 123 76 -21 429 97 -97 109 hstemhm
          341 122 hintmask 11101000
          96 526 rmoveto
          -73 -526 rlineto
          119 hlineto
          43 316 rlineto
          hintmask 11011000
          73 10 42 40 46 hhcurveto
          41 17 -20 -46 -8 -2 -9 -47 -346 hvcurveto
          118 hlineto
          50 372 3 4 27 vvcurveto
          84 -43 51 -84 -68 -44 -36 -46 -31 vhcurveto
          hintmask 11101000
          70 vlineto
          81 -581 rmoveto
          -124 hlineto
          -17 -123 rlineto
          45 hlineto
          -46 -85 rlineto
          65 hlineto
          61 96 rlineto
          endchar
        </CharString>
        <CharString name="nine">
          -130 -12 101 166 98 244 101 hstemhm
          38 122 -103 124 145 120 hintmask 11110100
          38 156 rmoveto
          -98 48 -70 114 117 82 89 286 38 vhcurveto
          6 46 3 40 35 vvcurveto
          160 -67 54 -110 vhcurveto
          hintmask 11101100
          -116 -96 -108 -168 -99 44 -68 94 43 42 20 34 27 hvcurveto
          hintmask 11110100
          -134 -20 -18 -86 -62 hhcurveto
          -34 -13 25 46 15 1 17 3 19 hvcurveto
          -122 hlineto
          -3 -19 -1 -18 -18 vvcurveto
          hintmask 11101100
          198 197 rmoveto
          -38 -17 33 50 48 18 113 71 38 18 -34 -50 -92 -37 -68 -53 hvcurveto
          endchar
        </CharString>
        <CharString name="notequal">
          -37 96 103 109 104 hstem
          49 457 vstem
          134 96 rmoveto
          -46 -71 rlineto
          81 hlineto
          46 71 rlineto
          246 hlineto
          15 103 rlineto
          -194 hlineto
          71 109 rlineto
          138 hlineto
          15 104 rlineto
          -86 hlineto
          47 72 rlineto
          -81 hlineto
          -47 -72 rlineto
          -245 hlineto
          -15 -104 rlineto
          193 hlineto
          -71 -109 rlineto
          -137 hlineto
          -15 -103 rlineto
          endchar
        </CharString>
        <CharString name="ntilde">
          -85 21 -21 429 97 -97 109 63 85 -48 85 hstemhm
          141 52 148 122 hintmask 11001110
          96 526 rmoveto
          -73 -526 rlineto
          119 hlineto
          43 316 rlineto
          hintmask 10101110
          73 10 42 40 46 hhcurveto
          41 17 -20 -46 -8 -2 -9 -47 -346 hvcurveto
          118 hlineto
          50 372 3 4 27 vvcurveto
          84 -43 51 -84 -68 -44 -36 -46 -31 vhcurveto
          hintmask 11010110
          70 vlineto
          12 75 rmoveto
          hintmask 10101110
          27 8 15 10 21 hhcurveto
          hintmask 10110110
          44 34 -37 47 hhcurveto
          hintmask 10101110
          71 44 67 55 hvcurveto
          -65 hlineto
          hintmask 10110110
          -28 -8 -15 -9 -21 hhcurveto
          -22 -19 9 10 -20 hvcurveto
          hintmask 10101110
          9 -20 -21 9 -24 hhcurveto
          -35 -28 -17 -24 -20 hvcurveto
          hintmask 10110110
          -19 -24 -11 -30 -27 vvcurveto
          endchar
        </CharString>
        <CharString name="numbersign">
          -130 21 -21 195 84 141 84 194 -20 hstem
          22 445 vstem
          85 195 rmoveto
          -44 -195 rlineto
          88 hlineto
          44 195 rlineto
          75 hlineto
          -44 -195 rlineto
          88 hlineto
          44 195 rlineto
          92 84 -73 hlineto
          31 141 rlineto
          81 84 -62 hlineto
          44 194 rlineto
          -88 hlineto
          -44 -194 rlineto
          -75 hlineto
          44 194 rlineto
          -88 hlineto
          -44 -194 rlineto
          -93 -84 74 hlineto
          -31 -141 rlineto
          -82 -84 hlineto
          245 84 rmoveto
          -75 hlineto
          31 141 rlineto
          75 hlineto
          endchar
        </CharString>
        <CharString name="o">
          -85 -12 101 348 101 hstem
          36 123 183 123 vstem
          36 180 rmoveto
          -131 64 -61 122 199 44 200 155 131 -64 64 -122 -199 -44 -203 -155 vhcurveto
          123 3 rmoveto
          38 6 216 110 47 20 -33 -61 -38 -6 -216 -110 -47 -20 32 62 vhcurveto
          endchar
        </CharString>
        <CharString name="oacute">
          -85 -12 101 348 101 53 132 hstem
          36 123 183 123 vstem
          36 180 rmoveto
          -131 64 -61 122 199 44 200 155 131 -64 64 -122 -199 -44 -203 -155 vhcurveto
          123 3 rmoveto
          38 6 216 110 47 20 -33 -61 -38 -6 -216 -110 -47 -20 32 62 vhcurveto
          161 540 rmoveto
          -86 -132 rlineto
          99 hlineto
          108 129 -1 3 rlineto
          endchar
        </CharString>
        <CharString name="obreve">
          -85 -12 101 348 101 78 74 -74 107 hstemhm
          36 123 183 123 hintmask 11011100
          36 180 rmoveto
          -131 64 -61 122 199 44 200 155 131 -64 64 -122 -199 -44 -203 -155 vhcurveto
          123 3 rmoveto
          38 6 216 110 47 20 -33 -61 -38 -6 -216 -110 -47 -20 32 62 vhcurveto
          146 433 rmoveto
          80 57 57 50 7 hvcurveto
          -74 hlineto
          hintmask 11101100
          -14 -4 -27 -19 -34 hhcurveto
          -16 -14 5 6 -9 hvcurveto
          hintmask 11011100
          -9 7 -5 8 -1 7 rrcurveto
          -74 hlineto
          -1 -4 0 -3 -4 vvcurveto
          -47 45 -49 79 vhcurveto
          endchar
        </CharString>
        <CharString name="ocircumflex">
          -85 -12 101 348 101 50 135 -66 66 hstemhm
          36 123 183 123 hintmask 11101100
          36 180 rmoveto
          -131 64 -61 122 199 44 200 155 131 -64 64 -122 -199 -44 -203 -155 vhcurveto
          123 3 rmoveto
          38 6 216 110 47 20 -33 -61 -38 -6 -216 -110 -47 -20 32 62 vhcurveto
          107 540 rmoveto
          -104 -135 rlineto
          93 hlineto
          hintmask 11011100
          51 69 rlineto
          hintmask 11101100
          34 -69 rlineto
          90 hlineto
          -66 135 rlineto
          endchar
        </CharString>
        <CharString name="odieresis">
          -85 -12 101 348 101 76 109 hstem
          36 123 183 123 vstem
          36 180 rmoveto
          -131 64 -61 122 199 44 200 155 131 -64 64 -122 -199 -44 -203 -155 vhcurveto
          123 3 rmoveto
          38 6 216 110 47 20 -33 -61 -38 -6 -216 -110 -47 -20 32 62 vhcurveto
          194 540 rmoveto
          -15 -109 rlineto
          100 hlineto
          15 109 rlineto
          -275 hmoveto
          -14 -109 rlineto
          99 hlineto
          15 109 rlineto
          endchar
        </CharString>
        <CharString name="oe">
          188 -12 97 -97 101 144 87 117 101 -97 97 hstemhm
          40 123 183 115 155 121 hintmask 01110111
          40 180 rmoveto
          -131 64 -61 122 64 49 23 36 35 vhcurveto
          -40 28 46 -19 63 hhcurveto
          124 56 89 105 24 hvcurveto
          hintmask 10110111
          -123 hlineto
          -52 -11 -25 -45 -40 hhcurveto
          -40 -15 34 68 7 0 18 2 21 hvcurveto
          263 hlineto
          8 42 3 45 39 vvcurveto
          120 -55 59 -108 -63 -47 -24 -37 -35 vhcurveto
          41 -31 -49 20 -66 hhcurveto
          hintmask 01110111
          -199 -44 -203 -155 hvcurveto
          436 140 rmoveto
          hintmask 01101111
          62 14 27 59 50 hhcurveto
          36 13 -29 -53 -5 0 -5 -2 -29 hvcurveto
          -451 -137 rmoveto
          hintmask 01110111
          38 6 216 110 47 20 -33 -61 -38 -6 -216 -110 vhcurveto
          hintmask 01101111
          -47 -20 32 62 hvcurveto
          endchar
        </CharString>
        <CharString name="ogonek">
          -313 -182 69 hstem
          60 102 vstem
          60 -105 rmoveto
          -59 45 -18 42 22 22 5 9 24 vhcurveto
          8 55 rlineto
          -22 hlineto
          -28 -11 18 22 32 25 33 16 16 hvcurveto
          -6 4 rlineto
          -74 hlineto
          -32 -27 -31 -34 -56 vvcurveto
          endchar
        </CharString>
        <CharString name="ograve">
          -85 -12 101 348 101 53 132 hstem
          36 123 183 123 vstem
          36 180 rmoveto
          -131 64 -61 122 199 44 200 155 131 -64 64 -122 -199 -44 -203 -155 vhcurveto
          123 3 rmoveto
          38 6 216 110 47 20 -33 -61 -38 -6 -216 -110 -47 -20 32 62 vhcurveto
          17 537 rmoveto
          90 -129 rlineto
          99 hlineto
          -67 132 rlineto
          -120 hlineto
          endchar
        </CharString>
        <CharString name="ohungarumlaut">
          -85 -12 101 348 101 53 132 hstem
          36 123 183 123 vstem
          36 180 rmoveto
          -131 64 -61 122 199 44 200 155 131 -64 64 -122 -199 -44 -203 -155 vhcurveto
          123 3 rmoveto
          38 6 216 110 47 20 -33 -61 -38 -6 -216 -110 -47 -20 32 62 vhcurveto
          219 540 rmoveto
          -62 -132 rlineto
          79 hlineto
          84 129 -1 3 rlineto
          -240 hmoveto
          -62 -132 rlineto
          79 hlineto
          84 129 -1 3 rlineto
          endchar
        </CharString>
        <CharString name="omacron">
          -85 -12 101 348 101 61 87 hstem
          36 123 183 123 vstem
          36 180 rmoveto
          -131 64 -61 122 199 44 200 155 131 -64 64 -122 -199 -44 -203 -155 vhcurveto
          123 3 rmoveto
          38 6 216 110 47 20 -33 -61 -38 -6 -216 -110 -47 -20 32 62 vhcurveto
          23 503 rmoveto
          -13 -87 rlineto
          255 hlineto
          13 87 rlineto
          endchar
        </CharString>
        <CharString name="one">
          -130 0 101 428 80 77 -20 hstem
          12 424 vstem
          25 101 rmoveto
          -13 -101 rlineto
          410 hlineto
          14 101 rlineto
          -140 hlineto
          82 585 rlineto
          -58 hlineto
          -69 -40 -99 -31 -57 -6 -11 -80 rcurveline
          154 hlineto
          -61 -428 rlineto
          endchar
        </CharString>
        <CharString name="oneeighth">
          98 -12 68 114 67 46 69 -10 68 175 56 45 -20 32 -20 hstemhm
          389 83 -48 79 47 83 -65 82 hintmask 1110101101000000
          472 96 rmoveto
          34 14 40 33 20 11 -14 -25 -50 -20 -25 -27 -20 -11 13 27 vhcurveto
          -83 -11 rmoveto
          -55 31 -42 79 89 45 66 77 31 -12 27 -24 16 vhcurveto
          hintmask 1101101010100000
          33 24 20 42 44 vvcurveto
          54 -33 41 -69 -76 -48 -62 -72 -28 9 -27 18 -17 vhcurveto
          hintmask 1110101101000000
          -42 -23 -20 -49 -47 vvcurveto
          hintmask 1101101010100000
          114 186 rmoveto
          28 9 43 32 17 7 -11 -22 -47 -16 -25 -23 -17 -9 12 22 vhcurveto
          65 427 rmoveto
          -494 -710 rlineto
          67 hlineto
          493 710 rlineto
          hintmask 1110110101000000
          -600 -346 rmoveto
          -10 -69 rlineto
          220 hlineto
          10 69 rlineto
          -66 hlineto
          47 334 rlineto
          -40 hlineto
          -36 -22 -55 -19 -31 -4 -7 -56 rcurveline
          75 hlineto
          -33 -233 rlineto
          endchar
        </CharString>
        <CharString name="onehalf">
          98 0 74 -65 -21 295 69 -8 70 171 56 45 -20 32 -20 hstemhm
          426 79 74 84 hintmask 1010101110000000
          568 698 rmoveto
          hintmask 0110101110000000
          -494 -710 rlineto
          67 hlineto
          493 710 rlineto
          -600 -346 rmoveto
          -10 -69 rlineto
          220 hlineto
          10 69 rlineto
          -66 hlineto
          hintmask 1010110110000000
          47 334 rlineto
          -40 hlineto
          -36 -22 -55 -19 -31 -4 -7 -56 rcurveline
          75 hlineto
          -33 -233 rlineto
          275 -352 rmoveto
          237 hlineto
          11 74 rlineto
          -136 hlineto
          hintmask 1001101110000000
          66 80 102 66 108 vvcurveto
          61 -44 25 -59 -88 -46 -74 -79 vhcurveto
          79 hlineto
          58 8 15 25 24 hhcurveto
          21 6 -15 -15 -103 -175 -61 -18 -132 hvcurveto
          endchar
        </CharString>
        <CharString name="onequarter">
          98 0 158 -149 -21 101 69 125 69 233 56 45 -20 32 -20 hstemhm
          24 626 hintmask 10011011
          584 698 rmoveto
          hintmask 01011011
          -494 -710 rlineto
          67 hlineto
          493 710 rlineto
          -616 -346 rmoveto
          -10 -69 rlineto
          220 hlineto
          10 69 rlineto
          -66 hlineto
          hintmask 00111101
          47 334 rlineto
          -40 hlineto
          -36 -22 -55 -19 -31 -4 -7 -56 rcurveline
          75 hlineto
          -33 -233 rlineto
          266 -263 rmoveto
          142 hlineto
          hintmask 10011011
          -13 -89 rlineto
          79 hlineto
          hintmask 00111011
          13 89 rlineto
          42 hlineto
          hintmask 10011011
          10 69 rlineto
          -42 hlineto
          23 168 rlineto
          -27 hlineto
          -13 -33 -37 -68 -20 -30 -5 -37 rcurveline
          -68 hlineto
          31 39 74 115 37 102 rrcurveto
          -79 hlineto
          hintmask 00111011
          -38 -91 -50 -100 -51 -73 rrcurveto
          endchar
        </CharString>
        <CharString name="onesuperior">
          -313 320 69 233 56 45 -20 hstem
          39 230 vstem
          49 389 rmoveto
          -10 -69 rlineto
          220 hlineto
          10 69 rlineto
          -66 hlineto
          47 334 rlineto
          -40 hlineto
          -36 -22 -55 -19 -31 -4 -7 -56 rcurveline
          75 hlineto
          -33 -233 rlineto
          endchar
        </CharString>
        <CharString name="ordfeminine">
          -283 362 69 232 69 -8 -20 hstemhm
          70 80 hintmask 11010000
          166 362 rmoveto
          24 29 14 33 18 hvcurveto
          -30 7 19 -17 30 hhcurveto
          19 12 6 5 9 hvcurveto
          8 57 rlineto
          -13 hlineto
          -9 -7 5 14 hvcurveto
          hintmask 10110000
          7 42 268 0 vhcurveto
          -49 hlineto
          hintmask 11010000
          -27 -42 rlineto
          31 -13 -24 19 -37 hhcurveto
          -67 -67 -74 -171 -83 36 -42 60 hvcurveto
          20 69 rmoveto
          -25 -11 24 43 39 14 126 55 28 8 -24 -42 -50 -12 -116 -57 hvcurveto
          endchar
        </CharString>
        <CharString name="ordmasculine">
          -287 363 68 234 68 hstem
          55 83 123 83 vstem
          180 363 rmoveto
          134 30 134 105 88 -43 43 -82 -134 -30 -137 -104 -88 43 -41 82 hvcurveto
          3 68 rmoveto
          -32 -13 21 42 26 4 145 74 32 13 -22 -41 -26 -4 -145 -74 hvcurveto
          endchar
        </CharString>
        <CharString name="orthogonal">
          393 0 110 hstem
          134 660 vstem
          340 625 rmoveto
          -118 hlineto
          -88 -625 rlineto
          644 hlineto
          16 110 rlineto
          -526 hlineto
          endchar
        </CharString>
        <CharString name="oslash">
          -85 -12 101 348 101 hstem
          36 123 183 123 vstem
          36 -32 rmoveto
          75 hlineto
          21 35 rlineto
          -10 25 30 -5 35 hhcurveto
          199 44 200 155 62 -15 47 -28 33 hvcurveto
          44 73 rlineto
          -75 hlineto
          -22 -36 rlineto
          10 -25 -30 6 -35 hhcurveto
          -199 -44 -203 -155 -63 14 -47 29 -31 hvcurveto
          80 133 rmoveto
          11 vlineto
          38 6 216 110 15 12 -4 -6 10 vhcurveto
          30 -75 rmoveto
          -9 vlineto
          -38 -6 -216 -110 -15 -12 3 6 -10 vhcurveto
          endchar
        </CharString>
        <CharString name="oslashacute">
          -85 -12 101 348 101 53 132 hstem
          36 123 183 123 vstem
          36 -32 rmoveto
          75 hlineto
          21 35 rlineto
          -10 25 30 -5 35 hhcurveto
          199 44 200 155 62 -15 47 -28 33 hvcurveto
          44 73 rlineto
          -75 hlineto
          -22 -36 rlineto
          10 -25 -30 6 -35 hhcurveto
          -199 -44 -203 -155 -63 14 -47 29 -31 hvcurveto
          80 133 rmoveto
          11 vlineto
          38 6 216 110 15 12 -4 -6 10 vhcurveto
          30 -75 rmoveto
          -9 vlineto
          -38 -6 -216 -110 -15 -12 3 6 -10 vhcurveto
          129 625 rmoveto
          -86 -132 rlineto
          99 hlineto
          108 129 -1 3 rlineto
          endchar
        </CharString>
</ttFont>
